<svg width="2311" height="991" xmlns="http://www.w3.org/2000/svg" xmlns:xlink="http://www.w3.org/1999/xlink" xml:space="preserve" overflow="hidden"><defs><clipPath id="clip0"><rect x="1314" y="210" width="2311" height="991"/></clipPath><clipPath id="clip1"><rect x="1609" y="402" width="1991" height="612"/></clipPath></defs><g clip-path="url(#clip0)" transform="translate(-1314 -210)"><rect x="1314.5" y="210.5" width="2310" height="990" fill="#2E3440"/><rect x="1314.5" y="210.5" width="2310" height="990" stroke="#D9D9D9" stroke-width="3.4375" stroke-miterlimit="2" fill="none"/><g clip-path="url(#clip1)"><path d="M1614.5 908.5 3594.5 908.5" stroke="#D9D9D9" stroke-width="3.4375" stroke-miterlimit="2" fill="none"/><path d="M1614.5 807.5 3594.5 807.5" stroke="#D9D9D9" stroke-width="3.4375" stroke-miterlimit="2" fill="none"/><path d="M1614.5 707.5 3594.5 707.5" stroke="#D9D9D9" stroke-width="3.4375" stroke-miterlimit="2" fill="none"/><path d="M1614.5 607.5 3594.5 607.5" stroke="#D9D9D9" stroke-width="3.4375" stroke-miterlimit="2" fill="none"/><path d="M1614.5 507.5 3594.5 507.5" stroke="#D9D9D9" stroke-width="3.4375" stroke-miterlimit="2" fill="none"/><path d="M1614.5 407.5 3594.5 407.5" stroke="#D9D9D9" stroke-width="3.4375" stroke-miterlimit="2" fill="none"/><path d="M1780.5 1005.5 1839.5 1005.5" stroke="#D8DEE9" stroke-width="3.4375" stroke-miterlimit="2" fill="none"/><path d="M1810.5 1000.5 1810.5 1005.5" stroke="#D8DEE9" stroke-width="3.4375" stroke-miterlimit="2" fill="none"/><path d="M1780.5 984.5 1839.5 984.5" stroke="#D8DEE9" stroke-width="3.4375" stroke-miterlimit="2" fill="none"/><path d="M1810.5 984.5 1810.5 994.5" stroke="#D8DEE9" stroke-width="3.4375" stroke-miterlimit="2" fill="none"/><rect x="1711.5" y="994.5" width="198" height="6" fill="#88C0D0"/><rect x="1711.5" y="994.5" width="198" height="6" stroke="#D8DEE9" stroke-width="3.4375" stroke-miterlimit="2" fill="none"/><path d="M1711.5 994.5 1909.5 994.5" stroke="#D8DEE9" stroke-width="3.4375" stroke-miterlimit="2" fill="none"/><path d="M1711.5 1000.5 1909.5 1000.5" stroke="#D8DEE9" stroke-width="3.4375" stroke-miterlimit="2" fill="none"/><path d="M1711.5 997.5 1909.5 997.5" stroke="#D8DEE9" stroke-width="3.4375" stroke-miterlimit="2" fill="none"/><circle cx="1810.5" cy="982.5" r="7" fill="#88C0D0"/><circle cx="1810.5" cy="982.5" r="7" stroke="#D8DEE9" stroke-width="3.4375" stroke-miterlimit="2" fill="none"/><circle cx="1810.5" cy="968.5" r="7" fill="#88C0D0"/><circle cx="1810.5" cy="968.5" r="7" stroke="#D8DEE9" stroke-width="3.4375" stroke-miterlimit="2" fill="none"/><circle cx="1810.5" cy="948.5" r="7" fill="#88C0D0"/><circle cx="1810.5" cy="948.5" r="7" stroke="#D8DEE9" stroke-width="3.4375" stroke-miterlimit="2" fill="none"/><circle cx="1810.5" cy="850.5" r="7" fill="#88C0D0"/><circle cx="1810.5" cy="850.5" r="7" stroke="#D8DEE9" stroke-width="3.4375" stroke-miterlimit="2" fill="none"/><circle cx="1810.5" cy="836.5" r="7" fill="#88C0D0"/><circle cx="1810.5" cy="836.5" r="7" stroke="#D8DEE9" stroke-width="3.4375" stroke-miterlimit="2" fill="none"/><ellipse cx="1810.5" cy="799" rx="7" ry="6.5" fill="#88C0D0"/><ellipse cx="1810.5" cy="799" rx="7" ry="6.5" stroke="#D8DEE9" stroke-width="3.4375" stroke-miterlimit="2" fill="none"/><path d="M1796.5 1005.5 1824.5 977.5" stroke="#D8DEE9" stroke-width="3.4375" stroke-miterlimit="2" fill="none"/><path d="M1796.5 977.5 1824.5 1005.5" stroke="#D8DEE9" stroke-width="3.4375" stroke-miterlimit="2" fill="none"/><path d="M2176.5 1005.5 2235.5 1005.5" stroke="#D8DEE9" stroke-width="3.4375" stroke-miterlimit="2" fill="none"/><path d="M2206.5 1000.5 2206.5 1005.5" stroke="#D8DEE9" stroke-width="3.4375" stroke-miterlimit="2" fill="none"/><path d="M2176.5 983.5 2235.5 983.5" stroke="#D8DEE9" stroke-width="3.4375" stroke-miterlimit="2" fill="none"/><path d="M2206.5 983.5 2206.5 993.5" stroke="#D8DEE9" stroke-width="3.4375" stroke-miterlimit="2" fill="none"/><rect x="2107.5" y="993.5" width="198" height="7" fill="#88C0D0"/><rect x="2107.5" y="993.5" width="198" height="7" stroke="#D8DEE9" stroke-width="3.4375" stroke-miterlimit="2" fill="none"/><path d="M2107.5 993.5 2305.5 993.5" stroke="#D8DEE9" stroke-width="3.4375" stroke-miterlimit="2" fill="none"/><path d="M2107.5 1000.5 2305.5 1000.5" stroke="#D8DEE9" stroke-width="3.4375" stroke-miterlimit="2" fill="none"/><path d="M2107.5 999.5 2305.5 999.5" stroke="#D8DEE9" stroke-width="3.4375" stroke-miterlimit="2" fill="none"/><circle cx="2206.5" cy="982.5" r="7" fill="#88C0D0"/><circle cx="2206.5" cy="982.5" r="7" stroke="#D8DEE9" stroke-width="3.4375" stroke-miterlimit="2" fill="none"/><circle cx="2206.5" cy="968.5" r="7" fill="#88C0D0"/><circle cx="2206.5" cy="968.5" r="7" stroke="#D8DEE9" stroke-width="3.4375" stroke-miterlimit="2" fill="none"/><circle cx="2206.5" cy="951.5" r="7" fill="#88C0D0"/><circle cx="2206.5" cy="951.5" r="7" stroke="#D8DEE9" stroke-width="3.4375" stroke-miterlimit="2" fill="none"/><circle cx="2206.5" cy="937.5" r="7" fill="#88C0D0"/><circle cx="2206.5" cy="937.5" r="7" stroke="#D8DEE9" stroke-width="3.4375" stroke-miterlimit="2" fill="none"/><circle cx="2206.5" cy="917.5" r="7" fill="#88C0D0"/><circle cx="2206.5" cy="917.5" r="7" stroke="#D8DEE9" stroke-width="3.4375" stroke-miterlimit="2" fill="none"/><circle cx="2206.5" cy="896.5" r="7" fill="#88C0D0"/><circle cx="2206.5" cy="896.5" r="7" stroke="#D8DEE9" stroke-width="3.4375" stroke-miterlimit="2" fill="none"/><ellipse cx="2206.5" cy="880" rx="7" ry="6.5" fill="#88C0D0"/><ellipse cx="2206.5" cy="880" rx="7" ry="6.5" stroke="#D8DEE9" stroke-width="3.4375" stroke-miterlimit="2" fill="none"/><circle cx="2206.5" cy="826.5" r="7" fill="#88C0D0"/><circle cx="2206.5" cy="826.5" r="7" stroke="#D8DEE9" stroke-width="3.4375" stroke-miterlimit="2" fill="none"/><circle cx="2206.5" cy="812.5" r="7" fill="#88C0D0"/><circle cx="2206.5" cy="812.5" r="7" stroke="#D8DEE9" stroke-width="3.4375" stroke-miterlimit="2" fill="none"/><ellipse cx="2206.5" cy="693" rx="7" ry="6.5" fill="#88C0D0"/><ellipse cx="2206.5" cy="693" rx="7" ry="6.5" stroke="#D8DEE9" stroke-width="3.4375" stroke-miterlimit="2" fill="none"/><ellipse cx="2206.5" cy="244" rx="7" ry="6.5" fill="#88C0D0"/><ellipse cx="2206.5" cy="244" rx="7" ry="6.5" stroke="#D8DEE9" stroke-width="3.4375" stroke-miterlimit="2" fill="none"/><circle cx="2206.5" cy="-4120.5" r="7" fill="#88C0D0"/><circle cx="2206.5" cy="-4120.5" r="7" stroke="#D8DEE9" stroke-width="3.4375" stroke-miterlimit="2" fill="none"/><path d="M2192.5 975.5 2220.5 948.5" stroke="#D8DEE9" stroke-width="3.4375" stroke-miterlimit="2" fill="none"/><path d="M2192.5 948.5 2220.5 975.5" stroke="#D8DEE9" stroke-width="3.4375" stroke-miterlimit="2" fill="none"/><path d="M2572.5 1006.5 2631.5 1006.5" stroke="#D8DEE9" stroke-width="3.4375" stroke-miterlimit="2" fill="none"/><path d="M2602.5 1001.5 2602.5 1006.5" stroke="#D8DEE9" stroke-width="3.4375" stroke-miterlimit="2" fill="none"/><path d="M2572.5 976.5 2631.5 976.5" stroke="#D8DEE9" stroke-width="3.4375" stroke-miterlimit="2" fill="none"/><path d="M2602.5 976.5 2602.5 990.5" stroke="#D8DEE9" stroke-width="3.4375" stroke-miterlimit="2" fill="none"/><rect x="2503.5" y="990.5" width="198" height="11" fill="#88C0D0"/><rect x="2503.5" y="990.5" width="198" height="11" stroke="#D8DEE9" stroke-width="3.4375" stroke-miterlimit="2" fill="none"/><path d="M2503.5 990.5 2701.5 990.5" stroke="#D8DEE9" stroke-width="3.4375" stroke-miterlimit="2" fill="none"/><path d="M2503.5 1001.5 2701.5 1001.5" stroke="#D8DEE9" stroke-width="3.4375" stroke-miterlimit="2" fill="none"/><path d="M2503.5 999.5 2701.5 999.5" stroke="#D8DEE9" stroke-width="3.4375" stroke-miterlimit="2" fill="none"/><ellipse cx="2602.5" cy="973" rx="7" ry="6.5" fill="#88C0D0"/><ellipse cx="2602.5" cy="973" rx="7" ry="6.5" stroke="#D8DEE9" stroke-width="3.4375" stroke-miterlimit="2" fill="none"/><ellipse cx="2602.5" cy="958" rx="7" ry="6.5" fill="#88C0D0"/><ellipse cx="2602.5" cy="958" rx="7" ry="6.5" stroke="#D8DEE9" stroke-width="3.4375" stroke-miterlimit="2" fill="none"/><ellipse cx="2602.5" cy="941" rx="7" ry="6.5" fill="#88C0D0"/><ellipse cx="2602.5" cy="941" rx="7" ry="6.5" stroke="#D8DEE9" stroke-width="3.4375" stroke-miterlimit="2" fill="none"/><circle cx="2602.5" cy="916.5" r="7" fill="#88C0D0"/><circle cx="2602.5" cy="916.5" r="7" stroke="#D8DEE9" stroke-width="3.4375" stroke-miterlimit="2" fill="none"/><circle cx="2602.5" cy="883.5" r="7" fill="#88C0D0"/><circle cx="2602.5" cy="883.5" r="7" stroke="#D8DEE9" stroke-width="3.4375" stroke-miterlimit="2" fill="none"/><ellipse cx="2602.5" cy="807" rx="7" ry="6.5" fill="#88C0D0"/><ellipse cx="2602.5" cy="807" rx="7" ry="6.5" stroke="#D8DEE9" stroke-width="3.4375" stroke-miterlimit="2" fill="none"/><circle cx="2602.5" cy="607.5" r="7" fill="#88C0D0"/><circle cx="2602.5" cy="607.5" r="7" stroke="#D8DEE9" stroke-width="3.4375" stroke-miterlimit="2" fill="none"/><path d="M2588.5 960.5 2616.5 932.5" stroke="#D8DEE9" stroke-width="3.4375" stroke-miterlimit="2" fill="none"/><path d="M2588.5 932.5 2616.5 960.5" stroke="#D8DEE9" stroke-width="3.4375" stroke-miterlimit="2" fill="none"/><path d="M2968.5 1001.5 3027.5 1001.5" stroke="#D8DEE9" stroke-width="3.4375" stroke-miterlimit="2" fill="none"/><path d="M2998.5 998.5 2998.5 1001.5" stroke="#D8DEE9" stroke-width="3.4375" stroke-miterlimit="2" fill="none"/><path d="M2968.5 429.5 3027.5 429.5" stroke="#D8DEE9" stroke-width="3.4375" stroke-miterlimit="2" fill="none"/><path d="M2998.5 429.5 2998.5 694.5" stroke="#D8DEE9" stroke-width="3.4375" stroke-miterlimit="2" fill="none"/><rect x="2899.5" y="694.5" width="198" height="304" fill="#88C0D0"/><rect x="2899.5" y="694.5" width="198" height="304" stroke="#D8DEE9" stroke-width="3.4375" stroke-miterlimit="2" fill="none"/><path d="M2899.5 694.5 3097.5 694.5" stroke="#D8DEE9" stroke-width="3.4375" stroke-miterlimit="2" fill="none"/><path d="M2899.5 998.5 3097.5 998.5" stroke="#D8DEE9" stroke-width="3.4375" stroke-miterlimit="2" fill="none"/><path d="M2899.5 989.5 3097.5 989.5" stroke="#D8DEE9" stroke-width="3.4375" stroke-miterlimit="2" fill="none"/><path d="M2984.5 889.5 3012.5 861.5" stroke="#D8DEE9" stroke-width="3.4375" stroke-miterlimit="2" fill="none"/><path d="M2984.5 861.5 3012.5 889.5" stroke="#D8DEE9" stroke-width="3.4375" stroke-miterlimit="2" fill="none"/><path d="M3364.5 1005.5 3423.5 1005.5" stroke="#D8DEE9" stroke-width="3.4375" stroke-miterlimit="2" fill="none"/><path d="M3394.5 1001.5 3394.5 1005.5" stroke="#D8DEE9" stroke-width="3.4375" stroke-miterlimit="2" fill="none"/><path d="M3364.5 980.5 3423.5 980.5" stroke="#D8DEE9" stroke-width="3.4375" stroke-miterlimit="2" fill="none"/><path d="M3394.5 980.5 3394.5 989.5" stroke="#D8DEE9" stroke-width="3.4375" stroke-miterlimit="2" fill="none"/><rect x="3295.5" y="989.5" width="198" height="12" fill="#88C0D0"/><rect x="3295.5" y="989.5" width="198" height="12" stroke="#D8DEE9" stroke-width="3.4375" stroke-miterlimit="2" fill="none"/><path d="M3295.5 989.5 3493.5 989.5" stroke="#D8DEE9" stroke-width="3.4375" stroke-miterlimit="2" fill="none"/><path d="M3295.5 1001.5 3493.5 1001.5" stroke="#D8DEE9" stroke-width="3.4375" stroke-miterlimit="2" fill="none"/><path d="M3295.5 995.5 3493.5 995.5" stroke="#D8DEE9" stroke-width="3.4375" stroke-miterlimit="2" fill="none"/><circle cx="3394.5" cy="970.5" r="7" fill="#88C0D0"/><circle cx="3394.5" cy="970.5" r="7" stroke="#D8DEE9" stroke-width="3.4375" stroke-miterlimit="2" fill="none"/><ellipse cx="3394.5" cy="942" rx="7" ry="6.5" fill="#88C0D0"/><ellipse cx="3394.5" cy="942" rx="7" ry="6.5" stroke="#D8DEE9" stroke-width="3.4375" stroke-miterlimit="2" fill="none"/><circle cx="3394.5" cy="776.5" r="7" fill="#88C0D0"/><circle cx="3394.5" cy="776.5" r="7" stroke="#D8DEE9" stroke-width="3.4375" stroke-miterlimit="2" fill="none"/><ellipse cx="3394.5" cy="714" rx="7" ry="6.5" fill="#88C0D0"/><ellipse cx="3394.5" cy="714" rx="7" ry="6.5" stroke="#D8DEE9" stroke-width="3.4375" stroke-miterlimit="2" fill="none"/><circle cx="3394.5" cy="502.5" r="7" fill="#88C0D0"/><circle cx="3394.5" cy="502.5" r="7" stroke="#D8DEE9" stroke-width="3.4375" stroke-miterlimit="2" fill="none"/><ellipse cx="3394.5" cy="249" rx="7" ry="6.5" fill="#88C0D0"/><ellipse cx="3394.5" cy="249" rx="7" ry="6.5" stroke="#D8DEE9" stroke-width="3.4375" stroke-miterlimit="2" fill="none"/><ellipse cx="3394.5" cy="-251" rx="7" ry="6.5" fill="#88C0D0"/><ellipse cx="3394.5" cy="-251" rx="7" ry="6.5" stroke="#D8DEE9" stroke-width="3.4375" stroke-miterlimit="2" fill="none"/><circle cx="3394.5" cy="-680.5" r="7" fill="#88C0D0"/><circle cx="3394.5" cy="-680.5" r="7" stroke="#D8DEE9" stroke-width="3.4375" stroke-miterlimit="2" fill="none"/><path d="M3380.5 959.5 3408.5 931.5" stroke="#D8DEE9" stroke-width="3.4375" stroke-miterlimit="2" fill="none"/><path d="M3380.5 931.5 3408.5 959.5" stroke="#D8DEE9" stroke-width="3.4375" stroke-miterlimit="2" fill="none"/></g><path d="M1614.5 1008.5 3594.5 1008.5" stroke="#D9D9D9" stroke-width="3.4375" stroke-miterlimit="2" fill="none"/><text fill="#D8DEE9" font-family="Cascadia Code,Cascadia Code_MSFontService,sans-serif" font-weight="400" font-size="13.3333" transform="matrix(3.4375 0 0 3.4375 1744.82 1037.96)" x="0.136363" y="3.64213">P2PKH<tspan font-size="13.3333" x="119.22" y="3.64213">P2SH</tspan><tspan font-size="13.3333" x="226.55" y="3.64213">P2WPKH</tspan><tspan font-size="13.3333" x="345.633" y="3.64213">P2WSH</tspan><tspan font-size="13.3333" x="464.717" y="3.64213">P2TR</tspan></text><path d="" stroke="#D9D9D9" stroke-width="3.4375" stroke-miterlimit="2" fill="none"/><path d="" stroke="#D9D9D9" stroke-width="3.4375" stroke-miterlimit="2" fill="none"/><path d="" stroke="#D9D9D9" stroke-width="3.4375" stroke-miterlimit="2" fill="none"/><path d="" stroke="#D9D9D9" stroke-width="3.4375" stroke-miterlimit="2" fill="none"/><path d="" stroke="#D9D9D9" stroke-width="3.4375" stroke-miterlimit="2" fill="none"/><path d="" stroke="#D9D9D9" stroke-width="3.4375" stroke-miterlimit="2" fill="none"/><path d="" stroke="#D9D9D9" stroke-width="3.4375" stroke-miterlimit="2" fill="none"/><path d="" stroke="#D9D9D9" stroke-width="3.4375" stroke-miterlimit="2" fill="none"/><path d="" stroke="#D9D9D9" stroke-width="3.4375" stroke-miterlimit="2" fill="none"/><path d="" stroke="#D9D9D9" stroke-width="3.4375" stroke-miterlimit="2" fill="none"/><path d="" stroke="#D9D9D9" stroke-width="3.4375" stroke-miterlimit="2" fill="none"/><path d="" stroke="#D9D9D9" stroke-width="3.4375" stroke-miterlimit="2" fill="none"/><path d="" stroke="#D9D9D9" stroke-width="3.4375" stroke-miterlimit="2" fill="none"/><path d="" stroke="#D9D9D9" stroke-width="3.4375" stroke-miterlimit="2" fill="none"/><path d="" stroke="#D9D9D9" stroke-width="3.4375" stroke-miterlimit="2" fill="none"/><path d="" stroke="#D9D9D9" stroke-width="3.4375" stroke-miterlimit="2" fill="none"/><path d="" stroke="#D9D9D9" stroke-width="3.4375" stroke-miterlimit="2" fill="none"/><text fill="#D8DEE9" font-family="Cascadia Code,Cascadia Code_MSFontService,sans-serif" font-weight="400" font-size="46" transform="translate(2456.67 1164)">Script Type</text><path d="M1614.5 1008.5 1614.5 407.5" stroke="#D9D9D9" stroke-width="3.4375" stroke-miterlimit="2" fill="none"/><text fill="#D8DEE9" font-family="Cascadia Code,Cascadia Code_MSFontService,sans-serif" font-weight="400" font-size="13.3333" transform="matrix(3.4375 0 0 3.4375 1557.86 981.365)" x="0.0272727" y="3.69274">0<tspan font-size="13.3333" x="-31.4262" y="-25.4328">50000</tspan><tspan font-size="13.3333" x="-39.2895" y="-54.643">100000</tspan><tspan font-size="13.3333" x="-39.2895" y="-83.7685">150000</tspan><tspan font-size="13.3333" x="-39.2895" y="-112.894">200000</tspan><tspan font-size="13.3333" x="-39.2895" y="-142.02">250000</tspan><tspan font-size="13.3333" x="-39.2895" y="-171.145">300000</tspan></text><path d="" stroke="#D9D9D9" stroke-width="3.4375" stroke-miterlimit="2" fill="none"/><path d="" stroke="#D9D9D9" stroke-width="3.4375" stroke-miterlimit="2" fill="none"/><path d="" stroke="#D9D9D9" stroke-width="3.4375" stroke-miterlimit="2" fill="none"/><path d="" stroke="#D9D9D9" stroke-width="3.4375" stroke-miterlimit="2" fill="none"/><path d="" stroke="#D9D9D9" stroke-width="3.4375" stroke-miterlimit="2" fill="none"/><path d="" stroke="#D9D9D9" stroke-width="3.4375" stroke-miterlimit="2" fill="none"/><path d="" stroke="#D9D9D9" stroke-width="3.4375" stroke-miterlimit="2" fill="none"/><path d="" stroke="#D9D9D9" stroke-width="3.4375" stroke-miterlimit="2" fill="none"/><path d="" stroke="#D9D9D9" stroke-width="3.4375" stroke-miterlimit="2" fill="none"/><path d="" stroke="#D9D9D9" stroke-width="3.4375" stroke-miterlimit="2" fill="none"/><path d="" stroke="#D9D9D9" stroke-width="3.4375" stroke-miterlimit="2" fill="none"/><path d="" stroke="#D9D9D9" stroke-width="3.4375" stroke-miterlimit="2" fill="none"/><path d="" stroke="#D9D9D9" stroke-width="3.4375" stroke-miterlimit="2" fill="none"/><path d="" stroke="#D9D9D9" stroke-width="3.4375" stroke-miterlimit="2" fill="none"/><path d="" stroke="#D9D9D9" stroke-width="3.4375" stroke-miterlimit="2" fill="none"/><path d="" stroke="#D9D9D9" stroke-width="3.4375" stroke-miterlimit="2" fill="none"/><path d="" stroke="#D9D9D9" stroke-width="3.4375" stroke-miterlimit="2" fill="none"/><path d="" stroke="#D9D9D9" stroke-width="3.4375" stroke-miterlimit="2" fill="none"/><path d="" stroke="#D9D9D9" stroke-width="3.4375" stroke-miterlimit="2" fill="none"/><path d="" stroke="#D9D9D9" stroke-width="3.4375" stroke-miterlimit="2" fill="none"/><path d="" stroke="#D9D9D9" stroke-width="3.4375" stroke-miterlimit="2" fill="none"/><path d="" stroke="#D9D9D9" stroke-width="3.4375" stroke-miterlimit="2" fill="none"/><path d="" stroke="#D9D9D9" stroke-width="3.4375" stroke-miterlimit="2" fill="none"/><path d="" stroke="#D9D9D9" stroke-width="3.4375" stroke-miterlimit="2" fill="none"/><path d="" stroke="#D9D9D9" stroke-width="3.4375" stroke-miterlimit="2" fill="none"/><path d="" stroke="#D9D9D9" stroke-width="3.4375" stroke-miterlimit="2" fill="none"/><path d="" stroke="#D9D9D9" stroke-width="3.4375" stroke-miterlimit="2" fill="none"/><path d="" stroke="#D9D9D9" stroke-width="3.4375" stroke-miterlimit="2" fill="none"/><path d="" stroke="#D9D9D9" stroke-width="3.4375" stroke-miterlimit="2" fill="none"/><path d="" stroke="#D9D9D9" stroke-width="3.4375" stroke-miterlimit="2" fill="none"/><path d="" stroke="#D9D9D9" stroke-width="3.4375" stroke-miterlimit="2" fill="none"/><path d="" stroke="#D9D9D9" stroke-width="3.4375" stroke-miterlimit="2" fill="none"/><path d="" stroke="#D9D9D9" stroke-width="3.4375" stroke-miterlimit="2" fill="none"/><path d="" stroke="#D9D9D9" stroke-width="3.4375" stroke-miterlimit="2" fill="none"/><path d="" stroke="#D9D9D9" stroke-width="3.4375" stroke-miterlimit="2" fill="none"/><path d="" stroke="#D9D9D9" stroke-width="3.4375" stroke-miterlimit="2" fill="none"/><path d="" stroke="#D9D9D9" stroke-width="3.4375" stroke-miterlimit="2" fill="none"/><path d="" stroke="#D9D9D9" stroke-width="3.4375" stroke-miterlimit="2" fill="none"/><text fill="#D8DEE9" font-family="Cascadia Code,Cascadia Code_MSFontService,sans-serif" font-weight="400" font-size="46" transform="matrix(-1.83697e-16 -1 1 -1.83697e-16 1381.74 923)">Total Fee (sats)</text><g><text fill="#D8DEE9" font-family="Cascadia Code,Cascadia Code_MSFontService,sans-serif" font-weight="700" font-size="64" transform="translate(1998.92 295)">Total Fees by Script Type</text></g><g><text fill="#D8DEE9" font-family="Cascadia Code,Cascadia Code_MSFontService,sans-serif" font-weight="400" font-size="46" transform="translate(2307.84 352)">Block 782400</text></g><path d="M1315 210 3625 210 3625 1200 1315 1200Z" fill="#000000" fill-rule="evenodd" fill-opacity="0"/></g></svg>