<svg width="2310" height="990" xmlns="http://www.w3.org/2000/svg" xmlns:xlink="http://www.w3.org/1999/xlink" xml:space="preserve" overflow="hidden"><defs><clipPath id="clip0"><rect x="1364" y="66" width="2310" height="990"/></clipPath><clipPath id="clip1"><rect x="1605" y="204" width="2045" height="666"/></clipPath></defs><g clip-path="url(#clip0)" transform="translate(-1364 -66)"><rect x="1364.5" y="66.5" width="2310" height="990" fill="#2E3440"/><rect x="1364.5" y="66.5" width="2310" height="990" stroke="#D9D9D9" stroke-width="3.4375" stroke-miterlimit="2" fill="none"/><g clip-path="url(#clip1)"><path d="M1610.5 770.5 3644.5 770.5" stroke="#D9D9D9" stroke-width="3.4375" stroke-miterlimit="2" fill="none"/><path d="M1610.5 677.5 3644.5 677.5" stroke="#D9D9D9" stroke-width="3.4375" stroke-miterlimit="2" fill="none"/><path d="M1610.5 583.5 3644.5 583.5" stroke="#D9D9D9" stroke-width="3.4375" stroke-miterlimit="2" fill="none"/><path d="M1610.5 490.5 3644.5 490.5" stroke="#D9D9D9" stroke-width="3.4375" stroke-miterlimit="2" fill="none"/><path d="M1610.5 396.5 3644.5 396.5" stroke="#D9D9D9" stroke-width="3.4375" stroke-miterlimit="2" fill="none"/><path d="M1610.5 303.5 3644.5 303.5" stroke="#D9D9D9" stroke-width="3.4375" stroke-miterlimit="2" fill="none"/><path d="M1610.5 209.5 3644.5 209.5" stroke="#D9D9D9" stroke-width="3.4375" stroke-miterlimit="2" fill="none"/><path d="M1825.5 859.5 1901.5 859.5" stroke="#D8DEE9" stroke-width="3.4375" stroke-miterlimit="2" fill="none"/><path d="M1863.5 809.5 1863.5 859.5" stroke="#D8DEE9" stroke-width="3.4375" stroke-miterlimit="2" fill="none"/><path d="M1825.5 401.5 1901.5 401.5" stroke="#D8DEE9" stroke-width="3.4375" stroke-miterlimit="2" fill="none"/><path d="M1863.5 401.5 1863.5 625.5" stroke="#D8DEE9" stroke-width="3.4375" stroke-miterlimit="2" fill="none"/><rect x="1737.5" y="625.5" width="253" height="184" fill="#88C0D0"/><rect x="1737.5" y="625.5" width="253" height="184" stroke="#D8DEE9" stroke-width="3.4375" stroke-miterlimit="2" fill="none"/><path d="M1737.5 625.5 1990.5 625.5" stroke="#D8DEE9" stroke-width="3.4375" stroke-miterlimit="2" fill="none"/><path d="M1737.5 809.5 1990.5 809.5" stroke="#D8DEE9" stroke-width="3.4375" stroke-miterlimit="2" fill="none"/><path d="M1737.5 808.5 1990.5 808.5" stroke="#D8DEE9" stroke-width="3.4375" stroke-miterlimit="2" fill="none"/><circle cx="1863.5" cy="5631342" r="7" fill="#88C0D0"/><circle cx="1863.5" cy="5631342" r="7" stroke="#D8DEE9" stroke-width="3.4375" stroke-miterlimit="2" fill="none"/><circle cx="1863.5" cy="350.5" r="7" fill="#88C0D0"/><circle cx="1863.5" cy="350.5" r="7" stroke="#D8DEE9" stroke-width="3.4375" stroke-miterlimit="2" fill="none"/><path d="M1850.5 4799.5 1877.5 4771.5" stroke="#D8DEE9" stroke-width="3.4375" stroke-miterlimit="2" fill="none"/><path d="M1850.5 4771.5 1877.5 4799.5" stroke="#D8DEE9" stroke-width="3.4375" stroke-miterlimit="2" fill="none"/><path d="M2332.5 746.5 2409.5 746.5" stroke="#D8DEE9" stroke-width="3.4375" stroke-miterlimit="2" fill="none"/><path d="M2371.5 738.5 2371.5 746.5" stroke="#D8DEE9" stroke-width="3.4375" stroke-miterlimit="2" fill="none"/><path d="M2332.5 724.5 2409.5 724.5" stroke="#D8DEE9" stroke-width="3.4375" stroke-miterlimit="2" fill="none"/><path d="M2371.5 724.5 2371.5 732.5" stroke="#D8DEE9" stroke-width="3.4375" stroke-miterlimit="2" fill="none"/><rect x="2243.5" y="732.5" width="256" height="6" fill="#88C0D0"/><rect x="2243.5" y="732.5" width="256" height="6" stroke="#D8DEE9" stroke-width="3.4375" stroke-miterlimit="2" fill="none"/><path d="M2243.5 732.5 2499.5 732.5" stroke="#D8DEE9" stroke-width="3.4375" stroke-miterlimit="2" fill="none"/><path d="M2243.5 738.5 2499.5 738.5" stroke="#D8DEE9" stroke-width="3.4375" stroke-miterlimit="2" fill="none"/><path d="M2243.5 738.5 2499.5 738.5" stroke="#D8DEE9" stroke-width="3.4375" stroke-miterlimit="2" fill="none"/><circle cx="2371.5" cy="2534552" r="7" fill="#88C0D0"/><circle cx="2371.5" cy="2534552" r="7" stroke="#D8DEE9" stroke-width="3.4375" stroke-miterlimit="2" fill="none"/><circle cx="2371.5" cy="855.5" r="7" fill="#88C0D0"/><circle cx="2371.5" cy="855.5" r="7" stroke="#D8DEE9" stroke-width="3.4375" stroke-miterlimit="2" fill="none"/><circle cx="2371.5" cy="841.5" r="7" fill="#88C0D0"/><circle cx="2371.5" cy="841.5" r="7" stroke="#D8DEE9" stroke-width="3.4375" stroke-miterlimit="2" fill="none"/><circle cx="2371.5" cy="826.5" r="7" fill="#88C0D0"/><circle cx="2371.5" cy="826.5" r="7" stroke="#D8DEE9" stroke-width="3.4375" stroke-miterlimit="2" fill="none"/><ellipse cx="2371.5" cy="805" rx="7" ry="6.5" fill="#88C0D0"/><ellipse cx="2371.5" cy="805" rx="7" ry="6.5" stroke="#D8DEE9" stroke-width="3.4375" stroke-miterlimit="2" fill="none"/><circle cx="2371.5" cy="790.5" r="7" fill="#88C0D0"/><circle cx="2371.5" cy="790.5" r="7" stroke="#D8DEE9" stroke-width="3.4375" stroke-miterlimit="2" fill="none"/><ellipse cx="2371.5" cy="776" rx="7" ry="6.5" fill="#88C0D0"/><ellipse cx="2371.5" cy="776" rx="7" ry="6.5" stroke="#D8DEE9" stroke-width="3.4375" stroke-miterlimit="2" fill="none"/><circle cx="2371.5" cy="759.5" r="7" fill="#88C0D0"/><circle cx="2371.5" cy="759.5" r="7" stroke="#D8DEE9" stroke-width="3.4375" stroke-miterlimit="2" fill="none"/><circle cx="2371.5" cy="724.5" r="7" fill="#88C0D0"/><circle cx="2371.5" cy="724.5" r="7" stroke="#D8DEE9" stroke-width="3.4375" stroke-miterlimit="2" fill="none"/><circle cx="2371.5" cy="710.5" r="7" fill="#88C0D0"/><circle cx="2371.5" cy="710.5" r="7" stroke="#D8DEE9" stroke-width="3.4375" stroke-miterlimit="2" fill="none"/><ellipse cx="2371.5" cy="696" rx="7" ry="6.5" fill="#88C0D0"/><ellipse cx="2371.5" cy="696" rx="7" ry="6.5" stroke="#D8DEE9" stroke-width="3.4375" stroke-miterlimit="2" fill="none"/><circle cx="2371.5" cy="681.5" r="7" fill="#88C0D0"/><circle cx="2371.5" cy="681.5" r="7" stroke="#D8DEE9" stroke-width="3.4375" stroke-miterlimit="2" fill="none"/><circle cx="2371.5" cy="667.5" r="7" fill="#88C0D0"/><circle cx="2371.5" cy="667.5" r="7" stroke="#D8DEE9" stroke-width="3.4375" stroke-miterlimit="2" fill="none"/><circle cx="2371.5" cy="652.5" r="7" fill="#88C0D0"/><circle cx="2371.5" cy="652.5" r="7" stroke="#D8DEE9" stroke-width="3.4375" stroke-miterlimit="2" fill="none"/><circle cx="2371.5" cy="637.5" r="7" fill="#88C0D0"/><circle cx="2371.5" cy="637.5" r="7" stroke="#D8DEE9" stroke-width="3.4375" stroke-miterlimit="2" fill="none"/><circle cx="2371.5" cy="621.5" r="7" fill="#88C0D0"/><circle cx="2371.5" cy="621.5" r="7" stroke="#D8DEE9" stroke-width="3.4375" stroke-miterlimit="2" fill="none"/><ellipse cx="2371.5" cy="605" rx="7" ry="6.5" fill="#88C0D0"/><ellipse cx="2371.5" cy="605" rx="7" ry="6.5" stroke="#D8DEE9" stroke-width="3.4375" stroke-miterlimit="2" fill="none"/><ellipse cx="2371.5" cy="591" rx="7" ry="6.5" fill="#88C0D0"/><ellipse cx="2371.5" cy="591" rx="7" ry="6.5" stroke="#D8DEE9" stroke-width="3.4375" stroke-miterlimit="2" fill="none"/><circle cx="2371.5" cy="575.5" r="7" fill="#88C0D0"/><circle cx="2371.5" cy="575.5" r="7" stroke="#D8DEE9" stroke-width="3.4375" stroke-miterlimit="2" fill="none"/><circle cx="2371.5" cy="559.5" r="7" fill="#88C0D0"/><circle cx="2371.5" cy="559.5" r="7" stroke="#D8DEE9" stroke-width="3.4375" stroke-miterlimit="2" fill="none"/><circle cx="2371.5" cy="544.5" r="7" fill="#88C0D0"/><circle cx="2371.5" cy="544.5" r="7" stroke="#D8DEE9" stroke-width="3.4375" stroke-miterlimit="2" fill="none"/><circle cx="2371.5" cy="521.5" r="7" fill="#88C0D0"/><circle cx="2371.5" cy="521.5" r="7" stroke="#D8DEE9" stroke-width="3.4375" stroke-miterlimit="2" fill="none"/><ellipse cx="2371.5" cy="492" rx="7" ry="6.5" fill="#88C0D0"/><ellipse cx="2371.5" cy="492" rx="7" ry="6.5" stroke="#D8DEE9" stroke-width="3.4375" stroke-miterlimit="2" fill="none"/><circle cx="2371.5" cy="424.5" r="7" fill="#88C0D0"/><circle cx="2371.5" cy="424.5" r="7" stroke="#D8DEE9" stroke-width="3.4375" stroke-miterlimit="2" fill="none"/><circle cx="2371.5" cy="380.5" r="7" fill="#88C0D0"/><circle cx="2371.5" cy="380.5" r="7" stroke="#D8DEE9" stroke-width="3.4375" stroke-miterlimit="2" fill="none"/><path d="M2357.5 1628.5 2384.5 1600.5" stroke="#D8DEE9" stroke-width="3.4375" stroke-miterlimit="2" fill="none"/><path d="M2357.5 1600.5 2384.5 1628.5" stroke="#D8DEE9" stroke-width="3.4375" stroke-miterlimit="2" fill="none"/><path d="M2841.5 861.5 2918.5 861.5" stroke="#D8DEE9" stroke-width="3.4375" stroke-miterlimit="2" fill="none"/><path d="M2879.5 855.5 2879.5 861.5" stroke="#D8DEE9" stroke-width="3.4375" stroke-miterlimit="2" fill="none"/><path d="M2841.5 842.5 2918.5 842.5" stroke="#D8DEE9" stroke-width="3.4375" stroke-miterlimit="2" fill="none"/><path d="M2879.5 842.5 2879.5 850.5" stroke="#D8DEE9" stroke-width="3.4375" stroke-miterlimit="2" fill="none"/><rect x="2752.5" y="850.5" width="255" height="5" fill="#88C0D0"/><rect x="2752.5" y="850.5" width="255" height="5" stroke="#D8DEE9" stroke-width="3.4375" stroke-miterlimit="2" fill="none"/><path d="M2752.5 850.5 3007.5 850.5" stroke="#D8DEE9" stroke-width="3.4375" stroke-miterlimit="2" fill="none"/><path d="M2752.5 855.5 3007.5 855.5" stroke="#D8DEE9" stroke-width="3.4375" stroke-miterlimit="2" fill="none"/><path d="M2752.5 851.5 3007.5 851.5" stroke="#D8DEE9" stroke-width="3.4375" stroke-miterlimit="2" fill="none"/><circle cx="2880" cy="3505225" r="6.5" fill="#88C0D0"/><circle cx="2880" cy="3505225" r="6.5" stroke="#D8DEE9" stroke-width="3.4375" stroke-miterlimit="2" fill="none"/><ellipse cx="2880" cy="842.5" rx="6.5" ry="7" fill="#88C0D0"/><ellipse cx="2880" cy="842.5" rx="6.5" ry="7" stroke="#D8DEE9" stroke-width="3.4375" stroke-miterlimit="2" fill="none"/><ellipse cx="2880" cy="826.5" rx="6.5" ry="7" fill="#88C0D0"/><ellipse cx="2880" cy="826.5" rx="6.5" ry="7" stroke="#D8DEE9" stroke-width="3.4375" stroke-miterlimit="2" fill="none"/><circle cx="2880" cy="811" r="6.5" fill="#88C0D0"/><circle cx="2880" cy="811" r="6.5" stroke="#D8DEE9" stroke-width="3.4375" stroke-miterlimit="2" fill="none"/><ellipse cx="2880" cy="791.5" rx="6.5" ry="7" fill="#88C0D0"/><ellipse cx="2880" cy="791.5" rx="6.5" ry="7" stroke="#D8DEE9" stroke-width="3.4375" stroke-miterlimit="2" fill="none"/><ellipse cx="2880" cy="770.5" rx="6.5" ry="7" fill="#88C0D0"/><ellipse cx="2880" cy="770.5" rx="6.5" ry="7" stroke="#D8DEE9" stroke-width="3.4375" stroke-miterlimit="2" fill="none"/><ellipse cx="2880" cy="723.5" rx="6.5" ry="7" fill="#88C0D0"/><ellipse cx="2880" cy="723.5" rx="6.5" ry="7" stroke="#D8DEE9" stroke-width="3.4375" stroke-miterlimit="2" fill="none"/><path d="M2866.5 5207.5 2893.5 5179.5" stroke="#D8DEE9" stroke-width="3.4375" stroke-miterlimit="2" fill="none"/><path d="M2866.5 5179.5 2893.5 5207.5" stroke="#D8DEE9" stroke-width="3.4375" stroke-miterlimit="2" fill="none"/><path d="M3350.5 862.5 3427.5 862.5" stroke="#D8DEE9" stroke-width="3.4375" stroke-miterlimit="2" fill="none"/><path d="M3388.5 859.5 3388.5 862.5" stroke="#D8DEE9" stroke-width="3.4375" stroke-miterlimit="2" fill="none"/><path d="M3350.5 853.5 3427.5 853.5" stroke="#D8DEE9" stroke-width="3.4375" stroke-miterlimit="2" fill="none"/><path d="M3388.5 853.5 3388.5 856.5" stroke="#D8DEE9" stroke-width="3.4375" stroke-miterlimit="2" fill="none"/><rect x="3260.5" y="856.5" width="256" height="3" fill="#88C0D0"/><rect x="3260.5" y="856.5" width="256" height="3" stroke="#D8DEE9" stroke-width="3.4375" stroke-miterlimit="2" fill="none"/><path d="M3260.5 856.5 3516.5 856.5" stroke="#D8DEE9" stroke-width="3.4375" stroke-miterlimit="2" fill="none"/><path d="M3260.5 859.5 3516.5 859.5" stroke="#D8DEE9" stroke-width="3.4375" stroke-miterlimit="2" fill="none"/><path d="M3260.5 858.5 3516.5 858.5" stroke="#D8DEE9" stroke-width="3.4375" stroke-miterlimit="2" fill="none"/><circle cx="3388.5" cy="1395736" r="7" fill="#88C0D0"/><circle cx="3388.5" cy="1395736" r="7" stroke="#D8DEE9" stroke-width="3.4375" stroke-miterlimit="2" fill="none"/><circle cx="3388.5" cy="864.5" r="7" fill="#88C0D0"/><circle cx="3388.5" cy="864.5" r="7" stroke="#D8DEE9" stroke-width="3.4375" stroke-miterlimit="2" fill="none"/><circle cx="3388.5" cy="850.5" r="7" fill="#88C0D0"/><circle cx="3388.5" cy="850.5" r="7" stroke="#D8DEE9" stroke-width="3.4375" stroke-miterlimit="2" fill="none"/><circle cx="3388.5" cy="836.5" r="7" fill="#88C0D0"/><circle cx="3388.5" cy="836.5" r="7" stroke="#D8DEE9" stroke-width="3.4375" stroke-miterlimit="2" fill="none"/><circle cx="3388.5" cy="822.5" r="7" fill="#88C0D0"/><circle cx="3388.5" cy="822.5" r="7" stroke="#D8DEE9" stroke-width="3.4375" stroke-miterlimit="2" fill="none"/><circle cx="3388.5" cy="808.5" r="7" fill="#88C0D0"/><circle cx="3388.5" cy="808.5" r="7" stroke="#D8DEE9" stroke-width="3.4375" stroke-miterlimit="2" fill="none"/><ellipse cx="3388.5" cy="794" rx="7" ry="6.5" fill="#88C0D0"/><ellipse cx="3388.5" cy="794" rx="7" ry="6.5" stroke="#D8DEE9" stroke-width="3.4375" stroke-miterlimit="2" fill="none"/><circle cx="3388.5" cy="779.5" r="7" fill="#88C0D0"/><circle cx="3388.5" cy="779.5" r="7" stroke="#D8DEE9" stroke-width="3.4375" stroke-miterlimit="2" fill="none"/><circle cx="3388.5" cy="763.5" r="7" fill="#88C0D0"/><circle cx="3388.5" cy="763.5" r="7" stroke="#D8DEE9" stroke-width="3.4375" stroke-miterlimit="2" fill="none"/><circle cx="3388.5" cy="746.5" r="7" fill="#88C0D0"/><circle cx="3388.5" cy="746.5" r="7" stroke="#D8DEE9" stroke-width="3.4375" stroke-miterlimit="2" fill="none"/><ellipse cx="3388.5" cy="724" rx="7" ry="6.5" fill="#88C0D0"/><ellipse cx="3388.5" cy="724" rx="7" ry="6.5" stroke="#D8DEE9" stroke-width="3.4375" stroke-miterlimit="2" fill="none"/><circle cx="3388.5" cy="707.5" r="7" fill="#88C0D0"/><circle cx="3388.5" cy="707.5" r="7" stroke="#D8DEE9" stroke-width="3.4375" stroke-miterlimit="2" fill="none"/><ellipse cx="3388.5" cy="645" rx="7" ry="6.5" fill="#88C0D0"/><ellipse cx="3388.5" cy="645" rx="7" ry="6.5" stroke="#D8DEE9" stroke-width="3.4375" stroke-miterlimit="2" fill="none"/><circle cx="3388.5" cy="631.5" r="7" fill="#88C0D0"/><circle cx="3388.5" cy="631.5" r="7" stroke="#D8DEE9" stroke-width="3.4375" stroke-miterlimit="2" fill="none"/><circle cx="3388.5" cy="265.5" r="7" fill="#88C0D0"/><circle cx="3388.5" cy="265.5" r="7" stroke="#D8DEE9" stroke-width="3.4375" stroke-miterlimit="2" fill="none"/><path d="M3374.5 1336.5 3402.5 1308.5" stroke="#D8DEE9" stroke-width="3.4375" stroke-miterlimit="2" fill="none"/><path d="M3374.5 1308.5 3402.5 1336.5" stroke="#D8DEE9" stroke-width="3.4375" stroke-miterlimit="2" fill="none"/></g><path d="M1610.5 864.5 3644.5 864.5" stroke="#D9D9D9" stroke-width="3.4375" stroke-miterlimit="2" fill="none"/><text fill="#D8DEE9" font-family="Cascadia Code,Cascadia Code_MSFontService,sans-serif" font-weight="400" font-size="13.3333" transform="matrix(3.4375 0 0 3.4375 1783.27 893.963)" x="0.163636" y="3.64213">504000<tspan font-size="13.3333" x="148.066" y="3.64213">680000</tspan><tspan font-size="13.3333" x="295.968" y="3.64213">782400</tspan><tspan font-size="13.3333" x="443.871" y="3.64213">801171</tspan></text><path d="" stroke="#D9D9D9" stroke-width="3.4375" stroke-miterlimit="2" fill="none"/><path d="" stroke="#D9D9D9" stroke-width="3.4375" stroke-miterlimit="2" fill="none"/><path d="" stroke="#D9D9D9" stroke-width="3.4375" stroke-miterlimit="2" fill="none"/><path d="" stroke="#D9D9D9" stroke-width="3.4375" stroke-miterlimit="2" fill="none"/><path d="" stroke="#D9D9D9" stroke-width="3.4375" stroke-miterlimit="2" fill="none"/><path d="" stroke="#D9D9D9" stroke-width="3.4375" stroke-miterlimit="2" fill="none"/><path d="" stroke="#D9D9D9" stroke-width="3.4375" stroke-miterlimit="2" fill="none"/><path d="" stroke="#D9D9D9" stroke-width="3.4375" stroke-miterlimit="2" fill="none"/><path d="" stroke="#D9D9D9" stroke-width="3.4375" stroke-miterlimit="2" fill="none"/><path d="" stroke="#D9D9D9" stroke-width="3.4375" stroke-miterlimit="2" fill="none"/><path d="" stroke="#D9D9D9" stroke-width="3.4375" stroke-miterlimit="2" fill="none"/><path d="" stroke="#D9D9D9" stroke-width="3.4375" stroke-miterlimit="2" fill="none"/><path d="" stroke="#D9D9D9" stroke-width="3.4375" stroke-miterlimit="2" fill="none"/><path d="" stroke="#D9D9D9" stroke-width="3.4375" stroke-miterlimit="2" fill="none"/><g><text fill="#D8DEE9" font-family="Cascadia Code,Cascadia Code_MSFontService,sans-serif" font-weight="400" font-size="46" transform="translate(2466.12 1021)">Block Height</text></g><path d="M1610.5 864.5 1610.5 209.5" stroke="#D9D9D9" stroke-width="3.4375" stroke-miterlimit="2" fill="none"/><text fill="#D8DEE9" font-family="Cascadia Code,Cascadia Code_MSFontService,sans-serif" font-weight="400" font-size="13.3333" transform="matrix(3.4375 0 0 3.4375 1553.61 837.365)" x="0.0272727" y="3.69274">0<tspan font-size="13.3333" x="-15.6994" y="-23.5584">200</tspan><tspan font-size="13.3333" x="-15.6994" y="-50.7248">400</tspan><tspan font-size="13.3333" x="-15.6994" y="-77.976">600</tspan><tspan font-size="13.3333" x="-15.6994" y="-105.142">800</tspan><tspan font-size="13.3333" x="-23.5628" y="-132.394">1000</tspan><tspan font-size="13.3333" x="-23.5628" y="-159.645">1200</tspan><tspan font-size="13.3333" x="-23.5628" y="-186.811">1400</tspan></text><path d="" stroke="#D9D9D9" stroke-width="3.4375" stroke-miterlimit="2" fill="none"/><path d="" stroke="#D9D9D9" stroke-width="3.4375" stroke-miterlimit="2" fill="none"/><path d="" stroke="#D9D9D9" stroke-width="3.4375" stroke-miterlimit="2" fill="none"/><path d="" stroke="#D9D9D9" stroke-width="3.4375" stroke-miterlimit="2" fill="none"/><path d="" stroke="#D9D9D9" stroke-width="3.4375" stroke-miterlimit="2" fill="none"/><path d="" stroke="#D9D9D9" stroke-width="3.4375" stroke-miterlimit="2" fill="none"/><path d="" stroke="#D9D9D9" stroke-width="3.4375" stroke-miterlimit="2" fill="none"/><path d="" stroke="#D9D9D9" stroke-width="3.4375" stroke-miterlimit="2" fill="none"/><path d="" stroke="#D9D9D9" stroke-width="3.4375" stroke-miterlimit="2" fill="none"/><path d="" stroke="#D9D9D9" stroke-width="3.4375" stroke-miterlimit="2" fill="none"/><path d="" stroke="#D9D9D9" stroke-width="3.4375" stroke-miterlimit="2" fill="none"/><path d="" stroke="#D9D9D9" stroke-width="3.4375" stroke-miterlimit="2" fill="none"/><path d="" stroke="#D9D9D9" stroke-width="3.4375" stroke-miterlimit="2" fill="none"/><path d="" stroke="#D9D9D9" stroke-width="3.4375" stroke-miterlimit="2" fill="none"/><path d="" stroke="#D9D9D9" stroke-width="3.4375" stroke-miterlimit="2" fill="none"/><path d="" stroke="#D9D9D9" stroke-width="3.4375" stroke-miterlimit="2" fill="none"/><path d="" stroke="#D9D9D9" stroke-width="3.4375" stroke-miterlimit="2" fill="none"/><path d="" stroke="#D9D9D9" stroke-width="3.4375" stroke-miterlimit="2" fill="none"/><path d="" stroke="#D9D9D9" stroke-width="3.4375" stroke-miterlimit="2" fill="none"/><path d="" stroke="#D9D9D9" stroke-width="3.4375" stroke-miterlimit="2" fill="none"/><path d="" stroke="#D9D9D9" stroke-width="3.4375" stroke-miterlimit="2" fill="none"/><path d="" stroke="#D9D9D9" stroke-width="3.4375" stroke-miterlimit="2" fill="none"/><path d="" stroke="#D9D9D9" stroke-width="3.4375" stroke-miterlimit="2" fill="none"/><path d="" stroke="#D9D9D9" stroke-width="3.4375" stroke-miterlimit="2" fill="none"/><path d="" stroke="#D9D9D9" stroke-width="3.4375" stroke-miterlimit="2" fill="none"/><path d="" stroke="#D9D9D9" stroke-width="3.4375" stroke-miterlimit="2" fill="none"/><path d="" stroke="#D9D9D9" stroke-width="3.4375" stroke-miterlimit="2" fill="none"/><path d="" stroke="#D9D9D9" stroke-width="3.4375" stroke-miterlimit="2" fill="none"/><path d="" stroke="#D9D9D9" stroke-width="3.4375" stroke-miterlimit="2" fill="none"/><path d="" stroke="#D9D9D9" stroke-width="3.4375" stroke-miterlimit="2" fill="none"/><path d="" stroke="#D9D9D9" stroke-width="3.4375" stroke-miterlimit="2" fill="none"/><path d="" stroke="#D9D9D9" stroke-width="3.4375" stroke-miterlimit="2" fill="none"/><path d="" stroke="#D9D9D9" stroke-width="3.4375" stroke-miterlimit="2" fill="none"/><path d="" stroke="#D9D9D9" stroke-width="3.4375" stroke-miterlimit="2" fill="none"/><path d="" stroke="#D9D9D9" stroke-width="3.4375" stroke-miterlimit="2" fill="none"/><path d="" stroke="#D9D9D9" stroke-width="3.4375" stroke-miterlimit="2" fill="none"/><path d="" stroke="#D9D9D9" stroke-width="3.4375" stroke-miterlimit="2" fill="none"/><path d="" stroke="#D9D9D9" stroke-width="3.4375" stroke-miterlimit="2" fill="none"/><path d="" stroke="#D9D9D9" stroke-width="3.4375" stroke-miterlimit="2" fill="none"/><path d="" stroke="#D9D9D9" stroke-width="3.4375" stroke-miterlimit="2" fill="none"/><path d="" stroke="#D9D9D9" stroke-width="3.4375" stroke-miterlimit="2" fill="none"/><path d="" stroke="#D9D9D9" stroke-width="3.4375" stroke-miterlimit="2" fill="none"/><path d="" stroke="#D9D9D9" stroke-width="3.4375" stroke-miterlimit="2" fill="none"/><path d="" stroke="#D9D9D9" stroke-width="3.4375" stroke-miterlimit="2" fill="none"/><g><text fill="#D8DEE9" font-family="Cascadia Code,Cascadia Code_MSFontService,sans-serif" font-weight="400" font-size="46" transform="matrix(-1.83697e-16 -1 1 -1.83697e-16 1432.01 779)">Fee Rate (sats/vB)</text></g><g><text fill="#D8DEE9" font-family="Cascadia Code,Cascadia Code_MSFontService,sans-serif" font-weight="700" font-size="64" transform="translate(2180.54 151)">Fee Rates by Block</text></g><path d="M1364 66 3674 66 3674 1056 1364 1056Z" fill="#000000" fill-rule="evenodd" fill-opacity="0"/></g></svg>