<svg width="2311" height="994" xmlns="http://www.w3.org/2000/svg" xmlns:xlink="http://www.w3.org/1999/xlink" xml:space="preserve" overflow="hidden"><defs><clipPath id="clip0"><rect x="1226" y="74" width="2311" height="994"/></clipPath><clipPath id="clip1"><rect x="1413" y="266" width="2099" height="615"/></clipPath></defs><g clip-path="url(#clip0)" transform="translate(-1226 -74)"><rect x="1226.5" y="74.5" width="2310" height="993" fill="#2E3440"/><rect x="1226.5" y="74.5" width="2310" height="993" stroke="#D9D9D9" stroke-width="3.4375" stroke-miterlimit="2" fill="none"/><g clip-path="url(#clip1)"><path d="M1418.5 815.5 3506.5 815.5" stroke="#D9D9D9" stroke-width="3.4375" stroke-miterlimit="2" fill="none"/><path d="M1418.5 754.5 3506.5 754.5" stroke="#D9D9D9" stroke-width="3.4375" stroke-miterlimit="2" fill="none"/><path d="M1418.5 694.5 3506.5 694.5" stroke="#D9D9D9" stroke-width="3.4375" stroke-miterlimit="2" fill="none"/><path d="M1418.5 633.5 3506.5 633.5" stroke="#D9D9D9" stroke-width="3.4375" stroke-miterlimit="2" fill="none"/><path d="M1418.5 573.5 3506.5 573.5" stroke="#D9D9D9" stroke-width="3.4375" stroke-miterlimit="2" fill="none"/><path d="M1418.5 513.5 3506.5 513.5" stroke="#D9D9D9" stroke-width="3.4375" stroke-miterlimit="2" fill="none"/><path d="M1418.5 452.5 3506.5 452.5" stroke="#D9D9D9" stroke-width="3.4375" stroke-miterlimit="2" fill="none"/><path d="M1418.5 392.5 3506.5 392.5" stroke="#D9D9D9" stroke-width="3.4375" stroke-miterlimit="2" fill="none"/><path d="M1418.5 331.5 3506.5 331.5" stroke="#D9D9D9" stroke-width="3.4375" stroke-miterlimit="2" fill="none"/><path d="M1418.5 271.5 3506.5 271.5" stroke="#D9D9D9" stroke-width="3.4375" stroke-miterlimit="2" fill="none"/><path d="M1564.5 712.5 1616.5 712.5" stroke="#D8DEE9" stroke-width="3.4375" stroke-miterlimit="2" fill="none"/><path d="M1590.5 596.5 1590.5 712.5" stroke="#D8DEE9" stroke-width="3.4375" stroke-miterlimit="2" fill="none"/><path d="M1564.5 381.5 1616.5 381.5" stroke="#D8DEE9" stroke-width="3.4375" stroke-miterlimit="2" fill="none"/><path d="M1590.5 381.5 1590.5 507.5" stroke="#D8DEE9" stroke-width="3.4375" stroke-miterlimit="2" fill="none"/><rect x="1503.5" y="507.5" width="174" height="89" fill="#88C0D0"/><rect x="1503.5" y="507.5" width="174" height="89" stroke="#D8DEE9" stroke-width="3.4375" stroke-miterlimit="2" fill="none"/><path d="M1503.5 507.5 1677.5 507.5" stroke="#D8DEE9" stroke-width="3.4375" stroke-miterlimit="2" fill="none"/><path d="M1503.5 596.5 1677.5 596.5" stroke="#D8DEE9" stroke-width="3.4375" stroke-miterlimit="2" fill="none"/><path d="M1503.5 549.5 1677.5 549.5" stroke="#D8DEE9" stroke-width="3.4375" stroke-miterlimit="2" fill="none"/><ellipse cx="1590.5" cy="754" rx="7" ry="6.5" fill="#88C0D0"/><ellipse cx="1590.5" cy="754" rx="7" ry="6.5" stroke="#D8DEE9" stroke-width="3.4375" stroke-miterlimit="2" fill="none"/><ellipse cx="1590.5" cy="372" rx="7" ry="6.5" fill="#88C0D0"/><ellipse cx="1590.5" cy="372" rx="7" ry="6.5" stroke="#D8DEE9" stroke-width="3.4375" stroke-miterlimit="2" fill="none"/><circle cx="1590.5" cy="342.5" r="7" fill="#88C0D0"/><circle cx="1590.5" cy="342.5" r="7" stroke="#D8DEE9" stroke-width="3.4375" stroke-miterlimit="2" fill="none"/><circle cx="1590.5" cy="326.5" r="7" fill="#88C0D0"/><circle cx="1590.5" cy="326.5" r="7" stroke="#D8DEE9" stroke-width="3.4375" stroke-miterlimit="2" fill="none"/><ellipse cx="1590.5" cy="308" rx="7" ry="6.5" fill="#88C0D0"/><ellipse cx="1590.5" cy="308" rx="7" ry="6.5" stroke="#D8DEE9" stroke-width="3.4375" stroke-miterlimit="2" fill="none"/><ellipse cx="1590.5" cy="260" rx="7" ry="6.5" fill="#88C0D0"/><ellipse cx="1590.5" cy="260" rx="7" ry="6.5" stroke="#D8DEE9" stroke-width="3.4375" stroke-miterlimit="2" fill="none"/><circle cx="1590.5" cy="79.5" r="7" fill="#88C0D0"/><circle cx="1590.5" cy="79.5" r="7" stroke="#D8DEE9" stroke-width="3.4375" stroke-miterlimit="2" fill="none"/><circle cx="1590.5" cy="-4.5" r="7" fill="#88C0D0"/><circle cx="1590.5" cy="-4.5" r="7" stroke="#D8DEE9" stroke-width="3.4375" stroke-miterlimit="2" fill="none"/><ellipse cx="1590.5" cy="-166" rx="7" ry="6.5" fill="#88C0D0"/><ellipse cx="1590.5" cy="-166" rx="7" ry="6.5" stroke="#D8DEE9" stroke-width="3.4375" stroke-miterlimit="2" fill="none"/><circle cx="1590.5" cy="-357.5" r="7" fill="#88C0D0"/><circle cx="1590.5" cy="-357.5" r="7" stroke="#D8DEE9" stroke-width="3.4375" stroke-miterlimit="2" fill="none"/><circle cx="1590.5" cy="-501.5" r="7" fill="#88C0D0"/><circle cx="1590.5" cy="-501.5" r="7" stroke="#D8DEE9" stroke-width="3.4375" stroke-miterlimit="2" fill="none"/><circle cx="1590.5" cy="-535.5" r="7" fill="#88C0D0"/><circle cx="1590.5" cy="-535.5" r="7" stroke="#D8DEE9" stroke-width="3.4375" stroke-miterlimit="2" fill="none"/><circle cx="1590.5" cy="-1012.5" r="7" fill="#88C0D0"/><circle cx="1590.5" cy="-1012.5" r="7" stroke="#D8DEE9" stroke-width="3.4375" stroke-miterlimit="2" fill="none"/><ellipse cx="1590.5" cy="-1543" rx="7" ry="6.5" fill="#88C0D0"/><ellipse cx="1590.5" cy="-1543" rx="7" ry="6.5" stroke="#D8DEE9" stroke-width="3.4375" stroke-miterlimit="2" fill="none"/><ellipse cx="1590.5" cy="-2762" rx="7" ry="6.5" fill="#88C0D0"/><ellipse cx="1590.5" cy="-2762" rx="7" ry="6.5" stroke="#D8DEE9" stroke-width="3.4375" stroke-miterlimit="2" fill="none"/><path d="M1576.5 500.5 1604.5 472.5" stroke="#D8DEE9" stroke-width="3.4375" stroke-miterlimit="2" fill="none"/><path d="M1576.5 472.5 1604.5 500.5" stroke="#D8DEE9" stroke-width="3.4375" stroke-miterlimit="2" fill="none"/><path d="M1913.5 706.5 1965.5 706.5" stroke="#D8DEE9" stroke-width="3.4375" stroke-miterlimit="2" fill="none"/><path d="M1939.5 574.5 1939.5 706.5" stroke="#D8DEE9" stroke-width="3.4375" stroke-miterlimit="2" fill="none"/><path d="M1913.5 370.5 1965.5 370.5" stroke="#D8DEE9" stroke-width="3.4375" stroke-miterlimit="2" fill="none"/><path d="M1939.5 370.5 1939.5 486.5" stroke="#D8DEE9" stroke-width="3.4375" stroke-miterlimit="2" fill="none"/><rect x="1853.5" y="486.5" width="173" height="88" fill="#88C0D0"/><rect x="1853.5" y="486.5" width="173" height="88" stroke="#D8DEE9" stroke-width="3.4375" stroke-miterlimit="2" fill="none"/><path d="M1853.5 486.5 2026.5 486.5" stroke="#D8DEE9" stroke-width="3.4375" stroke-miterlimit="2" fill="none"/><path d="M1853.5 574.5 2026.5 574.5" stroke="#D8DEE9" stroke-width="3.4375" stroke-miterlimit="2" fill="none"/><path d="M1853.5 549.5 2026.5 549.5" stroke="#D8DEE9" stroke-width="3.4375" stroke-miterlimit="2" fill="none"/><circle cx="1939.5" cy="750.5" r="7" fill="#88C0D0"/><circle cx="1939.5" cy="750.5" r="7" stroke="#D8DEE9" stroke-width="3.4375" stroke-miterlimit="2" fill="none"/><circle cx="1939.5" cy="718.5" r="7" fill="#88C0D0"/><circle cx="1939.5" cy="718.5" r="7" stroke="#D8DEE9" stroke-width="3.4375" stroke-miterlimit="2" fill="none"/><circle cx="1939.5" cy="305.5" r="7" fill="#88C0D0"/><circle cx="1939.5" cy="305.5" r="7" stroke="#D8DEE9" stroke-width="3.4375" stroke-miterlimit="2" fill="none"/><circle cx="1939.5" cy="271.5" r="7" fill="#88C0D0"/><circle cx="1939.5" cy="271.5" r="7" stroke="#D8DEE9" stroke-width="3.4375" stroke-miterlimit="2" fill="none"/><circle cx="1939.5" cy="240.5" r="7" fill="#88C0D0"/><circle cx="1939.5" cy="240.5" r="7" stroke="#D8DEE9" stroke-width="3.4375" stroke-miterlimit="2" fill="none"/><circle cx="1939.5" cy="-260.5" r="7" fill="#88C0D0"/><circle cx="1939.5" cy="-260.5" r="7" stroke="#D8DEE9" stroke-width="3.4375" stroke-miterlimit="2" fill="none"/><circle cx="1939.5" cy="-333.5" r="7" fill="#88C0D0"/><circle cx="1939.5" cy="-333.5" r="7" stroke="#D8DEE9" stroke-width="3.4375" stroke-miterlimit="2" fill="none"/><ellipse cx="1939.5" cy="-347" rx="7" ry="6.5" fill="#88C0D0"/><ellipse cx="1939.5" cy="-347" rx="7" ry="6.5" stroke="#D8DEE9" stroke-width="3.4375" stroke-miterlimit="2" fill="none"/><ellipse cx="1939.5" cy="-397" rx="7" ry="6.5" fill="#88C0D0"/><ellipse cx="1939.5" cy="-397" rx="7" ry="6.5" stroke="#D8DEE9" stroke-width="3.4375" stroke-miterlimit="2" fill="none"/><ellipse cx="1939.5" cy="-575" rx="7" ry="6.5" fill="#88C0D0"/><ellipse cx="1939.5" cy="-575" rx="7" ry="6.5" stroke="#D8DEE9" stroke-width="3.4375" stroke-miterlimit="2" fill="none"/><circle cx="1939.5" cy="-1013.5" r="7" fill="#88C0D0"/><circle cx="1939.5" cy="-1013.5" r="7" stroke="#D8DEE9" stroke-width="3.4375" stroke-miterlimit="2" fill="none"/><ellipse cx="1939.5" cy="-1167" rx="7" ry="6.5" fill="#88C0D0"/><ellipse cx="1939.5" cy="-1167" rx="7" ry="6.5" stroke="#D8DEE9" stroke-width="3.4375" stroke-miterlimit="2" fill="none"/><path d="M1925.5 518.5 1953.5 491.5" stroke="#D8DEE9" stroke-width="3.4375" stroke-miterlimit="2" fill="none"/><path d="M1925.5 491.5 1953.5 518.5" stroke="#D8DEE9" stroke-width="3.4375" stroke-miterlimit="2" fill="none"/><path d="M2260.5 815.5 2312.5 815.5" stroke="#D8DEE9" stroke-width="3.4375" stroke-miterlimit="2" fill="none"/><path d="M2286.5 693.5 2286.5 815.5" stroke="#D8DEE9" stroke-width="3.4375" stroke-miterlimit="2" fill="none"/><path d="M2260.5 320.5 2312.5 320.5" stroke="#D8DEE9" stroke-width="3.4375" stroke-miterlimit="2" fill="none"/><path d="M2286.5 320.5 2286.5 513.5" stroke="#D8DEE9" stroke-width="3.4375" stroke-miterlimit="2" fill="none"/><rect x="2199.5" y="513.5" width="173" height="180" fill="#88C0D0"/><rect x="2199.5" y="513.5" width="173" height="180" stroke="#D8DEE9" stroke-width="3.4375" stroke-miterlimit="2" fill="none"/><path d="M2199.5 513.5 2372.5 513.5" stroke="#D8DEE9" stroke-width="3.4375" stroke-miterlimit="2" fill="none"/><path d="M2199.5 693.5 2372.5 693.5" stroke="#D8DEE9" stroke-width="3.4375" stroke-miterlimit="2" fill="none"/><path d="M2199.5 579.5 2372.5 579.5" stroke="#D8DEE9" stroke-width="3.4375" stroke-miterlimit="2" fill="none"/><ellipse cx="2286.5" cy="-36" rx="7" ry="6.5" fill="#88C0D0"/><ellipse cx="2286.5" cy="-36" rx="7" ry="6.5" stroke="#D8DEE9" stroke-width="3.4375" stroke-miterlimit="2" fill="none"/><ellipse cx="2286.5" cy="-101" rx="7" ry="6.5" fill="#88C0D0"/><ellipse cx="2286.5" cy="-101" rx="7" ry="6.5" stroke="#D8DEE9" stroke-width="3.4375" stroke-miterlimit="2" fill="none"/><circle cx="2286.5" cy="-357.5" r="7" fill="#88C0D0"/><circle cx="2286.5" cy="-357.5" r="7" stroke="#D8DEE9" stroke-width="3.4375" stroke-miterlimit="2" fill="none"/><circle cx="2286.5" cy="-1001.5" r="7" fill="#88C0D0"/><circle cx="2286.5" cy="-1001.5" r="7" stroke="#D8DEE9" stroke-width="3.4375" stroke-miterlimit="2" fill="none"/><circle cx="2286.5" cy="-1542.5" r="7" fill="#88C0D0"/><circle cx="2286.5" cy="-1542.5" r="7" stroke="#D8DEE9" stroke-width="3.4375" stroke-miterlimit="2" fill="none"/><path d="M2272.5 574.5 2299.5 547.5" stroke="#D8DEE9" stroke-width="3.4375" stroke-miterlimit="2" fill="none"/><path d="M2272.5 547.5 2299.5 574.5" stroke="#D8DEE9" stroke-width="3.4375" stroke-miterlimit="2" fill="none"/><path d="M2609.5 705.5 2661.5 705.5" stroke="#D8DEE9" stroke-width="3.4375" stroke-miterlimit="2" fill="none"/><path d="M2635.5 656.5 2635.5 705.5" stroke="#D8DEE9" stroke-width="3.4375" stroke-miterlimit="2" fill="none"/><path d="M2609.5 298.5 2661.5 298.5" stroke="#D8DEE9" stroke-width="3.4375" stroke-miterlimit="2" fill="none"/><path d="M2635.5 298.5 2635.5 406.5" stroke="#D8DEE9" stroke-width="3.4375" stroke-miterlimit="2" fill="none"/><rect x="2548.5" y="406.5" width="174" height="250" fill="#88C0D0"/><rect x="2548.5" y="406.5" width="174" height="250" stroke="#D8DEE9" stroke-width="3.4375" stroke-miterlimit="2" fill="none"/><path d="M2548.5 406.5 2722.5 406.5" stroke="#D8DEE9" stroke-width="3.4375" stroke-miterlimit="2" fill="none"/><path d="M2548.5 656.5 2722.5 656.5" stroke="#D8DEE9" stroke-width="3.4375" stroke-miterlimit="2" fill="none"/><path d="M2548.5 607.5 2722.5 607.5" stroke="#D8DEE9" stroke-width="3.4375" stroke-miterlimit="2" fill="none"/><path d="M2621.5 560.5 2649.5 533.5" stroke="#D8DEE9" stroke-width="3.4375" stroke-miterlimit="2" fill="none"/><path d="M2621.5 533.5 2649.5 560.5" stroke="#D8DEE9" stroke-width="3.4375" stroke-miterlimit="2" fill="none"/><path d="M2955.5 780.5 3007.5 780.5" stroke="#D8DEE9" stroke-width="3.4375" stroke-miterlimit="2" fill="none"/><path d="M2981.5 658.5 2981.5 780.5" stroke="#D8DEE9" stroke-width="3.4375" stroke-miterlimit="2" fill="none"/><path d="M2955.5 511.5 3007.5 511.5" stroke="#D8DEE9" stroke-width="3.4375" stroke-miterlimit="2" fill="none"/><path d="M2981.5 511.5 2981.5 573.5" stroke="#D8DEE9" stroke-width="3.4375" stroke-miterlimit="2" fill="none"/><rect x="2895.5" y="573.5" width="173" height="85" fill="#88C0D0"/><rect x="2895.5" y="573.5" width="173" height="85" stroke="#D8DEE9" stroke-width="3.4375" stroke-miterlimit="2" fill="none"/><path d="M2895.5 573.5 3068.5 573.5" stroke="#D8DEE9" stroke-width="3.4375" stroke-miterlimit="2" fill="none"/><path d="M2895.5 658.5 3068.5 658.5" stroke="#D8DEE9" stroke-width="3.4375" stroke-miterlimit="2" fill="none"/><path d="M2895.5 633.5 3068.5 633.5" stroke="#D8DEE9" stroke-width="3.4375" stroke-miterlimit="2" fill="none"/><path d="M2968.5 640.5 2995.5 612.5" stroke="#D8DEE9" stroke-width="3.4375" stroke-miterlimit="2" fill="none"/><path d="M2968.5 612.5 2995.5 640.5" stroke="#D8DEE9" stroke-width="3.4375" stroke-miterlimit="2" fill="none"/></g><path d="M1418.5 875.5 3506.5 875.5" stroke="#D9D9D9" stroke-width="3.4375" stroke-miterlimit="2" fill="none"/><g><text fill="#D8DEE9" font-family="Cascadia Code,Cascadia Code_MSFontService,sans-serif" font-weight="400" font-size="46" transform="translate(2314.42 1032)">Script Type</text></g><text fill="#D8DEE9" font-family="Cascadia Code,Cascadia Code_MSFontService,sans-serif" font-weight="400" font-size="13.3333" transform="matrix(3.4375 0 0 3.4375 1524.37 905.499)" x="0.136363" y="3.68142">P2PKH<tspan font-size="13.3333" x="105.286" y="3.68142">P2SH</tspan><tspan font-size="13.3333" x="198.682" y="3.68142">P2WPKH</tspan><tspan font-size="13.3333" x="303.832" y="3.68142">P2WSH</tspan><tspan font-size="13.3333" x="408.981" y="3.68142">P2TR</tspan></text><path d="M1418.5 875.5 1418.5 271.5" stroke="#D9D9D9" stroke-width="3.4375" stroke-miterlimit="2" fill="none"/><g><text fill="#D8DEE9" font-family="Cascadia Code,Cascadia Code_MSFontService,sans-serif" font-weight="400" font-size="46" transform="matrix(-1.83697e-16 -1 1 -1.83697e-16 1294.01 815)">Fee Rate (sats/vB)</text></g><text fill="#D8DEE9" font-family="Cascadia Code,Cascadia Code_MSFontService,sans-serif" font-weight="400" font-size="13.3333" transform="matrix(3.4375 0 0 3.4375 1361.36 848.901)" x="0.0272727" y="3.64741">0<tspan font-size="13.3333" x="0.0272727" y="-13.9008">5</tspan><tspan font-size="13.3333" x="-7.83608" y="-31.5337">10</tspan><tspan font-size="13.3333" x="-7.83608" y="-49.082">15</tspan><tspan font-size="13.3333" x="-7.83608" y="-66.7149">20</tspan><tspan font-size="13.3333" x="-7.83608" y="-84.2632">25</tspan><tspan font-size="13.3333" x="-7.83608" y="-101.811">30</tspan><tspan font-size="13.3333" x="-7.83608" y="-119.444">35</tspan><tspan font-size="13.3333" x="-7.83608" y="-136.993">40</tspan><tspan font-size="13.3333" x="-7.83608" y="-154.625">45</tspan><tspan font-size="13.3333" x="-7.83608" y="-172.174">50</tspan></text><g><text fill="#D8DEE9" font-family="Cascadia Code,Cascadia Code_MSFontService,sans-serif" font-weight="700" font-size="64" transform="translate(1929.72 159)">Fee Rates by Script Type</text></g><g><text fill="#D8DEE9" font-family="Cascadia Code,Cascadia Code_MSFontService,sans-serif" font-weight="400" font-size="46" transform="translate(2219.85 216)">Block 782400</text></g><path d="M1227 73.9999 3537 73.9999 3537 1067.54 1227 1067.54Z" fill="#000000" fill-rule="evenodd" fill-opacity="0"/></g></svg>