<svg width="1462" height="632" xmlns="http://www.w3.org/2000/svg" xmlns:xlink="http://www.w3.org/1999/xlink" version="1.1" baseProfile="full" viewBox="0 0 1462 632">
<rect width="1462" height="632" x="0" y="0" id="0" fill="var(--active-bg)"></rect>
<path d="M75 602.5L1417 602.5" fill="none" stroke="var(--transparent-fg)" stroke-opacity="0.25" stroke-dasharray="1"></path>
<path d="M75 469.5L1417 469.5" fill="none" stroke="var(--transparent-fg)" stroke-opacity="0.25" stroke-dasharray="1"></path>
<path d="M75 321.5L1417 321.5" fill="none" stroke="var(--transparent-fg)" stroke-opacity="0.25" stroke-dasharray="1"></path>
<path d="M75 173.5L1417 173.5" fill="none" stroke="var(--transparent-fg)" stroke-opacity="0.25" stroke-dasharray="1"></path>
<path d="M75 40.5L1417 40.5" fill="none" stroke="var(--transparent-fg)" stroke-opacity="0.25" stroke-dasharray="1"></path>
<path d="M75 602.5L1417 602.5" fill="none" stroke="#6E7079" stroke-linecap="round"></path>
<path d="M112.5 602L112.5 607" fill="none" stroke="#6E7079"></path>
<path d="M224.5 602L224.5 607" fill="none" stroke="#6E7079"></path>
<path d="M336.5 602L336.5 607" fill="none" stroke="#6E7079"></path>
<path d="M450.5 602L450.5 607" fill="none" stroke="#6E7079"></path>
<path d="M562.5 602L562.5 607" fill="none" stroke="#6E7079"></path>
<path d="M675.5 602L675.5 607" fill="none" stroke="#6E7079"></path>
<path d="M785.5 602L785.5 607" fill="none" stroke="#6E7079"></path>
<path d="M897.5 602L897.5 607" fill="none" stroke="#6E7079"></path>
<path d="M1009.5 602L1009.5 607" fill="none" stroke="#6E7079"></path>
<path d="M1123.5 602L1123.5 607" fill="none" stroke="#6E7079"></path>
<path d="M1235.5 602L1235.5 607" fill="none" stroke="#6E7079"></path>
<path d="M1348.5 602L1348.5 607" fill="none" stroke="#6E7079"></path>
<text dominant-baseline="central" text-anchor="end" style="font-size:12px;font-family:sans-serif;" xml:space="preserve" transform="translate(67 468.9868)" fill="rgb(110, 112, 121)">400 EH/s</text>
<text dominant-baseline="central" text-anchor="end" style="font-size:12px;font-family:sans-serif;" xml:space="preserve" transform="translate(67 321.1944)" fill="rgb(110, 112, 121)">600 EH/s</text>
<text dominant-baseline="central" text-anchor="end" style="font-size:12px;font-family:sans-serif;" xml:space="preserve" transform="translate(67 173.4019)" fill="rgb(110, 112, 121)">800 EH/s</text>
<text dominant-baseline="central" text-anchor="start" style="font-size:12px;font-family:sans-serif;" xml:space="preserve" transform="translate(1425 552.9838)" fill="rgb(110, 112, 121)">40 T</text>
<text dominant-baseline="central" text-anchor="start" style="font-size:12px;font-family:sans-serif;" xml:space="preserve" transform="translate(1425 447.1898)" fill="rgb(110, 112, 121)">60 T</text>
<text dominant-baseline="central" text-anchor="start" style="font-size:12px;font-family:sans-serif;" xml:space="preserve" transform="translate(1425 341.3959)" fill="rgb(110, 112, 121)">80 T</text>
<text dominant-baseline="central" text-anchor="start" style="font-size:12px;font-family:sans-serif;" xml:space="preserve" transform="translate(1425 235.6019)" fill="rgb(110, 112, 121)">100 T</text>
<text dominant-baseline="central" text-anchor="start" style="font-size:12px;font-family:sans-serif;" xml:space="preserve" transform="translate(1425 129.808)" fill="rgb(110, 112, 121)">120 T</text>
<text dominant-baseline="central" text-anchor="middle" style="font: normal normal 12px sans-serif" y="6" transform="translate(112.3799 610)" fill="#6E7079">Mar</text>
<text dominant-baseline="central" text-anchor="middle" style="font: normal normal 12px sans-serif" y="6" transform="translate(224.443 610)" fill="#6E7079">May</text>
<text dominant-baseline="central" text-anchor="middle" style="font: normal normal 12px sans-serif" y="6" transform="translate(336.5828 610)" fill="#6E7079">Jul</text>
<text dominant-baseline="central" text-anchor="middle" style="font: normal normal 12px sans-serif" y="6" transform="translate(450.5608 610)" fill="#6E7079">Sep</text>
<text dominant-baseline="central" text-anchor="middle" style="font: normal normal 12px sans-serif" y="6" transform="translate(562.7006 610)" fill="#6E7079">Nov</text>
<text dominant-baseline="central" text-anchor="middle" style="font: normal normal 12px sans-serif" y="6" transform="translate(785.2183 610)" fill="#6E7079">Mar</text>
<text dominant-baseline="central" text-anchor="middle" style="font: normal normal 12px sans-serif" y="6" transform="translate(897.2814 610)" fill="#6E7079">May</text>
<text dominant-baseline="central" text-anchor="middle" style="font: normal normal 12px sans-serif" y="6" transform="translate(1009.4211 610)" fill="#6E7079">Jul</text>
<text dominant-baseline="central" text-anchor="middle" style="font: normal normal 12px sans-serif" y="6" transform="translate(1123.3992 610)" fill="#6E7079">Sep</text>
<text dominant-baseline="central" text-anchor="middle" style="font: normal normal 12px sans-serif" y="6" transform="translate(1235.5389 610)" fill="#6E7079">Nov</text>
<text dominant-baseline="central" text-anchor="middle" style="font-size:12px;font-family:sans-serif;font-weight:bold;" y="6" transform="translate(674.9169 610)" fill="#6E7079">2024</text>
<text dominant-baseline="central" text-anchor="middle" style="font-size:12px;font-family:sans-serif;font-weight:bold;" y="6" transform="translate(1347.7553 610)" fill="#6E7079">2025</text>
<g clip-path="url(#zr4-c0)">
<path d="M75 561.3832L76.8384 534.2856L78.6767 552.0798L80.5151 541.7874L82.3534 536.8702L84.1918 544.2045L86.0301 539.5351L87.8685 533.3649L89.7068 507.385L91.5452 526.9893L93.3836 523.6633L95.2219 530.4436L97.0603 552.7871L98.8986 524.84L100.737 563.024L102.5753 517.6375L104.4137 571.0872L106.2521 596.6833L108.0904 498.2245L109.9288 543.9163L111.7671 545.7471L113.6055 497.3511L115.4438 537.0607L117.2822 499.7394L119.1205 521.8818L120.9589 516.1427L122.7973 558.1796L124.6356 506.4517L126.474 552.0219L128.3123 551.8606L130.1507 550.5917L131.989 499.442L133.8274 501.3126L135.6658 517.6163L137.5041 529.3212L139.3425 531.831L141.1808 551.1522L143.0192 528.582L144.8575 505.1041L146.6959 527.6068L148.5342 519.7414L150.3726 532.2487L152.211 510.3832L154.0493 470.504L155.8877 484.6695L157.726 514.4083L159.5644 516.835L161.4027 508.7753L163.2411 535.5363L165.0795 512.4876L166.9178 496.2308L168.7562 523.5884L170.5945 523.7611L172.4329 508.0965L174.2712 539.0905L176.1096 483.831L177.948 526.6483L179.7863 486.3745L181.6247 515.3541L183.463 506.1342L185.3014 507.8507L187.1397 547.57L188.9781 494.7608L190.8164 479.8807L192.6548 516.7505L194.4931 519.1929L196.3315 485.6953L198.1699 542.9477L200.0082 490.9078L201.8466 474.7289L203.6849 523.4068L205.5233 528.5253L207.3616 503.1285L209.2 497.232L211.0384 504.782L212.8767 508.0974L214.7151 544.0402L216.5534 532.0347L218.3918 527.579L220.2301 501.422L222.0685 518.6656L223.9068 505.0497L225.7452 439.8314L227.5836 531.4472L229.4219 513.0511L231.2603 506.2338L233.0986 552.8697L234.937 499.6757L236.7753 523.004L238.6137 522.4224L240.4521 492.2627L242.2904 472.7047L244.1288 498.0173L245.9671 516.0212L247.8055 506.6606L249.6438 460.4117L251.4822 500.355L253.3205 499.2756L255.1589 483.0075L256.9973 505.5796L258.8356 494.2469L260.674 527.5891L262.5123 487.5399L264.3507 504.5682L266.189 479.9574L268.0274 508.1479L269.8658 492.4634L271.7041 487.1075L273.5425 500.4061L275.3808 472.7642L277.2192 470.6539L279.0575 482.375L280.8959 505.5971L282.7343 514.2872L284.5726 458.1182L286.4109 520.0071L288.2493 488.2923L290.0877 504.0256L291.926 478.7613L293.7644 511.826L295.6028 474.8232L297.4411 445.549L299.2794 476.6588L301.1178 456.8038L302.9562 468.8811L304.7945 487.4003L306.6329 533.9013L308.4712 478.0871L310.3096 473.2316L312.1479 491.4472L313.9863 478.035L315.8246 491.6251L317.663 501.7442L319.5014 533.344L321.3397 498.2848L323.1781 524.9284L325.0164 484.2478L326.8548 469.5565L328.6931 486.3345L330.5315 494.9454L332.3699 556.8373L334.2082 493.0692L336.0466 470.383L337.8849 516.4144L339.7233 447.5839L341.5616 507.6328L343.4 490.7247L345.2383 485.5203L347.0767 506.4955L348.9151 441.8993L350.7534 429.7034L352.5918 452.3858L354.4301 478.6951L356.2685 510.1071L358.1068 485.8716L359.9452 527.0744L361.7836 488.4928L363.6219 492.4005L365.4603 457.036L367.2986 496.0417L369.137 444.6461L370.9753 467.3961L372.8137 512.2656L374.6521 544.8845L376.4904 493.0281L378.3288 480.0323L380.1671 466.4968L382.0055 492.3943L383.8438 479.1728L385.6822 502.8234L387.5205 486.5518L389.3589 508.7671L391.1973 453.9148L393.0356 488.4422L394.874 501.9494L396.7123 465.6132L398.5507 475.2183L400.389 529.1611L402.2274 470.599L404.0658 450.6077L405.9041 485.6652L407.7425 521.5413L409.5808 454.5836L411.4192 522.116L413.2575 472.6375L415.0959 444.86L416.9342 503.1302L418.7726 437.4659L420.611 434.6152L422.4493 451.8878L424.2877 463.66L426.126 496.3148L427.9644 495.593L429.8027 450.9879L431.6411 449.1899L433.4795 483.255L435.3178 474.4297L437.1562 476.3292L438.9945 489.3123L440.8329 488.1935L442.6712 521.837L444.5096 527.4554L446.3479 439.7412L448.1863 510.0325L450.0247 470.5644L451.863 455.8546L453.7014 452.3638L455.5397 442.5948L457.3781 459.3391L459.2164 511.3519L461.0548 495.4561L462.8932 475.7822L464.7315 500.2246L466.5699 460.8978L468.4082 473.8042L470.2466 447.0274L472.0849 485.3927L473.9233 473.0897L475.7617 438.8406L477.6 394.3123L479.4384 454.5909L481.2767 468.468L483.1151 453.2973L484.9534 480.0437L486.7918 458.6521L488.6301 474.0313L490.4685 495.7982L492.3069 435.5884L494.1452 456.261L495.9836 463.92L497.8219 474.6154L499.6603 432.1222L501.4986 460.137L503.337 460.4653L505.1754 472.8456L507.0137 470.2446L508.8521 436.974L510.6904 419.3431L512.5287 489.2723L514.3671 467.0198L516.2055 428.165L518.0438 403.2456L519.8822 454.7739L521.7205 433.9656L523.5589 425.2345L525.3973 428.1067L527.2356 414.5048L529.074 474.3974L530.9124 458.1035L532.7507 411.6977L534.5891 458.0044L536.4274 402.108L538.2657 433.9189L540.1041 445.7823L541.9424 471.4564L543.7808 429.4913L545.6192 423.3799L547.4575 409.4849L549.2959 482.2348L551.1342 443.524L552.9726 427.5245L554.811 419.7685L556.6493 406.649L558.4877 457.0599L560.326 408.5643L562.1644 409.1316L564.0027 415.419L565.8411 440.1097L567.6794 453.1015L569.5178 378.9681L571.3561 384.3967L573.1945 476.4858L575.0329 454.9758L576.8712 422.9577L578.7096 442.0954L580.548 410.4868L582.3863 394.0831L584.2247 394.9571L586.063 475.7928L587.9014 436.6388L589.7397 408.8566L591.5781 417.7376L593.4164 406.5439L595.2548 412.5571L597.0931 357.1155L598.9315 372.1278L600.7698 405.0433L602.6082 425.3705L604.4466 411.3676L606.2849 372.4171L608.1233 384.996L609.9617 397.9278L611.8 430.8547L613.6384 403.4893L615.4767 431.4462L617.3151 430.7534L619.1534 342.4406L620.9918 448.1149L622.8301 351.5183L624.6685 374.9192L626.5068 413.6718L628.3452 431.0788L630.1835 478.1024L632.0219 430.1433L633.8603 372.528L635.6986 417.4765L637.537 372.8313L639.3754 406.7118L641.2137 396.9675L643.0521 393.0144L644.8904 374.1335L646.7288 389.1889L648.5671 394.111L650.4055 348.9301L652.2438 361.0498L654.0822 407.1044L655.9205 401.8217L657.7589 352.4762L659.5973 347.2537L661.4356 315.4487L663.274 393.9538L665.1123 399.0583L666.9507 422.3935L668.7891 446.2371L670.6274 359.2198L672.4658 382.5775L674.3041 353.6554L676.1425 353.0452L677.9808 420.5621L679.8192 349.0769L681.6575 312.7108L683.4959 399.2456L685.3342 384.5419L687.1726 452.1861L689.011 432.6057L690.8493 353.4058L692.6877 408.3643L694.526 298.6938L696.3644 312.9908L698.2028 339.176L700.0411 418.2784L701.8795 459.441L703.7178 422.696L705.5562 443.5197L707.3945 383.4648L709.2328 402.1858L711.0712 393.4502L712.9096 394.1151L714.7479 361.6917L716.5863 366.2193L718.4247 377.4676L720.263 292.9193L722.1014 374.5738L723.9397 320.1083L725.7781 354.2126L727.6165 353.6377L729.4548 398.5243L731.2932 418.32L733.1315 374.8209L734.9698 261.9604L736.8082 344.5323L738.6465 337.3186L740.4849 336.4238L742.3233 292.8406L744.1616 318.8346L746 377.4638L747.8384 311.1336L749.6767 343.6902L751.5151 377.9973L753.3535 275.824L755.1918 389.8489L757.0302 379.3573L758.8685 316.2838L760.7068 363.889L762.5452 313.7805L764.3835 401.7113L766.2219 356.4974L768.0603 340.4693L769.8986 343.9767L771.737 357.0228L773.5753 297.6765L775.4137 352.9588L777.2521 270.9804L779.0904 364.8609L780.9288 373.1911L782.7672 323.4706L784.6055 362.0721L786.4438 318.8318L788.2822 388.9671L790.1205 316.0276L791.9589 391.3959L793.7972 275.9001L795.6356 358.3102L797.474 239.093L799.3123 315.4432L801.1507 284.7336L802.989 352.1327L804.8274 262.9662L806.6658 357.1031L808.5041 298.7377L810.3425 337.2224L812.1808 372.7035L814.0192 319.0724L815.8575 315.5129L817.6959 317.3484L819.5342 281.144L821.3726 308.1666L823.2109 394.0193L825.0493 347.8934L826.8877 283.0434L828.726 238.7205L830.5644 360.0211L832.4027 349.2431L834.2411 347.0175L836.0795 296.33L837.9178 326.3547L839.7562 289.5209L841.5945 345.5885L843.4329 307.1512L845.2712 312.2044L847.1096 331.4619L848.9479 345.2859L850.7863 313.1249L852.6246 289.2779L854.463 243.6813L856.3014 285.4634L858.1397 318.2503L859.9781 302.2963L861.8165 342.9047L863.6548 334.4714L865.4932 241.3772L867.3315 267.1983L869.1699 316.3271L871.0082 244.8748L872.8466 324.4145L874.6849 305.9295L876.5233 289.9571L878.3616 348.5714L880.2 321.6221L882.0383 285.0494L883.8767 231.2845L885.7151 265.8177L887.5534 282.7514L889.3918 350.0127L891.2302 314.1922L893.0685 305.8164L894.9069 343.876L896.7452 308.9467L898.5836 337.8368L900.4219 291.616L902.2603 343.303L904.0986 300.5822L905.937 328.8287L907.7753 369.7909L909.6137 368.5122L911.452 354.4988L913.2904 311.2128L915.1288 320.4421L916.9671 280.4208L918.8055 356.3948L920.6439 321.1204L922.4822 342.1698L924.3206 340.3358L926.1589 327.7296L927.9973 292.5353L929.8356 373.7553L931.674 288.2258L933.5123 295.6374L935.3507 342.7494L937.189 298.5078L939.0274 243.3581L940.8658 258.3879L942.7041 274.7175L944.5425 245.6152L946.3808 381.6623L948.2192 344.3951L950.0576 347.4657L951.8959 380.1654L953.7343 305.1276L955.5726 329.2248L957.4109 330.7017L959.2493 277.7922L961.0876 348.7476L962.926 386.2534L964.7644 347.5865L966.6027 332.9404L968.4411 235.1552L970.2795 291.1474L972.1178 337.3133L973.9562 391.151L975.7945 314.4272L977.6329 319.3495L979.4713 365.1459L981.3096 354.5937L983.1479 267.5269L984.9863 330.1182L986.8246 301.6329L988.663 341.4737L990.5013 357.6305L992.3397 333.6047L994.1781 297.0711L996.0164 421.1238L997.8548 297.1631L999.6932 381.6553L1001.5315 391.4314L1003.3699 367.8188L1005.2082 342.2856L1007.0466 290.6771L1008.8849 392.5717L1010.7233 320.9938L1012.5616 318.1475L1014.4 319.5388L1016.2383 334.85L1018.0767 408.5856L1019.915 283.3088L1021.7534 351.0832L1023.5918 302.0017L1025.4302 312.3662L1027.2684 364.3457L1029.1068 361.4147L1030.9452 324.9151L1032.7836 315.5383L1034.6219 277.1429L1036.4603 318.4438L1038.2986 333.3125L1040.137 300.9915L1041.9753 382.7981L1043.8137 321.4641L1045.6521 267.9763L1047.4904 253.3023L1049.3287 229.3422L1051.1671 255.355L1053.0055 338.6698L1054.8439 276.6798L1056.6823 265.4477L1058.5205 312.6976L1060.3589 318.8007L1062.1973 231.1625L1064.0356 309.7572L1065.874 312.9789L1067.7123 297.3691L1069.5507 347.0876L1071.389 303.9865L1073.2274 302.283L1075.0658 234.2575L1076.9041 305.0797L1078.7424 361.0692L1080.5808 335.6547L1082.4192 325.9439L1084.2576 335.838L1086.0959 228.2031L1087.9342 307.5343L1089.7726 270.4462L1091.611 328.7048L1093.4493 253.6862L1095.2877 310.4456L1097.126 289.5248L1098.9644 263.0724L1100.8027 348.6729L1102.6411 291.5113L1104.4795 287.7914L1106.3177 261.7683L1108.1561 239.2655L1109.9945 268.9373L1111.8329 348.2109L1113.6713 336.2537L1115.5096 311.7167L1117.3479 244.1915L1119.1863 330.063L1121.0247 299.1258L1122.863 273.4455L1124.7014 304.1953L1126.5397 213.4341L1128.3781 276.2827L1130.2164 267.2607L1132.0548 257.6322L1133.8932 285.9222L1135.7316 244.2428L1137.5698 217.5726L1139.4082 283.6245L1141.2466 317.6402L1143.085 400.5096L1144.9233 244.8035L1146.7616 347.1822L1148.6 288.1995L1150.4384 254.2979L1152.2767 338.9073L1154.1151 249.9013L1155.9534 293.2905L1157.7917 347.6801L1159.6301 278.5771L1161.4685 304.3427L1163.3069 298.3669L1165.1453 269.4936L1166.9835 269.8273L1168.8219 281.6723L1170.6603 336.2397L1172.4987 324.76L1174.337 346.9013L1176.1753 261.3551L1178.0137 320.1634L1179.8521 250.6699L1181.6904 263.4599L1183.5288 251.271L1185.3671 212.6528L1187.2054 277.9059L1189.0438 271.46L1190.8822 258.5682L1192.7206 224.5335L1194.559 338.4484L1196.3972 240.1933L1198.2356 289.1007L1200.074 283.531L1201.9124 298.989L1203.7507 292.442L1205.589 236.6452L1207.4274 282.7752L1209.2657 235.9187L1211.1041 309.1341L1212.9425 180.7581L1214.7808 177.0459L1216.6191 187.5273L1218.4575 289.4558L1220.2959 226.6735L1222.1343 260.1315L1223.9727 220.2706L1225.8109 257.622L1227.6493 198.2725L1229.4877 174.6076L1231.326 207.7822L1233.1644 165.26L1235.0027 218.9621L1236.8411 220.0728L1238.6794 267.976L1240.5178 307.1177L1242.3562 224.7357L1244.1946 248.6216L1246.0328 196.8514L1247.8712 178.0699L1249.7096 235.9899L1251.548 246.709L1253.3864 212.898L1255.2246 251.7865L1257.063 203.6717L1258.9014 269.182L1260.7397 289.0277L1262.5781 202.1483L1264.4164 180.3965L1266.2548 202.7816L1268.0931 185.026L1269.9315 101.9142L1271.7699 212.8684L1273.6083 227.1656L1275.4465 217.4446L1277.2849 251.8679L1279.1233 258.7759L1280.9617 130.3226L1282.8 246.6056L1284.6383 260.8109L1286.4767 232.3168L1288.3151 310.9887L1290.1534 149.4571L1291.9918 171.7695L1293.8301 272.6535L1295.6685 178.9054L1297.5068 202.6336L1299.3452 173.347L1301.1836 241.3786L1303.022 221.6464L1304.8602 213.6335L1306.6986 121.7014L1308.537 179.8055L1310.3754 216.8912L1312.2137 206.7182L1314.052 115.2832L1315.8904 153.5744L1317.7288 240.3077L1319.5671 181.7796L1321.4055 220.4067L1323.2439 176.1198L1325.0822 201.9382L1326.9205 161.1245L1328.7589 181.163L1330.5973 153.4773L1332.4357 205.3563L1334.2739 236.571L1336.1123 161.1736L1337.9507 250.4874L1339.7891 128.2925L1341.6274 200.5102L1343.4657 130.4475L1345.3041 124.446L1347.1425 245.2184L1348.9808 201.388L1350.8192 86.8667L1352.6576 195.5041L1354.4958 153.3421L1356.3342 132.3969L1358.1726 239.6379L1360.011 222.9167L1361.8494 260.1158L1363.6876 151.9835L1365.526 190.8254L1367.3644 203.9448L1369.2028 71.8743L1371.0411 247.7484L1372.8794 138.5796L1374.7178 200.6644L1376.5562 239.5177L1378.3945 160.7276L1380.2329 233.3154L1382.0713 164.1338L1383.9095 147.0673L1385.7479 226.4443L1387.5863 138.289L1389.4247 226.0715L1391.2631 189.9308L1393.1013 253.1732L1394.9397 208.4821L1396.7781 140.026L1398.6165 158.2215L1400.4548 169.1308L1402.2931 188.8533L1404.1315 264.5655L1405.9698 40L1407.8082 77.7447L1409.6466 162.3303L1411.485 223.7108L1413.3232 214.0445L1415.1616 187.3169L1417 76.0468" fill="none" stroke="url(#zr4-g0)" stroke-linejoin="bevel"></path>
</g>
<path d="M-5 -5l287.7333 0l0 24l-287.7333 0Z" transform="translate(592.1333 5)" fill="rgb(0,0,0)" fill-opacity="0" stroke="#ccc" stroke-width="0"></path>
<path d="M3.5 0L21.5 0A3.5 3.5 0 0 1 25 3.5L25 10.5A3.5 3.5 0 0 1 21.5 14L3.5 14A3.5 3.5 0 0 1 0 10.5L0 3.5A3.5 3.5 0 0 1 3.5 0" transform="translate(592.1333 5)" fill="#FFB300"></path>
<text dominant-baseline="central" text-anchor="start" style="font-size:12px;font-family:sans-serif;" x="30" y="7" transform="translate(592.1333 5)" fill="white">Hashrate</text>
<path d="M3.5 0L21.5 0A3.5 3.5 0 0 1 25 3.5L25 10.5A3.5 3.5 0 0 1 21.5 14L3.5 14A3.5 3.5 0 0 1 0 10.5L0 3.5A3.5 3.5 0 0 1 3.5 0" transform="translate(679.9 5)" fill="#D81B60"></path>
<text dominant-baseline="central" text-anchor="start" style="font-size:12px;font-family:sans-serif;" x="30" y="7" transform="translate(679.9 5)" fill="white">Difficulty</text>
<path d="M3.5 0L21.5 0A3.5 3.5 0 0 1 25 3.5L25 10.5A3.5 3.5 0 0 1 21.5 14L3.5 14A3.5 3.5 0 0 1 0 10.5L0 3.5A3.5 3.5 0 0 1 3.5 0" transform="translate(762.9333 5)" fill="#FFB300"></path>
<text dominant-baseline="central" text-anchor="start" style="font-size:12px;font-family:sans-serif;" xml:space="preserve" x="30" y="7" transform="translate(762.9333 5)" fill="white">Hashrate (MA)</text>
<g clip-path="url(#zr4-c1)">
<path d="M75 557.4462L76.8384 557.4462L78.6767 557.4462L80.5151 557.4462L82.3534 557.4462L84.1918 557.4462L86.0301 557.4462L87.8685 557.4462L89.7068 557.4462L91.5452 557.4462L93.3836 557.4462L95.2219 557.4462L97.0603 557.4462L98.8986 557.4462L100.737 557.4462L102.5753 557.4462L104.4137 557.4462L106.2521 536.8299L108.0904 536.8299L109.9288 536.8299L111.7671 536.8299L113.6055 536.8299L115.4438 536.8299L117.2822 536.8299L119.1205 536.8299L120.9589 536.8299L122.7973 536.8299L124.6356 536.8299L126.474 536.8299L128.3123 536.8299L130.1507 534.1962L131.989 534.1962L133.8274 534.1962L135.6658 534.1962L137.5041 534.1962L139.3425 534.1962L141.1808 534.1962L143.0192 534.1962L144.8575 534.1962L146.6959 534.1962L148.5342 534.1962L150.3726 534.1962L152.211 534.1962L154.0493 516.7842L155.8877 516.7842L157.726 516.7842L159.5644 516.7842L161.4027 516.7842L163.2411 516.7842L165.0795 516.7842L166.9178 516.7842L168.7562 516.7842L170.5945 516.7842L172.4329 516.7842L174.2712 516.7842L176.1096 516.7842L177.948 516.7842L179.7863 511.2599L181.6247 511.2599L183.463 511.2599L185.3014 511.2599L187.1397 511.2599L188.9781 511.2599L190.8164 511.2599L192.6548 511.2599L194.4931 511.2599L196.3315 511.2599L198.1699 511.2599L200.0082 511.2599L201.8466 511.2599L203.6849 511.2599L205.5233 506.8978L207.3616 506.8978L209.2 506.8978L211.0384 506.8978L212.8767 506.8978L214.7151 506.8978L216.5534 506.8978L218.3918 506.8978L220.2301 506.8978L222.0685 506.8978L223.9068 506.8978L225.7452 506.8978L227.5836 506.8978L229.4219 506.8978L231.2603 510.6369L233.0986 510.6369L234.937 510.6369L236.7753 510.6369L238.6137 510.6369L240.4521 510.6369L242.2904 510.6369L244.1288 510.6369L245.9671 510.6369L247.8055 510.6369L249.6438 510.6369L251.4822 510.6369L253.3205 510.6369L255.1589 510.6369L256.9973 502.4688L258.8356 502.4688L260.674 502.4688L262.5123 502.4688L264.3507 502.4688L266.189 502.4688L268.0274 502.4688L269.8658 502.4688L271.7041 502.4688L273.5425 502.4688L275.3808 502.4688L277.2192 502.4688L279.0575 502.4688L280.8959 493.5575L282.7343 493.5575L284.5726 493.5575L286.4109 493.5575L288.2493 493.5575L290.0877 493.5575L291.926 493.5575L293.7644 493.5575L295.6028 493.5575L297.4411 493.5575L299.2794 493.5575L301.1178 493.5575L302.9562 493.5575L304.7945 493.5575L306.6329 487.6537L308.4712 487.6537L310.3096 487.6537L312.1479 487.6537L313.9863 487.6537L315.8246 487.6537L317.663 487.6537L319.5014 487.6537L321.3397 487.6537L323.1781 487.6537L325.0164 487.6537L326.8548 487.6537L328.6931 487.6537L330.5315 487.6537L332.3699 496.6686L334.2082 496.6686L336.0466 496.6686L337.8849 496.6686L339.7233 496.6686L341.5616 496.6686L343.4 496.6686L345.2383 496.6686L347.0767 496.6686L348.9151 496.6686L350.7534 496.6686L352.5918 496.6686L354.4301 496.6686L356.2685 496.6686L358.1068 479.3979L359.9452 479.3979L361.7836 479.3979L363.6219 479.3979L365.4603 479.3979L367.2986 479.3979L369.137 479.3979L370.9753 479.3979L372.8137 479.3979L374.6521 479.3979L376.4904 479.3979L378.3288 479.3979L380.1671 479.3979L382.0055 479.3979L383.8438 487.7708L385.6822 487.7708L387.5205 487.7708L389.3589 487.7708L391.1973 487.7708L393.0356 487.7708L394.874 487.7708L396.7123 487.7708L398.5507 487.7708L400.389 487.7708L402.2274 487.7708L404.0658 487.7708L405.9041 487.7708L407.7425 487.7708L409.5808 487.4382L411.4192 487.4382L413.2575 487.4382L415.0959 487.4382L416.9342 487.4382L418.7726 487.4382L420.611 487.4382L422.4493 487.4382L424.2877 487.4382L426.126 487.4382L427.9644 487.4382L429.8027 487.4382L431.6411 487.4382L433.4795 470.3511L435.3178 470.3511L437.1562 470.3511L438.9945 470.3511L440.8329 470.3511L442.6712 470.3511L444.5096 470.3511L446.3479 470.3511L448.1863 470.3511L450.0247 470.3511L451.863 470.3511L453.7014 470.3511L455.5397 470.3511L457.3781 470.3511L459.2164 470.3511L461.0548 478.1338L462.8932 478.1338L464.7315 478.1338L466.5699 478.1338L468.4082 478.1338L470.2466 478.1338L472.0849 478.1338L473.9233 478.1338L475.7617 478.1338L477.6 478.1338L479.4384 478.1338L481.2767 478.1338L483.1151 478.1338L484.9534 462.4248L486.7918 462.4248L488.6301 462.4248L490.4685 462.4248L492.3069 462.4248L494.1452 462.4248L495.9836 462.4248L497.8219 462.4248L499.6603 462.4248L501.4986 462.4248L503.337 462.4248L505.1754 462.4248L507.0137 462.4248L508.8521 462.4248L510.6904 461.3582L512.5287 461.3582L514.3671 461.3582L516.2055 461.3582L518.0438 461.3582L519.8822 461.3582L521.7205 461.3582L523.5589 461.3582L525.3973 461.3582L527.2356 461.3582L529.074 461.3582L530.9124 461.3582L532.7507 461.3582L534.5891 441.7379L536.4274 441.7379L538.2657 441.7379L540.1041 441.7379L541.9424 441.7379L543.7808 441.7379L545.6192 441.7379L547.4575 441.7379L549.2959 441.7379L551.1342 441.7379L552.9726 441.7379L554.811 441.7379L556.6493 441.7379L558.4877 441.7379L560.326 434.1588L562.1644 434.1588L564.0027 434.1588L565.8411 434.1588L567.6794 434.1588L569.5178 434.1588L571.3561 434.1588L573.1945 434.1588L575.0329 434.1588L576.8712 434.1588L578.7096 434.1588L580.548 434.1588L582.3863 434.1588L584.2247 422.4415L586.063 422.4415L587.9014 422.4415L589.7397 422.4415L591.5781 422.4415L593.4164 422.4415L595.2548 422.4415L597.0931 422.4415L598.9315 422.4415L600.7698 422.4415L602.6082 422.4415L604.4466 422.4415L606.2849 422.4415L608.1233 422.4415L609.9617 405.0955L611.8 405.0955L613.6384 405.0955L615.4767 405.0955L617.3151 405.0955L619.1534 405.0955L620.9918 405.0955L622.8301 405.0955L624.6685 405.0955L626.5068 405.0955L628.3452 405.0955L630.1835 405.0955L632.0219 405.0955L633.8603 405.0955L635.6986 408.5438L637.537 408.5438L639.3754 408.5438L641.2137 408.5438L643.0521 408.5438L644.8904 408.5438L646.7288 408.5438L648.5671 408.5438L650.4055 408.5438L652.2438 408.5438L654.0822 408.5438L655.9205 408.5438L657.7589 408.5438L659.5973 383.681L661.4356 383.681L663.274 383.681L665.1123 383.681L666.9507 383.681L668.7891 383.681L670.6274 383.681L672.4658 383.681L674.3041 383.681L676.1425 383.681L677.9808 383.681L679.8192 383.681L681.6575 383.681L683.4959 383.681L685.3342 377.3784L687.1726 377.3784L689.011 377.3784L690.8493 377.3784L692.6877 377.3784L694.526 377.3784L696.3644 377.3784L698.2028 377.3784L700.0411 377.3784L701.8795 377.3784L703.7178 377.3784L705.5562 377.3784L707.3945 377.3784L709.2328 377.3784L711.0712 392.4757L712.9096 392.4757L714.7479 392.4757L716.5863 392.4757L718.4247 392.4757L720.263 392.4757L722.1014 392.4757L723.9397 392.4757L725.7781 392.4757L727.6165 392.4757L729.4548 392.4757L731.2932 392.4757L733.1315 392.4757L734.9698 365.1881L736.8082 365.1881L738.6465 365.1881L740.4849 365.1881L742.3233 365.1881L744.1616 365.1881L746 365.1881L747.8384 365.1881L749.6767 365.1881L751.5151 365.1881L753.3535 365.1881L755.1918 365.1881L757.0302 365.1881L758.8685 332.2696L760.7068 332.2696L762.5452 332.2696L764.3835 332.2696L766.2219 332.2696L768.0603 332.2696L769.8986 332.2696L771.737 332.2696L773.5753 332.2696L775.4137 332.2696L777.2521 332.2696L779.0904 332.2696L780.9288 332.2696L782.7672 332.2696L784.6055 332.2696L786.4438 344.8277L788.2822 344.8277L790.1205 344.8277L791.9589 344.8277L793.7972 344.8277L795.6356 344.8277L797.474 344.8277L799.3123 344.8277L801.1507 344.8277L802.989 344.8277L804.8274 344.8277L806.6658 344.8277L808.5041 344.8277L810.3425 320.5126L812.1808 320.5126L814.0192 320.5126L815.8575 320.5126L817.6959 320.5126L819.5342 320.5126L821.3726 320.5126L823.2109 320.5126L825.0493 320.5126L826.8877 320.5126L828.726 320.5126L830.5644 320.5126L832.4027 320.5126L834.2411 320.5126L836.0795 324.855L837.9178 324.855L839.7562 324.855L841.5945 324.855L843.4329 324.855L845.2712 324.855L847.1096 324.855L848.9479 324.855L850.7863 324.855L852.6246 324.855L854.463 324.855L856.3014 324.855L858.1397 324.855L859.9781 307.6024L861.8165 307.6024L863.6548 307.6024L865.4932 307.6024L867.3315 307.6024L869.1699 307.6024L871.0082 307.6024L872.8466 307.6024L874.6849 307.6024L876.5233 307.6024L878.3616 307.6024L880.2 307.6024L882.0383 307.6024L883.8767 307.6024L885.7151 298.5272L887.5534 298.5272L889.3918 298.5272L891.2302 298.5272L893.0685 298.5272L894.9069 298.5272L896.7452 298.5272L898.5836 298.5272L900.4219 298.5272L902.2603 298.5272L904.0986 298.5272L905.937 298.5272L907.7753 298.5272L909.6137 298.5272L911.452 298.5272L913.2904 324.742L915.1288 324.742L916.9671 324.742L918.8055 324.742L920.6439 324.742L922.4822 324.742L924.3206 324.742L926.1589 324.742L927.9973 324.742L929.8356 324.742L931.674 324.742L933.5123 324.742L935.3507 324.742L937.189 324.742L939.0274 318.2193L940.8658 318.2193L942.7041 318.2193L944.5425 318.2193L946.3808 318.2193L948.2192 318.2193L950.0576 318.2193L951.8959 318.2193L953.7343 318.2193L955.5726 318.2193L957.4109 318.2193L959.2493 318.2193L961.0876 318.2193L962.926 318.2193L964.7644 321.7359L966.6027 321.7359L968.4411 321.7359L970.2795 321.7359L972.1178 321.7359L973.9562 321.7359L975.7945 321.7359L977.6329 321.7359L979.4713 321.7359L981.3096 321.7359L983.1479 321.7359L984.9863 321.7359L986.8246 321.7359L988.663 321.7359L990.5013 321.9549L992.3397 321.9549L994.1781 321.9549L996.0164 321.9549L997.8548 321.9549L999.6932 321.9549L1001.5315 321.9549L1003.3699 321.9549L1005.2082 321.9549L1007.0466 321.9549L1008.8849 321.9549L1010.7233 321.9549L1012.5616 321.9549L1014.4 321.9549L1016.2383 321.9549L1018.0767 344.0662L1019.915 344.0662L1021.7534 344.0662L1023.5918 344.0662L1025.4302 344.0662L1027.2684 344.0662L1029.1068 344.0662L1030.9452 344.0662L1032.7836 344.0662L1034.6219 344.0662L1036.4603 344.0662L1038.2986 344.0662L1040.137 344.0662L1041.9753 330.564L1043.8137 330.564L1045.6521 330.564L1047.4904 330.564L1049.3287 330.564L1051.1671 330.564L1053.0055 330.564L1054.8439 330.564L1056.6823 330.564L1058.5205 330.564L1060.3589 330.564L1062.1973 330.564L1064.0356 330.564L1065.874 284.9733L1067.7123 284.9733L1069.5507 284.9733L1071.389 284.9733L1073.2274 284.9733L1075.0658 284.9733L1076.9041 284.9733L1078.7424 284.9733L1080.5808 284.9733L1082.4192 284.9733L1084.2576 284.9733L1086.0959 284.9733L1087.9342 284.9733L1089.7726 284.9733L1091.611 305.0479L1093.4493 305.0479L1095.2877 305.0479L1097.126 305.0479L1098.9644 305.0479L1100.8027 305.0479L1102.6411 305.0479L1104.4795 305.0479L1106.3177 305.0479L1108.1561 305.0479L1109.9945 305.0479L1111.8329 305.0479L1113.6713 305.0479L1115.5096 305.0479L1117.3479 291.2936L1119.1863 291.2936L1121.0247 291.2936L1122.863 291.2936L1124.7014 291.2936L1126.5397 291.2936L1128.3781 291.2936L1130.2164 291.2936L1132.0548 291.2936L1133.8932 291.2936L1135.7316 291.2936L1137.5698 291.2936L1139.4082 291.2936L1141.2466 291.2936L1143.085 274.3671L1144.9233 274.3671L1146.7616 274.3671L1148.6 274.3671L1150.4384 274.3671L1152.2767 274.3671L1154.1151 274.3671L1155.9534 274.3671L1157.7917 274.3671L1159.6301 274.3671L1161.4685 274.3671L1163.3069 274.3671L1165.1453 274.3671L1166.9835 274.3671L1168.8219 296.9391L1170.6603 296.9391L1172.4987 296.9391L1174.337 296.9391L1176.1753 296.9391L1178.0137 296.9391L1179.8521 296.9391L1181.6904 296.9391L1183.5288 296.9391L1185.3671 296.9391L1187.2054 296.9391L1189.0438 296.9391L1190.8822 296.9391L1192.7206 296.9391L1194.559 277.6572L1196.3972 277.6572L1198.2356 277.6572L1200.074 277.6572L1201.9124 277.6572L1203.7507 277.6572L1205.589 277.6572L1207.4274 277.6572L1209.2657 277.6572L1211.1041 277.6572L1212.9425 277.6572L1214.7808 277.6572L1216.6191 277.6572L1218.4575 258.492L1220.2959 258.492L1222.1343 258.492L1223.9727 258.492L1225.8109 258.492L1227.6493 258.492L1229.4877 258.492L1231.326 258.492L1233.1644 258.492L1235.0027 258.492L1236.8411 258.492L1238.6794 258.492L1240.5178 258.492L1242.3562 226.8906L1244.1946 226.8906L1246.0328 226.8906L1247.8712 226.8906L1249.7096 226.8906L1251.548 226.8906L1253.3864 226.8906L1255.2246 226.8906L1257.063 226.8906L1258.9014 226.8906L1260.7397 226.8906L1262.5781 226.8906L1264.4164 226.8906L1266.2548 226.8906L1268.0931 223.4917L1269.9315 223.4917L1271.7699 223.4917L1273.6083 223.4917L1275.4465 223.4917L1277.2849 223.4917L1279.1233 223.4917L1280.9617 223.4917L1282.8 223.4917L1284.6383 223.4917L1286.4767 223.4917L1288.3151 223.4917L1290.1534 223.4917L1291.9918 223.4917L1293.8301 214.8683L1295.6685 214.8683L1297.5068 214.8683L1299.3452 214.8683L1301.1836 214.8683L1303.022 214.8683L1304.8602 214.8683L1306.6986 214.8683L1308.537 214.8683L1310.3754 214.8683L1312.2137 214.8683L1314.052 214.8683L1315.8904 214.8683L1317.7288 214.8683L1319.5671 190.5197L1321.4055 190.5197L1323.2439 190.5197L1325.0822 190.5197L1326.9205 190.5197L1328.7589 190.5197L1330.5973 190.5197L1332.4357 190.5197L1334.2739 190.5197L1336.1123 190.5197L1337.9507 190.5197L1339.7891 190.5197L1341.6274 190.5197L1343.4657 183.8577L1345.3041 183.8577L1347.1425 183.8577L1348.9808 183.8577L1350.8192 183.8577L1352.6576 183.8577L1354.4958 183.8577L1356.3342 183.8577L1358.1726 183.8577L1360.011 183.8577L1361.8494 183.8577L1363.6876 183.8577L1365.526 183.8577L1367.3644 183.8577L1369.2028 180.3145L1371.0411 180.3145L1372.8794 180.3145L1374.7178 180.3145L1376.5562 180.3145L1378.3945 180.3145L1380.2329 180.3145L1382.0713 180.3145L1383.9095 180.3145L1385.7479 180.3145L1387.5863 180.3145L1389.4247 180.3145L1391.2631 180.3145L1393.1013 180.3145L1394.9397 180.3145L1396.7781 192.7267L1398.6165 192.7267L1400.4548 192.7267L1402.2931 192.7267L1404.1315 192.7267L1405.9698 192.7267L1407.8082 192.7267L1409.6466 192.7267L1411.485 192.7267L1413.3232 192.7267L1415.1616 192.7267L1417 192.7267" fill="none" stroke="#D81B60" stroke-width="3" stroke-linejoin="bevel"></path>
</g>
<g clip-path="url(#zr4-c2)">
<path d="M100.737 538.1762C100.737 538.1762 101.6023 535.2598 102.5753 535.2598C103.4407 535.2598 103.5548 536.4455 104.4137 537.7133C105.3931 539.159 105.3251 540.6868 106.2521 540.6868C107.1634 540.6868 106.9059 537.7827 108.0904 537.7827C108.7443 537.7827 108.9958 538.1464 109.9288 538.2524C110.8341 538.3552 111.1163 538.3552 111.7671 538.3552C112.9547 538.3552 112.421 535.543 113.6055 535.543C114.2594 535.543 114.5376 535.7893 115.4438 535.7893C116.3759 535.7893 116.3537 535.4943 117.2822 535.2796C118.1921 535.0692 118.2101 535.1476 119.1205 534.9391C120.0485 534.7267 120.1827 534.4377 120.9589 534.4377C122.021 534.4377 122.0244 536.2868 122.7973 536.2868C123.8627 536.2868 123.5656 533.1978 124.6356 533.1978C125.404 533.1978 125.4344 535.0099 126.474 535.0099C127.2727 535.0099 127.5603 534.2657 128.3123 534.2657C129.3986 534.2657 129.491 536.4626 130.1507 536.4626C131.3293 536.4626 131.1874 534.114 131.989 531.6863C133.0257 528.5468 132.455 525.3282 133.8274 525.3282C134.2934 525.3282 134.711 526.621 135.6658 526.621C136.5494 526.621 136.5803 526.1256 137.5041 525.648C138.4187 525.1752 138.7208 524.7203 139.3425 524.7203C140.5592 524.7203 139.9363 528.307 141.1808 528.307C141.7747 528.307 142.0878 527.7418 143.0192 527.7418C143.9261 527.7418 143.9395 527.9148 144.8575 528.0994C145.7779 528.2845 145.7709 528.3247 146.6959 528.4811C147.6093 528.6355 147.7557 528.721 148.5342 528.721C149.594 528.721 149.3136 526.9922 150.3726 526.9922C151.1519 526.9922 151.7614 527.2544 152.211 527.2544C153.5998 527.2544 153.0524 524.508 154.0493 521.8198C154.8907 519.5511 154.7573 519.4591 155.8877 517.3405C156.5957 516.0133 156.6551 514.9282 157.726 514.9282C158.4935 514.9282 158.5846 515.6462 159.5644 516.0878C160.4229 516.4747 160.5482 516.192 161.4027 516.5853C162.3865 517.038 162.3137 517.7799 163.2411 517.7799C164.1521 517.7799 164.3115 517.3878 165.0795 516.6577C166.1499 515.6401 165.9325 515.4128 166.9178 514.2844C167.7709 513.3073 167.6861 512.8944 168.7562 512.4468C169.5245 512.1254 169.6711 512.1254 170.5945 512.1254C171.5095 512.1254 171.5477 512.1254 172.4329 512.3248C173.3861 512.5396 173.5405 513.0905 174.2712 513.0905C175.3788 513.0905 174.9758 511.2972 176.1096 510.6964C176.8142 510.3231 177.1485 510.6964 177.948 510.3231C178.9868 509.8379 179.0329 508.7225 179.7863 508.7225C180.8712 508.7225 180.5197 510.3838 181.6247 511.7125C182.3581 512.5943 182.448 513.1434 183.463 513.1434C184.2863 513.1434 184.5531 512.7063 185.3014 512.7063C186.3915 512.7063 186.0887 514.7553 187.1397 514.7553C187.9271 514.7553 188.3669 514.593 188.9781 513.821C190.2053 512.2707 189.5479 510.1106 190.8164 510.1106C191.3863 510.1106 191.8506 510.1106 192.6548 510.3948C193.689 510.7603 193.6959 511.9256 194.4931 511.9256C195.5343 511.9256 195.2607 509.3994 196.3315 509.3994C197.0991 509.3994 197.2354 510.6785 198.1699 510.6785C199.0737 510.6785 199.4255 510.3942 200.0082 509.5326C201.2639 507.6759 200.7581 505.2418 201.8466 505.2418C202.5964 505.2418 202.5162 507.6618 203.6849 507.8802C204.3546 508.0053 204.6751 507.8802 205.5233 508.0053C206.5135 508.1514 206.4528 509.1223 207.3616 509.1223C208.2911 509.1223 208.1991 508.0219 209.2 507.9141C210.0375 507.824 210.1186 507.824 211.0384 507.824C211.957 507.824 211.9613 507.8404 212.8767 507.8404C213.7996 507.8404 214.026 507.6051 214.7151 507.6051C215.8643 507.6051 215.7133 508.7957 216.5534 510.09C217.5517 511.6281 217.2228 513.2699 218.3918 513.2699C219.0612 513.2699 219.2493 512.2883 220.2301 512.248C221.0876 512.2129 221.241 512.2129 222.0685 512.2129C223.0793 512.2129 223.4658 513.5032 223.9068 513.5032C225.3042 513.5032 224.4855 506.6288 225.7452 506.6288C226.3238 506.6288 226.647 507.9922 227.5836 509.3314C228.4854 510.6209 228.3329 511.8862 229.4219 511.8862C230.1713 511.8862 230.3981 510.7413 231.2603 510.7413C232.2365 510.7413 232.0514 512.3643 233.0986 512.3643C233.8898 512.3643 234.1574 512.1341 234.937 512.1341C235.9958 512.1341 235.7908 513.0773 236.7753 513.8522C237.6292 514.5244 237.6812 515.0283 238.6137 515.0283C239.5195 515.0283 239.9122 514.8259 240.4521 513.9726C241.7505 511.9202 241.1214 511.45 242.2904 509.2169C242.9598 507.9383 243.0363 507.8519 244.1288 506.9491C244.8747 506.3327 245.0189 506.1786 245.9671 506.1786C246.8573 506.1786 247.2478 506.5278 247.8055 506.5278C249.0861 506.5278 248.3619 503.3654 249.6438 502.6442C250.2002 502.3312 250.9322 502.3312 251.4822 502.3312C252.7706 502.3312 252.3272 506.2942 253.3205 506.2942C254.1655 506.2942 253.9435 504.0366 255.1589 503.0648C255.7819 502.5668 256.1016 502.8828 256.9973 502.5668C257.9399 502.2342 258.0164 502.3212 258.8356 501.7676C259.8548 501.0789 259.6557 500.7731 260.674 500.0823C261.494 499.5259 261.6373 499.7583 262.5123 499.2732C263.4757 498.7392 263.623 498.8477 264.3507 498.0442C265.4614 496.8176 265.0602 495.2132 266.189 495.2132C266.8985 495.2132 267.1376 495.6971 268.0274 496.2722C268.9759 496.8852 268.8849 497.5894 269.8658 497.5894C270.7232 497.5894 270.8154 497.2895 271.7041 496.8621C272.6538 496.4054 272.7697 496.5149 273.5425 495.8211C274.6081 494.8645 274.2821 493.5613 275.3808 493.5613C276.1205 493.5613 276.3517 494.2441 277.2192 494.2441C278.19 494.2441 278.0688 493.0455 279.0575 493.0455C279.9072 493.0455 280.1528 493.0455 280.8959 493.4669C281.9912 494.0881 281.9406 495.5522 282.7343 495.5522C283.779 495.5522 283.4832 492.3881 284.5726 492.3881C285.3215 492.3881 285.6019 494.1055 286.4109 494.1055C287.4402 494.1055 287.148 491.4857 288.2493 491.4857C288.9864 491.4857 289.2427 492.5847 290.0877 492.5847C291.081 492.5847 291.0572 490.8643 291.926 490.8643C292.8955 490.8643 292.8572 492.9889 293.7644 492.9889C294.6955 492.9889 294.7886 491.9517 295.6028 490.7672C296.627 489.277 296.2488 488.8797 297.4411 487.6396C298.0872 486.9676 298.6108 487.5983 299.2794 486.943C300.4492 485.7966 299.9239 484.5157 301.1178 484.0362C301.7623 483.7773 302.1045 483.7773 302.9562 483.7773C303.9429 483.7773 304.1406 484.0843 304.7945 484.8937C305.979 486.36 305.5298 488.3288 306.6329 488.3288C307.3681 488.3288 307.6613 487.5018 308.4712 486.4948C309.4996 485.2163 309.329 483.7578 310.3096 483.7578C311.1673 483.7578 311.2972 485.9797 312.1479 485.9797C313.1356 485.9797 312.8026 483.1816 313.9863 483.1816C314.641 483.1816 314.9037 483.4037 315.8246 483.4037C316.7421 483.4037 317.0903 483.2517 317.663 483.2517C318.9287 483.2517 318.2777 486.8905 319.5014 486.8905C320.1161 486.8905 320.6973 485.9878 321.3397 485.9878C322.5357 485.9878 322.174 487.7113 323.1781 489.3281C324.0123 490.6715 323.8669 491.908 325.0164 491.908C325.7053 491.908 326.0948 491.4345 326.8548 491.4345C327.9332 491.4345 327.7451 492.4476 328.6931 493.4033C329.5835 494.3008 329.9123 494.0687 330.5315 495.1409C331.7507 497.2521 331.2621 499.77 332.3699 499.77C333.1004 499.77 333.0455 497.9317 334.2082 497.0479C334.8839 496.5343 335.3876 496.5343 336.0466 496.5343C337.2259 496.5343 336.9709 499.4131 337.8849 499.4131C338.8092 499.4131 338.691 496.4889 339.7233 496.4889C340.5293 496.4889 340.4687 498.4621 341.5616 498.4621C342.3071 498.4621 342.5488 498.4621 343.4 498.4021C344.3871 498.3325 344.4038 497.9722 345.2383 497.3205C346.2422 496.5365 346.378 496.5852 347.0767 495.5306C348.2163 493.8107 348.2024 493.7308 348.9151 491.7715C350.0407 488.6771 349.4634 488.3959 350.7534 485.4232C351.3017 484.1597 351.5036 483.2991 352.5918 483.2991C353.342 483.2991 353.6143 483.4215 354.4301 483.9083C355.4526 484.5185 355.2457 485.4932 356.2685 485.4932C357.084 485.4932 357.3401 485.4282 358.1068 484.8882C359.1785 484.1336 358.8567 483.3469 359.9452 482.9041C360.6951 482.5989 360.971 482.5989 361.7836 482.5989C362.8093 482.5989 362.9781 484.0668 363.6219 484.0668C364.8164 484.0668 364.4674 480.1082 365.4603 480.1082C366.3058 480.1082 366.4755 483.3387 367.2986 483.3387C368.3138 483.3387 367.9318 481.0259 369.137 479.1396C369.7701 478.1487 370.0845 477.5844 370.9753 477.5844C371.9228 477.5844 371.9895 478.394 372.8137 479.3674C373.8278 480.5651 373.8273 480.588 374.6521 481.9267C375.6657 483.5719 375.5656 483.634 376.4904 485.3353C377.404 487.0159 377.1349 487.2955 378.3288 488.6905C378.9732 489.4435 379.2452 489.1664 380.1671 489.6313C381.0835 490.0934 381.2218 490.5445 382.0055 490.5445C383.0602 490.5445 382.8117 488.4822 383.8438 488.4822C384.65 488.4822 384.951 489.6124 385.6822 489.6124C386.7894 489.6124 386.4381 486.9109 387.5205 486.9109C388.2764 486.9109 388.5876 488.2625 389.3589 488.2625C390.4259 488.2625 390.2209 485.6967 391.1973 485.6967C392.0592 485.6967 391.9379 487.2068 393.0356 487.7905C393.7763 488.1844 394.049 487.7905 394.874 488.1844C395.8873 488.6682 395.7064 489.057 396.7123 489.5822C397.5447 490.0167 397.6869 489.7165 398.5507 490.1036C399.5253 490.5404 399.8562 491.23 400.389 491.23C401.6946 491.23 401.1054 488.6519 402.2274 486.2776C402.9438 484.7617 402.8845 483.4496 404.0658 483.4496C404.7229 483.4496 405.3274 483.4496 405.9041 483.8251C407.1657 484.6466 406.698 487.4948 407.7425 487.4948C408.5364 487.4948 408.7014 484.9741 409.5808 484.9741C410.5398 484.9741 410.3985 487.8369 411.4192 487.8369C412.2369 487.8369 412.4304 486.9025 413.2575 485.8245C414.2688 484.5066 413.9198 483.7125 415.0959 483.0451C415.7581 482.6693 416.0755 483.0132 416.9342 482.6693C417.9139 482.277 418.1351 482.3851 418.7726 481.5727C419.9734 480.0425 419.6658 479.7646 420.611 477.9842C421.5042 476.3017 421.2103 474.916 422.4493 474.6468C423.0486 474.5166 423.4728 474.5166 424.2877 474.5166C425.3111 474.5166 425.3094 475.923 426.126 475.923C427.1478 475.923 426.931 474.6816 427.9644 473.6851C428.7693 472.909 428.7904 472.4935 429.8027 472.3777C430.6288 472.2832 430.7231 472.3469 431.6411 472.2832C432.5614 472.2193 432.8609 472.2832 433.4795 472.1225C434.6993 471.8057 434.1991 468.9818 435.3178 468.9818C436.0375 468.9818 436.3282 470.4315 437.1562 470.4315C438.1665 470.4315 437.9373 468.2445 438.9945 468.2445C439.7756 468.2445 440.3197 468.4207 440.8329 469.2816C442.1581 471.5051 441.4031 472.0842 442.6712 474.4134C443.2415 475.4609 443.4606 475.8335 444.5096 476.0351C445.2989 476.1868 445.8768 476.0351 446.3479 476.1868C447.7152 476.6271 446.8869 478.9977 448.1863 481.2146C448.7252 482.1341 449.0366 482.4597 450.0247 482.4597C450.8749 482.4597 451.2089 482.4597 451.863 481.9394C453.0472 480.9973 452.8469 480.5114 453.7014 479.0093C454.6852 477.2797 454.2995 475.4761 455.5397 475.4761C456.1379 475.4761 456.831 475.4761 457.3781 476.0328C458.6693 477.3469 457.9428 478.4597 459.2164 480.1769C459.7812 480.9384 460.0951 480.8919 461.0548 480.9904C461.9335 481.0805 462.1013 480.9904 462.8932 481.0805C463.9397 481.1997 463.8499 482.6736 464.7315 482.6736C465.6882 482.6736 465.5403 481.5783 466.5699 480.7793C467.3786 480.1515 467.8923 480.6544 468.4082 479.82C469.7307 477.6811 469.1193 477.2215 470.2466 474.8327C470.9577 473.3257 471.0968 472.0285 472.0849 472.0285C472.9351 472.0285 473.2582 474.2517 473.9233 474.2517C475.0966 474.2517 474.8701 471.889 475.7617 469.5056C476.7085 466.9742 476.2286 464.6696 477.6 464.4221C478.0669 464.3379 478.586 464.3379 479.4384 464.3379C480.4244 464.3379 480.3224 464.9476 481.2767 465.4115C482.1607 465.8412 482.2662 465.6416 483.1151 466.125C484.1046 466.6885 484.2788 467.5053 484.9534 467.5053C486.1171 467.5053 485.6335 465.5488 486.7918 463.992C487.4718 463.078 487.6997 462.5637 488.6301 462.5637C489.538 462.5637 489.8682 463.8981 490.4685 463.8981C491.7066 463.8981 490.9918 460.3658 492.3069 459.589C492.8301 459.2799 493.2474 459.5163 494.1452 459.2799C495.0857 459.0322 495.1951 458.6209 495.9836 458.6209C497.0335 458.6209 497.0975 460.4601 497.8219 460.4601C498.9359 460.4601 498.4411 458.3727 499.6603 456.9088C500.2795 456.1652 500.6437 456.0452 501.4986 456.0452C502.482 456.0452 502.7923 456.4977 503.337 457.4869C504.6307 459.8363 503.8441 460.449 505.1754 462.7224C505.6825 463.5885 506.2214 463.766 507.0137 463.766C508.0597 463.766 507.9531 462.7332 508.8521 461.6664C509.7914 460.5516 509.5861 459.4028 510.6904 459.4028C511.4245 459.4028 511.6054 459.7234 512.5287 460.018C513.4438 460.31 513.7237 460.5759 514.3671 460.5759C515.5621 460.5759 515.55 459.1633 516.2055 457.5181C517.3884 454.5494 516.6799 451.348 518.0438 451.348C518.5183 451.348 518.9879 452.627 519.8822 452.627C520.8262 452.627 520.9348 452.0094 521.7205 451.1406C522.7732 449.9767 522.6991 449.8898 523.5589 448.5616C524.5375 447.05 524.252 446.7926 525.3973 445.461C526.0904 444.6551 526.2922 444.2865 527.2356 444.2865C528.1306 444.2865 528.1021 445.2372 529.074 445.2372C529.9404 445.2372 530.3754 445.2372 530.9124 445.0798C532.2137 444.6982 531.4827 442.6906 532.7507 441.0032C533.321 440.2443 533.8458 440.8221 534.5891 440.1872C535.6841 439.2519 535.347 437.8628 536.4274 437.8628C537.1854 437.8628 537.5723 438.8345 538.2657 438.8345C539.4107 438.8345 538.9122 435.9352 540.1041 435.9352C540.7506 435.9352 541.0179 436.1415 541.9424 436.231C542.8563 436.3194 542.9589 436.231 543.7808 436.3194C544.7973 436.4287 544.8991 437.6617 545.6192 437.6617C546.7375 437.6617 546.5601 434.6424 547.4575 434.6424C548.3984 434.6424 548.1435 436.4696 549.2959 437.8604C549.9818 438.6882 550.1316 439.0797 551.1342 439.0797C551.97 439.0797 552.0615 439.0409 552.9726 439.0409C553.8999 439.0409 554.3011 439.3918 554.811 439.3918C556.1394 439.3918 555.3145 435.0596 556.6493 434.8752C557.1529 434.8056 557.5711 434.8751 558.4877 434.8056C559.4095 434.7358 559.7177 434.8056 560.326 434.5967C561.5561 434.1744 560.975 431.3385 562.1644 431.3385C562.8134 431.3385 563.0467 431.8879 564.0027 432.226C564.8851 432.538 564.9263 432.4146 565.8411 432.6387C566.7646 432.8649 567.26 433.1266 567.6794 433.1266C569.0984 433.1266 568.33 429.9239 569.5178 426.9607C570.1684 425.3378 570.4939 423.9544 571.3561 423.9544C572.3323 423.9544 572.2213 425.755 573.1945 427.4948C574.0597 429.0415 574.2081 430.5276 575.0329 430.5276C576.0465 430.5276 575.5788 426.8013 576.8712 426.5757C577.4171 426.4805 577.8639 426.5757 578.7096 426.4805C579.7023 426.3687 579.6979 426.0032 580.548 425.3447C581.5363 424.5791 581.362 424.3265 582.3863 423.6323C583.2004 423.0806 583.3546 422.8528 584.2247 422.8528C585.193 422.8528 585.2199 423.3861 586.063 424.1017C587.0582 424.9464 586.8205 425.9733 587.9014 425.9733C588.6588 425.9733 588.8222 425.955 589.7397 425.955C590.6605 425.955 590.8627 426.1096 591.5781 426.1096C592.7011 426.1096 592.5528 425.0323 593.4164 423.8719C594.3912 422.562 594.1845 422.3799 595.2548 421.1689C596.0228 420.2999 596.1036 420.3242 597.0931 419.712C597.942 419.1869 598.4118 419.683 598.9315 418.8941C600.2502 416.8926 599.567 416.3352 600.7698 414.1313C601.4053 412.9669 601.5513 412.9471 602.6082 412.1576C603.3896 411.5739 603.9221 412.1576 604.4466 411.3849C605.7605 409.4492 605.0603 408.853 606.2849 406.7397C606.8986 405.6807 607.0676 405.0403 608.1233 405.0403C608.906 405.0403 609.2616 405.0403 609.9617 405.2966C611.0999 405.7134 611.1215 407.6898 611.8 407.6898C612.9599 407.6898 612.2892 403.8242 613.6384 402.8696C614.1276 402.5234 614.6614 402.5234 615.4767 402.5234C616.4998 402.5234 616.7541 403.9832 617.3151 403.9832C618.5925 403.9832 618.0201 398.9634 619.1534 398.9634C619.8585 398.9634 620.207 401.7348 620.9918 401.7348C622.0454 401.7348 621.5964 397.6655 622.8301 397.6655C623.4348 397.6655 623.9388 398.0671 624.6685 398.8524C625.7771 400.0454 625.4627 400.3425 626.5068 401.622C627.301 402.5952 627.6296 402.3358 628.3452 403.3578C629.468 404.9613 629.0056 405.3459 630.1835 406.8732C630.8439 407.7295 631.0155 408.116 632.0219 408.1249C632.8538 408.1323 633.138 408.1249 633.8603 408.1323C634.9763 408.1437 634.7182 410.2977 635.6986 410.2977C636.5566 410.2977 636.6099 409.4523 637.537 408.6246C638.4483 407.811 638.3386 407.5774 639.3754 407.015C640.1769 406.5803 640.525 407.015 641.2137 406.5803C642.3633 405.8545 642.2635 405.3771 643.0521 404.0181C644.1019 402.2087 643.903 400.2435 644.8904 400.2435C645.7413 400.2435 645.8605 403.36 646.7288 403.36C647.6988 403.36 647.3052 400.1375 648.5671 399.7598C649.1435 399.5872 649.5361 399.7598 650.4055 399.5872C651.3744 399.3949 651.2855 399.0177 652.2438 398.6626C653.1239 398.3365 653.322 398.6626 654.0822 398.2248C655.1604 397.6038 655.4827 397.5038 655.9205 396.2743C657.3211 392.341 656.6641 392.0384 657.7589 387.8992C658.5025 385.0879 658.532 385.0769 659.5973 382.3732C660.3703 380.4113 660.266 380.2773 661.4356 378.568C662.1044 377.5906 662.3772 376.9998 663.274 376.9998C664.2156 376.9998 664.1097 377.9864 665.1123 378.7483C665.9481 379.3833 666.2894 379.0149 666.9507 379.7937C668.1277 381.1799 667.7519 383.0783 668.7891 383.0783C669.5903 383.0783 669.5207 380.8253 670.6274 380.8253C671.3591 380.8253 671.7475 381.3883 672.4658 381.3883C673.5859 381.3883 673.4286 380.2354 674.3041 379.0194C675.267 377.6821 675.422 376.2817 676.1425 376.2817C677.2604 376.2817 676.6599 381.0571 677.9808 381.0571C678.4982 381.0571 679.3887 381.0571 679.8192 380.2589C681.2271 377.6479 680.2231 374.5758 681.6575 373.966C682.0615 373.7943 682.7684 373.7943 683.4959 373.7943C684.6068 373.7943 684.8186 374.6512 685.3342 375.932C686.657 379.2178 686.3011 379.4179 687.1726 382.9275C688.1394 386.8209 687.7048 390.738 689.011 390.738C689.5431 390.738 689.6957 388.0348 690.8493 388.0348C691.534 388.0348 692.3444 388.6552 692.6877 388.6552C694.1827 388.6552 693.6395 384.5389 694.526 380.4085C695.4778 375.974 694.8943 375.6114 696.3644 371.5255C696.7327 370.5018 697.4115 370.1892 698.2028 370.1892C699.2498 370.1892 699.5041 371.1916 700.0411 372.5692C701.3424 375.9078 700.7886 376.1516 701.8795 379.6216C702.627 381.9994 702.4748 382.1778 703.7178 384.265C704.3132 385.2647 704.7312 384.9378 705.5562 385.7955C706.5696 386.8493 706.8061 386.7665 707.3945 388.088C708.6444 390.8952 707.8198 394.053 709.2328 394.053C709.6581 394.053 710.1683 393.6667 711.0712 393.6667C712.0066 393.6667 712.4761 394.3049 712.9096 394.3049C714.3145 394.3049 713.7033 391.2434 714.7479 388.2719C715.5417 386.014 715.3681 383.8462 716.5863 383.8462C717.2065 383.8462 717.9914 385.4503 718.4247 385.4503C719.8298 385.4503 719.1689 377.754 720.263 377.754C721.0072 377.754 720.7424 381.4674 722.1014 382.8126C722.5807 383.2871 723.0655 382.936 723.9397 383.2871C724.9038 383.6744 725.2102 384.2896 725.7781 384.2896C727.0486 384.2896 726.6744 382.1248 727.6165 379.9802C728.5128 377.9396 728.1579 376.6177 729.4548 375.9191C729.9963 375.6273 730.7897 375.9191 731.2932 375.6273C732.628 374.8539 732.4464 373.4104 733.1315 371.0474C734.2847 367.0703 733.7548 366.8944 734.9698 362.9471C735.5931 360.9225 735.8791 361.0205 736.8082 359.1036C737.7174 357.2277 737.7376 357.2375 738.6465 355.3615C739.5759 353.4434 739.6338 353.4683 740.4849 351.5154C741.4722 349.2502 741.2663 349.1531 742.3233 346.9253C743.1046 345.2786 742.9385 343.7668 744.1616 343.7663C744.7768 343.7661 745.1638 343.7661 746 343.7661C747.0022 343.7661 747.0223 344.9803 747.8384 344.9803C748.8607 344.9803 748.9554 342.9214 749.6767 342.9214C750.7938 342.9214 750.7144 346.7807 751.5151 346.7807C752.5527 346.7807 752.1657 341.5548 753.3535 341.5548C754.004 341.5548 754.1339 343.9689 755.1918 343.9689C755.9723 343.9689 756.5869 343.6652 757.0302 342.6911C758.4252 339.6251 757.433 338.4855 758.8685 335.8887C759.2713 335.1599 760.0897 335.1599 760.7068 335.1599C761.9281 335.1599 761.662 336.869 762.5452 338.6146C763.5004 340.5023 763.1813 340.762 764.3835 342.4265C765.0197 343.3072 765.2172 343.38 766.2219 343.7051C767.0556 343.9748 767.4643 343.7051 768.0603 343.9748C769.3027 344.537 768.8834 345.7395 769.8986 347.3839C770.7217 348.717 771.0786 349.9297 771.737 349.9297C772.917 349.9297 772.4216 344.6106 773.5753 344.6106C774.26 344.6106 774.6934 347.3989 775.4137 347.3989C776.5318 347.3989 775.9322 344.6062 777.2521 342.5516C777.7705 341.7446 778.6642 341.6758 779.0904 341.6758C780.5025 341.6758 779.8539 348.167 780.9288 348.167C781.6923 348.167 781.5017 345.6614 782.7672 343.7418C783.3401 342.8726 783.6123 342.5894 784.6055 342.5894C785.4506 342.5894 785.6602 342.5894 786.4438 342.7593C787.4986 342.9879 787.227 344.2293 788.2822 344.4312C789.0654 344.581 789.2299 344.581 790.1205 344.581C791.0683 344.581 791.4867 344.581 791.9589 343.8933C793.3251 341.9036 792.4705 338.5201 793.7972 338.5201C794.3088 338.5201 795.2083 339.7095 795.6356 339.7095C797.0467 339.7095 796.2149 336.061 797.474 332.7173C798.0533 331.1789 798.1709 331.0737 799.3123 329.9453C800.0092 329.2563 800.186 329.1432 801.1507 329.0824C802.0243 329.0274 802.0883 329.0824 802.989 329.0274C803.9266 328.9701 803.9071 328.7563 804.8274 328.4931C805.7455 328.2305 806.1784 328.4931 806.6658 327.9759C808.0167 326.5425 807.1797 323.0123 808.5041 323.0123C809.0181 323.0123 809.4041 323.5142 810.3425 323.9291C811.2425 324.327 811.2298 324.6207 812.1808 324.6379C813.0682 324.6539 813.5411 324.6539 814.0192 324.6539C815.3794 324.6539 814.4977 319.757 815.8575 319.757C816.336 319.757 817.3366 319.845 817.6959 319.845C819.1749 319.845 818.1958 312.4949 819.5342 312.4949C820.0341 312.4949 820.4815 313.5476 821.3726 314.646C822.3198 315.8135 822.6839 315.6455 823.2109 317.0266C824.5222 320.4625 823.7163 324.28 825.0493 324.28C825.5546 324.28 826.0746 323.2761 826.8877 322.12C827.9129 320.6623 827.5281 319.0524 828.726 319.0524C829.3665 319.0524 830.1223 319.0524 830.5644 319.5783C831.9606 321.239 831.0144 325.3301 832.4027 325.3301C832.8528 325.3301 833.2948 324.828 834.2411 324.6577C835.1332 324.4972 835.1917 324.6577 836.0795 324.4972C837.03 324.3253 837.4532 324.4972 837.9178 323.7727C839.2915 321.6305 838.4764 318.2272 839.7562 318.2272C840.3148 318.2272 840.546 319.9949 841.5945 319.9949C842.3843 319.9949 842.5013 319.6656 843.4329 319.4375C844.3397 319.2154 844.6676 319.0946 845.2712 319.0946C846.506 319.0946 846.0916 320.8352 847.1096 322.4491C847.93 323.7497 848.3025 324.9237 848.9479 324.9237C850.1409 324.9237 849.7406 322.1761 850.7863 319.5308C851.5789 317.5258 851.5693 317.4979 852.6246 315.623C853.4076 314.232 853.5996 312.9989 854.463 312.9989C855.438 312.9989 855.345 316.1151 856.3014 316.1151C857.1834 316.1151 857.2592 314.7468 858.1397 313.3304C859.0975 311.7896 858.7623 310.7361 859.9781 310.2006C860.6007 309.9264 861.1326 309.9264 861.8165 309.9264C862.9709 309.9264 863.0205 312.4692 863.6548 312.4692C864.8588 312.4692 864.1773 309.3641 865.4932 306.804C866.0157 305.7874 866.4698 306.1219 867.3315 305.3159C868.3081 304.4024 868.4874 304.4977 869.1699 303.3651C870.3258 301.4465 869.7341 299.2133 871.0082 299.2133C871.5724 299.2133 872.0281 300.0273 872.8466 300.0273C873.8665 300.0273 873.9899 299.3442 874.6849 298.3252C875.8283 296.6488 875.4585 294.6366 876.5233 294.6366C877.2969 294.6366 877.4172 295.8388 878.3616 296.9997C879.2555 298.0984 879.3527 298.0235 880.2 299.156C881.1911 300.4806 881.2113 301.9138 882.0383 301.9138C883.0496 301.9138 882.9456 300.1017 883.8767 298.3019C884.784 296.548 884.5446 296.3341 885.7151 294.8064C886.3829 293.9348 886.5557 293.5034 887.5534 293.5034C888.394 293.5034 888.5569 293.9773 889.3918 293.9773C890.3953 293.9773 890.627 292.6253 891.2302 292.6253C892.4653 292.6253 892.2184 294.7461 893.0685 296.9213C894.0568 299.45 893.5454 302.0331 894.9069 302.0331C895.3838 302.0331 896.3271 301.5411 896.7452 301.5411C898.1654 301.5411 897.3086 307.7386 898.5836 307.7386C899.147 307.7386 899.5398 305.552 900.4219 305.552C901.3781 305.552 901.1368 307.0657 902.2603 308.0435C902.9751 308.6657 903.2426 308.7519 904.0986 308.7519C905.081 308.7519 905.2398 307.4357 905.937 307.4357C907.0781 307.4357 907.0638 308.9487 907.7753 310.647C908.9022 313.3365 908.8592 313.3836 909.6137 316.2112C910.6975 320.2728 910.158 320.4693 911.452 324.4254C911.9964 326.0896 912.3122 325.978 913.2904 327.4518C914.1505 328.7476 914.4225 329.9645 915.1288 329.9645C916.2609 329.9645 915.8686 325.325 916.9671 325.325C917.7069 325.325 917.6746 326.9594 918.8055 328.1385C919.513 328.8762 919.6639 329.1588 920.6439 329.1588C921.5023 329.1588 921.7504 329.0451 922.4822 329.0451C923.5888 329.0451 923.241 331.1377 924.3206 331.1377C925.0794 331.1377 925.211 330.4639 926.1589 330.4639C927.0494 330.4639 927.2586 330.4639 927.9973 330.5251C929.097 330.6164 928.7764 332.5553 929.8356 332.5553C930.6147 332.5553 930.9168 332.3568 931.674 331.7315C932.7552 330.8386 932.5422 330.5783 933.5123 329.5188C934.3806 328.5705 934.7271 328.8133 935.3507 327.716C936.5655 325.5784 936.4601 325.4433 937.189 323.049C938.2984 319.4051 937.8183 319.2345 939.0274 315.6397C939.6566 313.769 939.8962 313.8505 940.8658 312.118C941.7346 310.5656 941.7004 310.5353 942.7041 309.0697C943.5388 307.8509 943.5446 306.7493 944.5425 306.7493C945.383 306.7493 945.4452 307.6103 946.3808 308.4338C947.2835 309.2284 947.1853 309.5317 948.2192 309.9855C949.0237 310.3386 949.383 309.9855 950.0576 310.3386C951.2213 310.9477 950.8369 312.9939 951.8959 312.9939C952.6753 312.9939 952.9305 311.4871 953.7343 311.4871C954.7689 311.4871 954.703 313.933 955.5726 313.933C956.5414 313.933 956.245 312.1936 957.4109 311.0628C958.0833 310.4107 958.6425 310.3672 959.2493 310.3672C960.4809 310.3672 960.0997 312.1771 961.0876 313.9079C961.938 315.3976 962.0477 315.3336 962.926 316.8082C963.886 318.4197 964.0746 318.3457 964.7644 320.0801C965.9129 322.9677 965.2751 326.0522 966.6027 326.0522C967.1135 326.0522 967.4685 324.5034 968.4411 324.5034C969.3069 324.5034 969.8179 324.6938 970.2795 325.5987C971.6563 328.2981 970.7086 329.6349 972.1178 331.7119C972.547 332.3445 973.1891 332.3445 973.9562 332.3445C975.0274 332.3445 974.8599 331.3309 975.7945 330.3466C976.6983 329.3948 976.61 329.2722 977.6329 328.4722C978.4484 327.8344 978.8155 327.4709 979.4713 327.4709C980.6539 327.4709 980.4714 330.7686 981.3096 330.7686C982.3098 330.7686 981.8424 326.7508 983.1479 326.6555C983.6808 326.6165 984.1945 326.6165 984.9863 326.6165C986.0328 326.6165 985.7932 328.2059 986.8246 328.2059C987.6316 328.2059 987.895 328.2059 988.663 327.721C989.7334 327.0452 989.4674 326.6116 990.5013 325.8128C991.3057 325.1915 991.5934 325.5553 992.3397 324.8807C993.4318 323.8936 993.8215 322.4894 994.1781 322.4894C995.6599 322.4894 994.418 332.2159 996.0164 334.8873C996.2564 335.2884 997.2098 334.8873 997.8548 335.2884C999.0481 336.0304 998.4902 338.2091 999.6932 338.2445C1000.3285 338.2632 1000.9532 338.2445 1001.5315 338.2632C1002.7916 338.3039 1002.2186 340.2293 1003.3699 341.8226C1004.057 342.7736 1004.6362 343.3517 1005.2082 343.3517C1006.4746 343.3517 1005.8911 338.3871 1007.0466 338.3871C1007.7295 338.3871 1008.0793 339.5831 1008.8849 340.919C1009.9176 342.6313 1009.4975 344.4835 1010.7233 344.4835C1011.3358 344.4835 1011.6836 343.6854 1012.5616 343.6854C1013.522 343.6854 1013.413 344.8792 1014.4 344.8792C1015.2514 344.8792 1015.6342 344.4376 1016.2383 344.4376C1017.4726 344.4376 1017.1529 347.8346 1018.0767 347.8346C1018.9913 347.8346 1019.0215 344.4815 1019.915 344.4815C1020.8598 344.4815 1021.1439 348.0823 1021.7534 348.0823C1022.9823 348.0823 1022.1299 340.1408 1023.5918 340.1408C1023.9683 340.1408 1024.5263 341.1544 1025.4302 341.1544C1026.3647 341.1544 1026.4521 340.7009 1027.2684 340.0004C1028.2904 339.1234 1028.2902 339.079 1029.1068 337.9993C1030.1286 336.6483 1029.8966 336.4633 1030.9452 335.139C1031.735 334.1416 1031.762 334.102 1032.7836 333.3559C1033.6004 332.7593 1034.1077 333.271 1034.6219 332.4536C1035.9461 330.349 1035.13 327.5117 1036.4603 327.5117C1036.9683 327.5117 1037.4128 328.333 1038.2986 328.333C1039.2511 328.333 1039.5487 327.1893 1040.137 327.1893C1041.387 327.1893 1040.7024 331.4066 1041.9753 331.4066C1042.5408 331.4066 1043.4898 331.4066 1043.8137 330.5142C1045.3281 326.3426 1044.2208 325.5681 1045.6521 321.1402C1046.0592 319.8809 1047.0379 320.3847 1047.4904 319.1398C1048.8762 315.3265 1048.0468 314.9376 1049.3287 311.0237C1049.8852 309.3247 1050.0878 307.9139 1051.1671 307.9139C1051.9262 307.9139 1052.4666 309.6675 1053.0055 309.6675C1054.305 309.6675 1053.9628 306.7568 1054.8439 303.8231C1055.8012 300.6357 1055.2704 300.1219 1056.6823 297.4253C1057.1087 296.6108 1057.5634 296.6108 1058.5205 296.6108C1059.4017 296.6108 1059.7316 296.8283 1060.3589 296.8283C1061.57 296.8283 1061.0029 294.8369 1062.1973 293.7629C1062.8413 293.1838 1063.1943 293.6265 1064.0356 293.1838C1065.0327 292.6592 1064.8593 292.1257 1065.874 291.8282C1066.6977 291.5868 1067.0113 291.8282 1067.7123 291.5868C1068.8496 291.195 1068.4841 290.2347 1069.5507 289.2061C1070.3224 288.4617 1070.6061 288.0409 1071.389 288.0409C1072.4445 288.0409 1072.1837 290.328 1073.2274 290.328C1074.0221 290.328 1074.5259 289.0583 1075.0658 289.0583C1076.3642 289.0583 1076.1236 291.5397 1076.9041 294.1075C1077.9619 297.5881 1077.2763 301.1551 1078.7424 301.1551C1079.1147 301.1551 1079.9751 300.9541 1080.5808 300.9541C1081.8135 300.9541 1081.6332 302.5332 1082.4192 304.2384C1083.4716 306.5217 1083.4126 308.9311 1084.2576 308.9311C1085.251 308.9311 1084.7191 305.5393 1086.0959 303.2981C1086.5574 302.547 1087.2302 302.547 1087.9342 302.547C1089.0685 302.547 1088.6893 304.0222 1089.7726 305.1659C1090.5277 305.9632 1090.9887 306.4291 1091.611 306.4291C1092.8271 306.4291 1092.1959 302.4763 1093.4493 302.4763C1094.0343 302.4763 1094.6931 303.348 1095.2877 303.348C1096.5314 303.348 1096.0892 301.3619 1097.126 299.5105C1097.9275 298.0793 1098.0863 296.7829 1098.9644 296.7829C1099.9247 296.7829 1099.9585 298.289 1100.8027 299.8755C1101.7969 301.7438 1101.4254 303.6925 1102.6411 303.6925C1103.2638 303.6925 1104.0383 303.4727 1104.4795 302.5399C1105.8766 299.5864 1105.3859 299.2263 1106.3177 295.9199C1107.2242 292.7033 1107.0294 292.6277 1108.1561 289.4939C1108.8678 287.5145 1108.7501 285.6935 1109.9945 285.6935C1110.5885 285.6935 1111.4409 285.6935 1111.8329 286.5183C1113.2792 289.5617 1112.2007 292.6069 1113.6713 293.7217C1114.0391 294.0005 1114.7324 294.0005 1115.5096 294.0005C1116.5707 294.0005 1116.2823 292.2502 1117.3479 292.2502C1118.1206 292.2502 1118.5578 292.2502 1119.1863 292.3408C1120.3962 292.5151 1120.0406 295.3701 1121.0247 295.3701C1121.879 295.3701 1121.7667 292.9034 1122.863 292.9034C1123.6051 292.9034 1124.049 293.8814 1124.7014 293.8814C1125.8874 293.8814 1125.7621 292.2927 1126.5397 290.5722C1127.6004 288.2251 1127.1309 287.9316 1128.3781 285.7462C1128.9693 284.7102 1129.3463 284.9879 1130.2164 284.1295C1131.1847 283.1743 1131.0857 282.1189 1132.0548 282.1189C1132.9241 282.1189 1132.8513 283.2951 1133.8932 283.7292C1134.6896 284.061 1135.1348 284.061 1135.7316 284.061C1136.9731 284.061 1136.736 282.3898 1137.5698 280.6367C1138.5743 278.5248 1138.1608 278.2127 1139.4082 276.3309C1139.9992 275.4394 1140.7621 275.09 1141.2466 275.09C1142.6005 275.09 1141.6672 280.872 1143.085 281.0095C1143.5056 281.0503 1144.0788 281.0095 1144.9233 281.0503C1145.9171 281.0983 1145.8011 282.1916 1146.7616 282.1916C1147.6394 282.1916 1147.7376 281.9334 1148.6 281.4632C1149.576 280.9309 1149.6461 280.1867 1150.4384 280.1867C1151.4845 280.1867 1151.3717 281.3328 1152.2767 282.5008C1153.2101 283.7054 1153.0392 283.8887 1154.1151 284.9319C1154.8775 285.6712 1155.4461 285.1697 1155.9534 286.0658C1157.2844 288.4173 1156.4854 289.0262 1157.7917 291.4271C1158.3238 292.405 1158.6911 292.1531 1159.6301 292.8234C1160.5294 293.4653 1160.8193 293.1975 1161.4685 294.0515C1162.6577 295.6157 1162.3727 295.8634 1163.3069 297.6597C1164.211 299.3982 1163.9394 301.1211 1165.1453 301.1211C1165.7777 301.1211 1166.2392 300.8729 1166.9835 300.2013C1168.0776 299.2141 1168.099 299.1173 1168.8219 297.8035C1169.9374 295.7761 1169.8282 293.5188 1170.6603 293.5188C1171.6666 293.5188 1171.1123 298.8492 1172.4987 298.8492C1172.9507 298.8492 1173.5696 298.8492 1174.337 298.8305C1175.4079 298.8044 1175.5315 297.0409 1176.1753 297.0409C1177.3698 297.0409 1177.2125 301.4319 1178.0137 301.4319C1179.0509 301.4319 1178.4723 295.5494 1179.8521 295.5494C1180.3107 295.5494 1180.9929 296.4533 1181.6904 296.4533C1182.8313 296.4533 1183.0375 295.2291 1183.5288 293.652C1184.8759 289.3276 1183.8353 284.8739 1185.3671 284.6502C1185.6736 284.6054 1186.4861 284.6502 1187.2054 284.6054C1188.3245 284.5358 1188.18 283.5516 1189.0438 282.4133C1190.0184 281.1289 1190.0023 281.1123 1190.8822 279.76C1191.8407 278.287 1191.9553 276.7627 1192.7206 276.7627C1193.7937 276.7627 1193.4605 281.3374 1194.559 281.3374C1195.2988 281.3374 1195.5204 279.9812 1196.3972 278.5722C1197.3587 277.0272 1197.2722 276.9732 1198.2356 275.4296C1199.1106 274.0276 1199.2046 274.0862 1200.074 272.681C1201.0429 271.1148 1200.8629 269.4868 1201.9124 269.4868C1202.7012 269.4868 1203.1609 271.5593 1203.7507 271.5593C1204.9992 271.5593 1204.3479 265.9914 1205.589 265.9914C1206.1862 265.9914 1206.4703 268.1317 1207.4274 268.1317C1208.3087 268.1317 1208.5706 266.2957 1209.2657 266.2957C1210.409 266.2957 1209.9952 270.1532 1211.1041 270.1532C1211.8336 270.1532 1212.4142 269.2985 1212.9425 268.0269C1214.2526 264.8733 1213.7843 264.6416 1214.7808 261.3029C1215.6227 258.4819 1215.3674 255.7074 1216.6191 255.7074C1217.2058 255.7074 1217.3554 257.553 1218.4575 257.7665C1219.1937 257.9092 1219.8365 257.9092 1220.2959 257.9092C1221.6749 257.9092 1220.8302 255.011 1222.1343 252.6881C1222.6686 251.7363 1223.1483 252.1282 1223.9727 251.3599C1224.9867 250.4148 1225.2257 250.5001 1225.8109 249.2613C1227.064 246.6088 1226.8902 246.4629 1227.6493 243.5774C1228.7286 239.4749 1228.4056 239.3869 1229.4877 235.2853C1230.2439 232.4189 1230.3374 232.4386 1231.326 229.6413C1232.1758 227.2371 1232.2011 227.2438 1233.1644 224.8823C1234.0395 222.7372 1233.7414 222.4499 1235.0027 220.6281C1235.5797 219.7946 1236.1223 220.3146 1236.8411 219.5717C1237.9607 218.4145 1238.1703 216.8279 1238.6794 216.8279C1240.0087 216.8279 1239.2286 221.1832 1240.5178 225.2518C1241.067 226.9848 1241.5269 226.7954 1242.3562 228.4312C1243.3653 230.4215 1243.4416 232.5041 1244.1946 232.5041C1245.28 232.5041 1244.8681 229.3127 1246.0328 226.3305C1246.7064 224.6057 1246.761 224.5546 1247.8712 223.0902C1248.5994 222.1298 1248.8095 221.4808 1249.7096 221.4808C1250.6478 221.4808 1250.774 223.2434 1251.548 223.2434C1252.6124 223.2434 1252.5296 220.2618 1253.3864 220.2618C1254.3679 220.2618 1254.1209 222.1767 1255.2246 223.8294C1255.9592 224.9293 1256.377 224.6418 1257.063 225.767C1258.2154 227.6573 1258.2639 227.7201 1258.9014 229.8603C1260.1023 233.8923 1259.2746 238.1115 1260.7397 238.1115C1261.1129 238.1115 1261.8416 237.745 1262.5781 236.9905C1263.6799 235.8619 1263.6706 235.7636 1264.4164 234.3454C1265.5089 232.2679 1265.5907 232.2543 1266.2548 229.9992C1267.429 226.0115 1267.1766 225.93 1268.0931 221.8597C1269.0149 217.7663 1268.5785 217.562 1269.9315 213.6716C1270.4168 212.2762 1270.8062 211.2881 1271.7699 211.2881C1272.6446 211.2881 1272.7623 212.24 1273.6083 213.309C1274.6006 214.563 1274.3404 214.8258 1275.4465 215.934C1276.1787 216.6676 1276.3402 216.5138 1277.2849 216.9925C1278.1786 217.4453 1278.651 217.797 1279.1233 217.797C1280.4894 217.797 1279.5714 213.3637 1280.9617 212.292C1281.4098 211.9466 1282.2364 211.9466 1282.8 211.9466C1284.0747 211.9466 1283.573 215.7559 1284.6383 215.7559C1285.4113 215.7559 1285.4355 213.2982 1286.4767 213.2982C1287.2739 213.2982 1287.6309 214.7623 1288.3151 214.7623C1289.4693 214.7623 1288.9162 212.4332 1290.1534 211.2495C1290.7546 210.6744 1291.4811 210.6744 1291.9918 210.6744C1293.3195 210.6744 1292.4941 215.3325 1293.8301 215.3325C1294.3325 215.3325 1295.2771 214.9245 1295.6685 214.9245C1297.1154 214.9245 1296.249 221.6391 1297.5068 221.6391C1298.0873 221.6391 1298.2268 219.0043 1299.3452 219.0043C1300.0652 219.0043 1300.2156 219.6403 1301.1836 219.9519C1302.054 220.232 1302.3386 220.232 1303.022 220.232C1304.1769 220.232 1304.3967 219.1564 1304.8602 217.683C1306.235 213.3128 1305.3903 208.5447 1306.6986 208.5447C1307.2287 208.5447 1307.4654 211.8436 1308.537 211.8436C1309.3038 211.8436 1309.6394 210.9811 1310.3754 209.8626C1311.4777 208.1875 1311.5969 208.1704 1312.2137 206.2564C1313.4352 202.4662 1313.2627 202.382 1314.052 198.4542C1315.101 193.2337 1314.7371 187.9599 1315.8904 187.9599C1316.5755 187.9599 1316.3243 191.8568 1317.7288 194.0166C1318.1627 194.684 1318.9572 194.684 1319.5671 194.684C1320.7955 194.684 1320.1542 191.5967 1321.4055 191.2008C1321.9926 191.0151 1322.3225 191.0617 1323.2439 191.0151C1324.1608 190.9688 1324.2041 191.0151 1325.0822 190.9688C1326.0424 190.9181 1326.3453 190.9095 1326.9205 190.1539C1328.1836 188.4949 1327.8878 188.1675 1328.7589 186.1396C1329.7262 183.888 1329.2762 183.0043 1330.5973 181.595C1331.1145 181.0432 1332.0754 181.0432 1332.4357 181.0432C1333.9138 181.0432 1332.8397 188.7011 1334.2739 188.7011C1334.678 188.7011 1335.3151 187.459 1336.1123 187.459C1337.1535 187.459 1337.3195 189.6987 1337.9507 189.6987C1339.1579 189.6987 1338.9042 184.4704 1339.7891 184.4704C1340.7426 184.4704 1340.316 190.1522 1341.6274 190.1522C1342.1543 190.1522 1343.0391 189.6855 1343.4657 188.6104C1344.8774 185.0525 1344.1411 180.8862 1345.3041 180.8862C1345.9795 180.8862 1345.9039 185.1155 1347.1425 185.1155C1347.7423 185.1155 1348.4956 184.8002 1348.9808 183.8476C1350.334 181.1911 1349.4085 179.3125 1350.8192 177.8974C1351.2468 177.4684 1351.7438 177.704 1352.6576 177.4684C1353.5822 177.2301 1353.8738 177.4684 1354.4958 176.9496C1355.7121 175.9351 1355.6312 173.6985 1356.3342 173.6985C1357.4695 173.6985 1356.8222 176.903 1358.1726 179.4426C1358.6606 180.3603 1359.1394 179.9636 1360.011 180.6133C1360.9777 181.3338 1360.829 182.1829 1361.8494 182.1829C1362.6673 182.1829 1363.124 182.1829 1363.6876 181.5703C1364.9623 180.1848 1364.6998 177.5928 1365.526 177.5928C1366.5382 177.5928 1366.6664 182.6363 1367.3644 182.6363C1368.5048 182.6363 1368.2432 174.0605 1369.2028 174.0605C1370.0816 174.0605 1369.5788 178.3956 1371.0411 181.8806C1371.4172 182.7767 1372.1963 182.8228 1372.8794 182.8228C1374.0346 182.8228 1373.7492 179.8526 1374.7178 179.8526C1375.5876 179.8526 1375.869 180.9993 1376.5562 182.3945C1377.7074 184.7323 1377.2409 184.9827 1378.3945 187.3186C1379.0793 188.7051 1379.107 188.8471 1380.2329 189.8394C1380.9454 190.4672 1381.1766 190.1458 1382.0713 190.5588C1383.0149 190.9945 1382.9805 191.5368 1383.9095 191.5368C1384.8188 191.5368 1385.2779 191.4909 1385.7479 190.6573C1387.1163 188.2302 1386.3543 187.6663 1387.5863 185.0154C1388.1927 183.7106 1388.5369 182.7458 1389.4247 182.7458C1390.3753 182.7458 1390.5137 183.9129 1391.2631 185.2756C1392.3521 187.2561 1391.7975 188.6942 1393.1013 189.4321C1393.6358 189.7346 1394.4334 189.4321 1394.9397 189.7346C1396.2717 190.5304 1395.9697 194.2781 1396.7781 194.2781C1397.8081 194.2781 1397.3392 188.3096 1398.6165 188.3096C1399.1776 188.3096 1399.3915 190.3464 1400.4548 190.3464C1401.2298 190.3464 1401.4731 189.559 1402.2931 189.559C1403.3114 189.559 1403.7063 191.2288 1404.1315 191.2288C1405.5447 191.2288 1405.1621 187.2272 1405.9698 183.1803C1407.0004 178.0172 1406.2435 173.4964 1407.8082 172.8089C1408.0819 172.6887 1409.1809 172.6887 1409.6466 172.6887C1411.0193 172.6887 1410.1443 177.7982 1411.485 177.7982C1411.9826 177.7982 1412.6806 176.9716 1413.3232 176.9716C1414.5189 176.9716 1414.6663 180.2401 1415.1616 180.2401C1416.5047 180.2401 1417 170.2385 1417 170.2385" fill="none" stroke="url(#zr4-g1)" stroke-width="3" stroke-linejoin="bevel"></path>
</g>
<defs >
<clipPath id="zr4-c0">
<path d="M74 39.5l1343 0l0 563l-1343 0Z" fill="#000"></path>
</clipPath>
<linearGradient gradientUnits="objectBoundingBox" x1="0" y1="0" x2="0" y2="0.65" id="zr4-g0">
<stop offset="0%" stop-color="#F4511E99"></stop>
<stop offset="25%" stop-color="#FB8C0099"></stop>
<stop offset="50%" stop-color="#FFB30099"></stop>
<stop offset="75%" stop-color="#FDD83599"></stop>
<stop offset="100%" stop-color="#7CB34299"></stop>
</linearGradient>
<clipPath id="zr4-c1">
<path d="M73 38.5l1345 0l0 565l-1345 0Z" fill="#000"></path>
</clipPath>
<clipPath id="zr4-c2">
<path d="M73 38.5l1345 0l0 565l-1345 0Z" fill="#000"></path>
</clipPath>
<linearGradient gradientUnits="objectBoundingBox" x1="0" y1="0" x2="0" y2="0.65" id="zr4-g1">
<stop offset="0%" stop-color="#F4511E"></stop>
<stop offset="25%" stop-color="#FB8C00"></stop>
<stop offset="50%" stop-color="#FFB300"></stop>
<stop offset="75%" stop-color="#FDD835"></stop>
<stop offset="100%" stop-color="#7CB342"></stop>
</linearGradient>
</defs>
</svg>