<svg width="2311" height="991" xmlns="http://www.w3.org/2000/svg" xmlns:xlink="http://www.w3.org/1999/xlink" xml:space="preserve" overflow="hidden"><defs><clipPath id="clip0"><rect x="1314" y="210" width="2311" height="991"/></clipPath><clipPath id="clip1"><rect x="1582" y="402" width="2018" height="612"/></clipPath></defs><g clip-path="url(#clip0)" transform="translate(-1314 -210)"><rect x="1314.5" y="210.5" width="2310" height="990" fill="#2E3440"/><rect x="1314.5" y="210.5" width="2310" height="990" stroke="#D9D9D9" stroke-width="3.4375" stroke-miterlimit="2" fill="none"/><g clip-path="url(#clip1)"><path d="M1587.5 941.5 3594.5 941.5" stroke="#D9D9D9" stroke-width="3.4375" stroke-miterlimit="2" fill="none"/><path d="M1587.5 874.5 3594.5 874.5" stroke="#D9D9D9" stroke-width="3.4375" stroke-miterlimit="2" fill="none"/><path d="M1587.5 807.5 3594.5 807.5" stroke="#D9D9D9" stroke-width="3.4375" stroke-miterlimit="2" fill="none"/><path d="M1587.5 741.5 3594.5 741.5" stroke="#D9D9D9" stroke-width="3.4375" stroke-miterlimit="2" fill="none"/><path d="M1587.5 674.5 3594.5 674.5" stroke="#D9D9D9" stroke-width="3.4375" stroke-miterlimit="2" fill="none"/><path d="M1587.5 607.5 3594.5 607.5" stroke="#D9D9D9" stroke-width="3.4375" stroke-miterlimit="2" fill="none"/><path d="M1587.5 540.5 3594.5 540.5" stroke="#D9D9D9" stroke-width="3.4375" stroke-miterlimit="2" fill="none"/><path d="M1587.5 474.5 3594.5 474.5" stroke="#D9D9D9" stroke-width="3.4375" stroke-miterlimit="2" fill="none"/><path d="M1587.5 407.5 3594.5 407.5" stroke="#D9D9D9" stroke-width="3.4375" stroke-miterlimit="2" fill="none"/><path d="M1757.5 955.5 1817.5 955.5" stroke="#D8DEE9" stroke-width="3.4375" stroke-miterlimit="2" fill="none"/><path d="M1787.5 885.5 1787.5 955.5" stroke="#D8DEE9" stroke-width="3.4375" stroke-miterlimit="2" fill="none"/><path d="M1757.5 614.5 1817.5 614.5" stroke="#D8DEE9" stroke-width="3.4375" stroke-miterlimit="2" fill="none"/><path d="M1787.5 614.5 1787.5 776.5" stroke="#D8DEE9" stroke-width="3.4375" stroke-miterlimit="2" fill="none"/><rect x="1686.5" y="776.5" width="201" height="109" fill="#88C0D0"/><rect x="1686.5" y="776.5" width="201" height="109" stroke="#D8DEE9" stroke-width="3.4375" stroke-miterlimit="2" fill="none"/><path d="M1686.5 776.5 1887.5 776.5" stroke="#D8DEE9" stroke-width="3.4375" stroke-miterlimit="2" fill="none"/><path d="M1686.5 885.5 1887.5 885.5" stroke="#D8DEE9" stroke-width="3.4375" stroke-miterlimit="2" fill="none"/><path d="M1686.5 834.5 1887.5 834.5" stroke="#D8DEE9" stroke-width="3.4375" stroke-miterlimit="2" fill="none"/><circle cx="1787.5" cy="578.5" r="7" fill="#88C0D0"/><circle cx="1787.5" cy="578.5" r="7" stroke="#D8DEE9" stroke-width="3.4375" stroke-miterlimit="2" fill="none"/><circle cx="1787.5" cy="558.5" r="7" fill="#88C0D0"/><circle cx="1787.5" cy="558.5" r="7" stroke="#D8DEE9" stroke-width="3.4375" stroke-miterlimit="2" fill="none"/><ellipse cx="1787.5" cy="541" rx="7" ry="6.5" fill="#88C0D0"/><ellipse cx="1787.5" cy="541" rx="7" ry="6.5" stroke="#D8DEE9" stroke-width="3.4375" stroke-miterlimit="2" fill="none"/><circle cx="1787.5" cy="508.5" r="7" fill="#88C0D0"/><circle cx="1787.5" cy="508.5" r="7" stroke="#D8DEE9" stroke-width="3.4375" stroke-miterlimit="2" fill="none"/><circle cx="1787.5" cy="486.5" r="7" fill="#88C0D0"/><circle cx="1787.5" cy="486.5" r="7" stroke="#D8DEE9" stroke-width="3.4375" stroke-miterlimit="2" fill="none"/><ellipse cx="1787.5" cy="444" rx="7" ry="6.5" fill="#88C0D0"/><ellipse cx="1787.5" cy="444" rx="7" ry="6.5" stroke="#D8DEE9" stroke-width="3.4375" stroke-miterlimit="2" fill="none"/><circle cx="1787.5" cy="390.5" r="7" fill="#88C0D0"/><circle cx="1787.5" cy="390.5" r="7" stroke="#D8DEE9" stroke-width="3.4375" stroke-miterlimit="2" fill="none"/><circle cx="1787.5" cy="373.5" r="7" fill="#88C0D0"/><circle cx="1787.5" cy="373.5" r="7" stroke="#D8DEE9" stroke-width="3.4375" stroke-miterlimit="2" fill="none"/><circle cx="1787.5" cy="340.5" r="7" fill="#88C0D0"/><circle cx="1787.5" cy="340.5" r="7" stroke="#D8DEE9" stroke-width="3.4375" stroke-miterlimit="2" fill="none"/><ellipse cx="1787.5" cy="264" rx="7" ry="6.5" fill="#88C0D0"/><ellipse cx="1787.5" cy="264" rx="7" ry="6.5" stroke="#D8DEE9" stroke-width="3.4375" stroke-miterlimit="2" fill="none"/><circle cx="1787.5" cy="12.5" r="7" fill="#88C0D0"/><circle cx="1787.5" cy="12.5" r="7" stroke="#D8DEE9" stroke-width="3.4375" stroke-miterlimit="2" fill="none"/><circle cx="1787.5" cy="-77.5" r="7" fill="#88C0D0"/><circle cx="1787.5" cy="-77.5" r="7" stroke="#D8DEE9" stroke-width="3.4375" stroke-miterlimit="2" fill="none"/><circle cx="1787.5" cy="-145.5" r="7" fill="#88C0D0"/><circle cx="1787.5" cy="-145.5" r="7" stroke="#D8DEE9" stroke-width="3.4375" stroke-miterlimit="2" fill="none"/><circle cx="1787.5" cy="-1617.5" r="7" fill="#88C0D0"/><circle cx="1787.5" cy="-1617.5" r="7" stroke="#D8DEE9" stroke-width="3.4375" stroke-miterlimit="2" fill="none"/><circle cx="1787.5" cy="-1696.5" r="7" fill="#88C0D0"/><circle cx="1787.5" cy="-1696.5" r="7" stroke="#D8DEE9" stroke-width="3.4375" stroke-miterlimit="2" fill="none"/><circle cx="1787.5" cy="-1852.5" r="7" fill="#88C0D0"/><circle cx="1787.5" cy="-1852.5" r="7" stroke="#D8DEE9" stroke-width="3.4375" stroke-miterlimit="2" fill="none"/><circle cx="1787.5" cy="-2477.5" r="7" fill="#88C0D0"/><circle cx="1787.5" cy="-2477.5" r="7" stroke="#D8DEE9" stroke-width="3.4375" stroke-miterlimit="2" fill="none"/><path d="M1773.5 745.5 1801.5 717.5" stroke="#D8DEE9" stroke-width="3.4375" stroke-miterlimit="2" fill="none"/><path d="M1773.5 717.5 1801.5 745.5" stroke="#D8DEE9" stroke-width="3.4375" stroke-miterlimit="2" fill="none"/><path d="M2158.5 959.5 2218.5 959.5" stroke="#D8DEE9" stroke-width="3.4375" stroke-miterlimit="2" fill="none"/><path d="M2188.5 886.5 2188.5 959.5" stroke="#D8DEE9" stroke-width="3.4375" stroke-miterlimit="2" fill="none"/><path d="M2158.5 599.5 2218.5 599.5" stroke="#D8DEE9" stroke-width="3.4375" stroke-miterlimit="2" fill="none"/><path d="M2188.5 599.5 2188.5 767.5" stroke="#D8DEE9" stroke-width="3.4375" stroke-miterlimit="2" fill="none"/><rect x="2088.5" y="767.5" width="201" height="119" fill="#88C0D0"/><rect x="2088.5" y="767.5" width="201" height="119" stroke="#D8DEE9" stroke-width="3.4375" stroke-miterlimit="2" fill="none"/><path d="M2088.5 767.5 2289.5 767.5" stroke="#D8DEE9" stroke-width="3.4375" stroke-miterlimit="2" fill="none"/><path d="M2088.5 886.5 2289.5 886.5" stroke="#D8DEE9" stroke-width="3.4375" stroke-miterlimit="2" fill="none"/><path d="M2088.5 859.5 2289.5 859.5" stroke="#D8DEE9" stroke-width="3.4375" stroke-miterlimit="2" fill="none"/><circle cx="2188.5" cy="577.5" r="7" fill="#88C0D0"/><circle cx="2188.5" cy="577.5" r="7" stroke="#D8DEE9" stroke-width="3.4375" stroke-miterlimit="2" fill="none"/><circle cx="2188.5" cy="562.5" r="7" fill="#88C0D0"/><circle cx="2188.5" cy="562.5" r="7" stroke="#D8DEE9" stroke-width="3.4375" stroke-miterlimit="2" fill="none"/><circle cx="2188.5" cy="548.5" r="7" fill="#88C0D0"/><circle cx="2188.5" cy="548.5" r="7" stroke="#D8DEE9" stroke-width="3.4375" stroke-miterlimit="2" fill="none"/><circle cx="2188.5" cy="534.5" r="7" fill="#88C0D0"/><circle cx="2188.5" cy="534.5" r="7" stroke="#D8DEE9" stroke-width="3.4375" stroke-miterlimit="2" fill="none"/><circle cx="2188.5" cy="504.5" r="7" fill="#88C0D0"/><circle cx="2188.5" cy="504.5" r="7" stroke="#D8DEE9" stroke-width="3.4375" stroke-miterlimit="2" fill="none"/><circle cx="2188.5" cy="477.5" r="7" fill="#88C0D0"/><circle cx="2188.5" cy="477.5" r="7" stroke="#D8DEE9" stroke-width="3.4375" stroke-miterlimit="2" fill="none"/><circle cx="2188.5" cy="409.5" r="7" fill="#88C0D0"/><circle cx="2188.5" cy="409.5" r="7" stroke="#D8DEE9" stroke-width="3.4375" stroke-miterlimit="2" fill="none"/><circle cx="2188.5" cy="352.5" r="7" fill="#88C0D0"/><circle cx="2188.5" cy="352.5" r="7" stroke="#D8DEE9" stroke-width="3.4375" stroke-miterlimit="2" fill="none"/><circle cx="2188.5" cy="328.5" r="7" fill="#88C0D0"/><circle cx="2188.5" cy="328.5" r="7" stroke="#D8DEE9" stroke-width="3.4375" stroke-miterlimit="2" fill="none"/><circle cx="2188.5" cy="267.5" r="7" fill="#88C0D0"/><circle cx="2188.5" cy="267.5" r="7" stroke="#D8DEE9" stroke-width="3.4375" stroke-miterlimit="2" fill="none"/><circle cx="2188.5" cy="121.5" r="7" fill="#88C0D0"/><circle cx="2188.5" cy="121.5" r="7" stroke="#D8DEE9" stroke-width="3.4375" stroke-miterlimit="2" fill="none"/><circle cx="2188.5" cy="58.5" r="7" fill="#88C0D0"/><circle cx="2188.5" cy="58.5" r="7" stroke="#D8DEE9" stroke-width="3.4375" stroke-miterlimit="2" fill="none"/><circle cx="2188.5" cy="12.5" r="7" fill="#88C0D0"/><circle cx="2188.5" cy="12.5" r="7" stroke="#D8DEE9" stroke-width="3.4375" stroke-miterlimit="2" fill="none"/><circle cx="2188.5" cy="-35.5" r="7" fill="#88C0D0"/><circle cx="2188.5" cy="-35.5" r="7" stroke="#D8DEE9" stroke-width="3.4375" stroke-miterlimit="2" fill="none"/><ellipse cx="2188.5" cy="-176" rx="7" ry="6.5" fill="#88C0D0"/><ellipse cx="2188.5" cy="-176" rx="7" ry="6.5" stroke="#D8DEE9" stroke-width="3.4375" stroke-miterlimit="2" fill="none"/><circle cx="2188.5" cy="-312.5" r="7" fill="#88C0D0"/><circle cx="2188.5" cy="-312.5" r="7" stroke="#D8DEE9" stroke-width="3.4375" stroke-miterlimit="2" fill="none"/><ellipse cx="2188.5" cy="-339" rx="7" ry="6.5" fill="#88C0D0"/><ellipse cx="2188.5" cy="-339" rx="7" ry="6.5" stroke="#D8DEE9" stroke-width="3.4375" stroke-miterlimit="2" fill="none"/><circle cx="2188.5" cy="-507.5" r="7" fill="#88C0D0"/><circle cx="2188.5" cy="-507.5" r="7" stroke="#D8DEE9" stroke-width="3.4375" stroke-miterlimit="2" fill="none"/><circle cx="2188.5" cy="-562.5" r="7" fill="#88C0D0"/><circle cx="2188.5" cy="-562.5" r="7" stroke="#D8DEE9" stroke-width="3.4375" stroke-miterlimit="2" fill="none"/><ellipse cx="2188.5" cy="-717" rx="7" ry="6.5" fill="#88C0D0"/><ellipse cx="2188.5" cy="-717" rx="7" ry="6.5" stroke="#D8DEE9" stroke-width="3.4375" stroke-miterlimit="2" fill="none"/><circle cx="2188.5" cy="-850.5" r="7" fill="#88C0D0"/><circle cx="2188.5" cy="-850.5" r="7" stroke="#D8DEE9" stroke-width="3.4375" stroke-miterlimit="2" fill="none"/><ellipse cx="2188.5" cy="-955" rx="7" ry="6.5" fill="#88C0D0"/><ellipse cx="2188.5" cy="-955" rx="7" ry="6.5" stroke="#D8DEE9" stroke-width="3.4375" stroke-miterlimit="2" fill="none"/><circle cx="2188.5" cy="-1131.5" r="7" fill="#88C0D0"/><circle cx="2188.5" cy="-1131.5" r="7" stroke="#D8DEE9" stroke-width="3.4375" stroke-miterlimit="2" fill="none"/><circle cx="2188.5" cy="-2020.5" r="7" fill="#88C0D0"/><circle cx="2188.5" cy="-2020.5" r="7" stroke="#D8DEE9" stroke-width="3.4375" stroke-miterlimit="2" fill="none"/><ellipse cx="2188.5" cy="-2255" rx="7" ry="6.5" fill="#88C0D0"/><ellipse cx="2188.5" cy="-2255" rx="7" ry="6.5" stroke="#D8DEE9" stroke-width="3.4375" stroke-miterlimit="2" fill="none"/><ellipse cx="2188.5" cy="-2287" rx="7" ry="6.5" fill="#88C0D0"/><ellipse cx="2188.5" cy="-2287" rx="7" ry="6.5" stroke="#D8DEE9" stroke-width="3.4375" stroke-miterlimit="2" fill="none"/><circle cx="2188.5" cy="-2463.5" r="7" fill="#88C0D0"/><circle cx="2188.5" cy="-2463.5" r="7" stroke="#D8DEE9" stroke-width="3.4375" stroke-miterlimit="2" fill="none"/><circle cx="2188.5" cy="-4244.5" r="7" fill="#88C0D0"/><circle cx="2188.5" cy="-4244.5" r="7" stroke="#D8DEE9" stroke-width="3.4375" stroke-miterlimit="2" fill="none"/><circle cx="2188.5" cy="-11728.5" r="7" fill="#88C0D0"/><circle cx="2188.5" cy="-11728.5" r="7" stroke="#D8DEE9" stroke-width="3.4375" stroke-miterlimit="2" fill="none"/><circle cx="2188.5" cy="-84468.5" r="7" fill="#88C0D0"/><circle cx="2188.5" cy="-84468.5" r="7" stroke="#D8DEE9" stroke-width="3.4375" stroke-miterlimit="2" fill="none"/><path d="M2175.5 250.5 2202.5 222.5" stroke="#D8DEE9" stroke-width="3.4375" stroke-miterlimit="2" fill="none"/><path d="M2175.5 222.5 2202.5 250.5" stroke="#D8DEE9" stroke-width="3.4375" stroke-miterlimit="2" fill="none"/><path d="M2560.5 984.5 2620.5 984.5" stroke="#D8DEE9" stroke-width="3.4375" stroke-miterlimit="2" fill="none"/><path d="M2590.5 901.5 2590.5 984.5" stroke="#D8DEE9" stroke-width="3.4375" stroke-miterlimit="2" fill="none"/><path d="M2560.5 477.5 2620.5 477.5" stroke="#D8DEE9" stroke-width="3.4375" stroke-miterlimit="2" fill="none"/><path d="M2590.5 477.5 2590.5 711.5" stroke="#D8DEE9" stroke-width="3.4375" stroke-miterlimit="2" fill="none"/><rect x="2489.5" y="711.5" width="201" height="190" fill="#88C0D0"/><rect x="2489.5" y="711.5" width="201" height="190" stroke="#D8DEE9" stroke-width="3.4375" stroke-miterlimit="2" fill="none"/><path d="M2489.5 711.5 2690.5 711.5" stroke="#D8DEE9" stroke-width="3.4375" stroke-miterlimit="2" fill="none"/><path d="M2489.5 901.5 2690.5 901.5" stroke="#D8DEE9" stroke-width="3.4375" stroke-miterlimit="2" fill="none"/><path d="M2489.5 861.5 2690.5 861.5" stroke="#D8DEE9" stroke-width="3.4375" stroke-miterlimit="2" fill="none"/><circle cx="2590.5" cy="420.5" r="7" fill="#88C0D0"/><circle cx="2590.5" cy="420.5" r="7" stroke="#D8DEE9" stroke-width="3.4375" stroke-miterlimit="2" fill="none"/><circle cx="2590.5" cy="396.5" r="7" fill="#88C0D0"/><circle cx="2590.5" cy="396.5" r="7" stroke="#D8DEE9" stroke-width="3.4375" stroke-miterlimit="2" fill="none"/><ellipse cx="2590.5" cy="378" rx="7" ry="6.5" fill="#88C0D0"/><ellipse cx="2590.5" cy="378" rx="7" ry="6.5" stroke="#D8DEE9" stroke-width="3.4375" stroke-miterlimit="2" fill="none"/><circle cx="2590.5" cy="336.5" r="7" fill="#88C0D0"/><circle cx="2590.5" cy="336.5" r="7" stroke="#D8DEE9" stroke-width="3.4375" stroke-miterlimit="2" fill="none"/><circle cx="2590.5" cy="310.5" r="7" fill="#88C0D0"/><circle cx="2590.5" cy="310.5" r="7" stroke="#D8DEE9" stroke-width="3.4375" stroke-miterlimit="2" fill="none"/><circle cx="2590.5" cy="280.5" r="7" fill="#88C0D0"/><circle cx="2590.5" cy="280.5" r="7" stroke="#D8DEE9" stroke-width="3.4375" stroke-miterlimit="2" fill="none"/><circle cx="2590.5" cy="170.5" r="7" fill="#88C0D0"/><circle cx="2590.5" cy="170.5" r="7" stroke="#D8DEE9" stroke-width="3.4375" stroke-miterlimit="2" fill="none"/><ellipse cx="2590.5" cy="131" rx="7" ry="6.5" fill="#88C0D0"/><ellipse cx="2590.5" cy="131" rx="7" ry="6.5" stroke="#D8DEE9" stroke-width="3.4375" stroke-miterlimit="2" fill="none"/><circle cx="2590.5" cy="20.5" r="7" fill="#88C0D0"/><circle cx="2590.5" cy="20.5" r="7" stroke="#D8DEE9" stroke-width="3.4375" stroke-miterlimit="2" fill="none"/><ellipse cx="2590.5" cy="-37" rx="7" ry="6.5" fill="#88C0D0"/><ellipse cx="2590.5" cy="-37" rx="7" ry="6.5" stroke="#D8DEE9" stroke-width="3.4375" stroke-miterlimit="2" fill="none"/><circle cx="2590.5" cy="-111.5" r="7" fill="#88C0D0"/><circle cx="2590.5" cy="-111.5" r="7" stroke="#D8DEE9" stroke-width="3.4375" stroke-miterlimit="2" fill="none"/><circle cx="2590.5" cy="-145.5" r="7" fill="#88C0D0"/><circle cx="2590.5" cy="-145.5" r="7" stroke="#D8DEE9" stroke-width="3.4375" stroke-miterlimit="2" fill="none"/><circle cx="2590.5" cy="-524.5" r="7" fill="#88C0D0"/><circle cx="2590.5" cy="-524.5" r="7" stroke="#D8DEE9" stroke-width="3.4375" stroke-miterlimit="2" fill="none"/><circle cx="2590.5" cy="-582.5" r="7" fill="#88C0D0"/><circle cx="2590.5" cy="-582.5" r="7" stroke="#D8DEE9" stroke-width="3.4375" stroke-miterlimit="2" fill="none"/><circle cx="2590.5" cy="-1066.5" r="7" fill="#88C0D0"/><circle cx="2590.5" cy="-1066.5" r="7" stroke="#D8DEE9" stroke-width="3.4375" stroke-miterlimit="2" fill="none"/><circle cx="2590.5" cy="-2345.5" r="7" fill="#88C0D0"/><circle cx="2590.5" cy="-2345.5" r="7" stroke="#D8DEE9" stroke-width="3.4375" stroke-miterlimit="2" fill="none"/><circle cx="2590.5" cy="-5669.5" r="7" fill="#88C0D0"/><circle cx="2590.5" cy="-5669.5" r="7" stroke="#D8DEE9" stroke-width="3.4375" stroke-miterlimit="2" fill="none"/><path d="M2576.5-8.5 2604.5-35.5" stroke="#D8DEE9" stroke-width="3.4375" stroke-miterlimit="2" fill="none"/><path d="M2576.5-35.5 2604.5-8.5" stroke="#D8DEE9" stroke-width="3.4375" stroke-miterlimit="2" fill="none"/><path d="M2961.5 894.5 3021.5 894.5" stroke="#D8DEE9" stroke-width="3.4375" stroke-miterlimit="2" fill="none"/><path d="M2991.5 852.5 2991.5 894.5" stroke="#D8DEE9" stroke-width="3.4375" stroke-miterlimit="2" fill="none"/><path d="M2961.5-8640.5 3021.5-8640.5" stroke="#D8DEE9" stroke-width="3.4375" stroke-miterlimit="2" fill="none"/><path d="M2991.5-8640.5 2991.5-4214.5" stroke="#D8DEE9" stroke-width="3.4375" stroke-miterlimit="2" fill="none"/><rect x="2891.5" y="-4214.5" width="201" height="5067" fill="#88C0D0"/><rect x="2891.5" y="-4214.5" width="201" height="5067" stroke="#D8DEE9" stroke-width="3.4375" stroke-miterlimit="2" fill="none"/><path d="M2891.5-4214.5 3092.5-4214.5" stroke="#D8DEE9" stroke-width="3.4375" stroke-miterlimit="2" fill="none"/><path d="M2891.5 852.5 3092.5 852.5" stroke="#D8DEE9" stroke-width="3.4375" stroke-miterlimit="2" fill="none"/><path d="M2891.5 689.5 3092.5 689.5" stroke="#D8DEE9" stroke-width="3.4375" stroke-miterlimit="2" fill="none"/><path d="M2978.5-1193.5 3005.5-1220.5" stroke="#D8DEE9" stroke-width="3.4375" stroke-miterlimit="2" fill="none"/><path d="M2978.5-1220.5 3005.5-1193.5" stroke="#D8DEE9" stroke-width="3.4375" stroke-miterlimit="2" fill="none"/><path d="M3363.5 962.5 3423.5 962.5" stroke="#D8DEE9" stroke-width="3.4375" stroke-miterlimit="2" fill="none"/><path d="M3393.5 895.5 3393.5 962.5" stroke="#D8DEE9" stroke-width="3.4375" stroke-miterlimit="2" fill="none"/><path d="M3363.5 540.5 3423.5 540.5" stroke="#D8DEE9" stroke-width="3.4375" stroke-miterlimit="2" fill="none"/><path d="M3393.5 540.5 3393.5 703.5" stroke="#D8DEE9" stroke-width="3.4375" stroke-miterlimit="2" fill="none"/><rect x="3292.5" y="703.5" width="201" height="192" fill="#88C0D0"/><rect x="3292.5" y="703.5" width="201" height="192" stroke="#D8DEE9" stroke-width="3.4375" stroke-miterlimit="2" fill="none"/><path d="M3292.5 703.5 3493.5 703.5" stroke="#D8DEE9" stroke-width="3.4375" stroke-miterlimit="2" fill="none"/><path d="M3292.5 895.5 3493.5 895.5" stroke="#D8DEE9" stroke-width="3.4375" stroke-miterlimit="2" fill="none"/><path d="M3292.5 797.5 3493.5 797.5" stroke="#D8DEE9" stroke-width="3.4375" stroke-miterlimit="2" fill="none"/><circle cx="3393.5" cy="383.5" r="7" fill="#88C0D0"/><circle cx="3393.5" cy="383.5" r="7" stroke="#D8DEE9" stroke-width="3.4375" stroke-miterlimit="2" fill="none"/><circle cx="3393.5" cy="293.5" r="7" fill="#88C0D0"/><circle cx="3393.5" cy="293.5" r="7" stroke="#D8DEE9" stroke-width="3.4375" stroke-miterlimit="2" fill="none"/><circle cx="3393.5" cy="-94.5" r="7" fill="#88C0D0"/><circle cx="3393.5" cy="-94.5" r="7" stroke="#D8DEE9" stroke-width="3.4375" stroke-miterlimit="2" fill="none"/><circle cx="3393.5" cy="-2849.5" r="7" fill="#88C0D0"/><circle cx="3393.5" cy="-2849.5" r="7" stroke="#D8DEE9" stroke-width="3.4375" stroke-miterlimit="2" fill="none"/><circle cx="3393.5" cy="-3896.5" r="7" fill="#88C0D0"/><circle cx="3393.5" cy="-3896.5" r="7" stroke="#D8DEE9" stroke-width="3.4375" stroke-miterlimit="2" fill="none"/><circle cx="3393.5" cy="-7422.5" r="7" fill="#88C0D0"/><circle cx="3393.5" cy="-7422.5" r="7" stroke="#D8DEE9" stroke-width="3.4375" stroke-miterlimit="2" fill="none"/><circle cx="3393.5" cy="-11644.5" r="7" fill="#88C0D0"/><circle cx="3393.5" cy="-11644.5" r="7" stroke="#D8DEE9" stroke-width="3.4375" stroke-miterlimit="2" fill="none"/><circle cx="3393.5" cy="-19981.5" r="7" fill="#88C0D0"/><circle cx="3393.5" cy="-19981.5" r="7" stroke="#D8DEE9" stroke-width="3.4375" stroke-miterlimit="2" fill="none"/><circle cx="3393.5" cy="-27140.5" r="7" fill="#88C0D0"/><circle cx="3393.5" cy="-27140.5" r="7" stroke="#D8DEE9" stroke-width="3.4375" stroke-miterlimit="2" fill="none"/><path d="M3379.5-23.5 3407.5-50.5" stroke="#D8DEE9" stroke-width="3.4375" stroke-miterlimit="2" fill="none"/><path d="M3379.5-50.5 3407.5-23.5" stroke="#D8DEE9" stroke-width="3.4375" stroke-miterlimit="2" fill="none"/></g><path d="M1587.5 1008.5 3594.5 1008.5" stroke="#D9D9D9" stroke-width="3.4375" stroke-miterlimit="2" fill="none"/><text fill="#D8DEE9" font-family="Cascadia Code,Cascadia Code_MSFontService,sans-serif" font-weight="400" font-size="13.3333" transform="matrix(3.4375 0 0 3.4375 1720.4 1037.96)" x="0.136363" y="3.64213">P2PKH<tspan font-size="13.3333" x="120.798" y="3.64213">P2SH</tspan><tspan font-size="13.3333" x="229.706" y="3.64213">P2WPKH</tspan><tspan font-size="13.3333" x="350.368" y="3.64213">P2WSH</tspan><tspan font-size="13.3333" x="471.029" y="3.64213">P2TR</tspan></text><path d="" stroke="#D9D9D9" stroke-width="3.4375" stroke-miterlimit="2" fill="none"/><path d="" stroke="#D9D9D9" stroke-width="3.4375" stroke-miterlimit="2" fill="none"/><path d="" stroke="#D9D9D9" stroke-width="3.4375" stroke-miterlimit="2" fill="none"/><path d="" stroke="#D9D9D9" stroke-width="3.4375" stroke-miterlimit="2" fill="none"/><path d="" stroke="#D9D9D9" stroke-width="3.4375" stroke-miterlimit="2" fill="none"/><path d="" stroke="#D9D9D9" stroke-width="3.4375" stroke-miterlimit="2" fill="none"/><path d="" stroke="#D9D9D9" stroke-width="3.4375" stroke-miterlimit="2" fill="none"/><path d="" stroke="#D9D9D9" stroke-width="3.4375" stroke-miterlimit="2" fill="none"/><path d="" stroke="#D9D9D9" stroke-width="3.4375" stroke-miterlimit="2" fill="none"/><path d="" stroke="#D9D9D9" stroke-width="3.4375" stroke-miterlimit="2" fill="none"/><path d="" stroke="#D9D9D9" stroke-width="3.4375" stroke-miterlimit="2" fill="none"/><path d="" stroke="#D9D9D9" stroke-width="3.4375" stroke-miterlimit="2" fill="none"/><path d="" stroke="#D9D9D9" stroke-width="3.4375" stroke-miterlimit="2" fill="none"/><path d="" stroke="#D9D9D9" stroke-width="3.4375" stroke-miterlimit="2" fill="none"/><path d="" stroke="#D9D9D9" stroke-width="3.4375" stroke-miterlimit="2" fill="none"/><path d="" stroke="#D9D9D9" stroke-width="3.4375" stroke-miterlimit="2" fill="none"/><path d="" stroke="#D9D9D9" stroke-width="3.4375" stroke-miterlimit="2" fill="none"/><text fill="#D8DEE9" font-family="Cascadia Code,Cascadia Code_MSFontService,sans-serif" font-weight="400" font-size="46" transform="translate(2443.11 1164)">Script Type</text><path d="M1587.5 1008.5 1587.5 407.5" stroke="#D9D9D9" stroke-width="3.4375" stroke-miterlimit="2" fill="none"/><text fill="#D8DEE9" font-family="Cascadia Code,Cascadia Code_MSFontService,sans-serif" font-weight="400" font-size="13.3333" transform="matrix(3.4375 0 0 3.4375 1530.74 981.365)" x="0.0272727" y="3.69274">0<tspan font-size="13.3333" x="-23.5628" y="-15.7525">2000</tspan><tspan font-size="13.3333" x="-23.5628" y="-35.1978">4000</tspan><tspan font-size="13.3333" x="-23.5628" y="-54.643">6000</tspan><tspan font-size="13.3333" x="-23.5628" y="-74.0036">8000</tspan><tspan font-size="13.3333" x="-31.4261" y="-93.4489">10000</tspan><tspan font-size="13.3333" x="-31.4261" y="-112.894">12000</tspan><tspan font-size="13.3333" x="-31.4261" y="-132.339">14000</tspan><tspan font-size="13.3333" x="-31.4261" y="-151.7">16000</tspan><tspan font-size="13.3333" x="-31.4261" y="-171.145">18000</tspan></text><path d="" stroke="#D9D9D9" stroke-width="3.4375" stroke-miterlimit="2" fill="none"/><path d="" stroke="#D9D9D9" stroke-width="3.4375" stroke-miterlimit="2" fill="none"/><path d="" stroke="#D9D9D9" stroke-width="3.4375" stroke-miterlimit="2" fill="none"/><path d="" stroke="#D9D9D9" stroke-width="3.4375" stroke-miterlimit="2" fill="none"/><path d="" stroke="#D9D9D9" stroke-width="3.4375" stroke-miterlimit="2" fill="none"/><path d="" stroke="#D9D9D9" stroke-width="3.4375" stroke-miterlimit="2" fill="none"/><path d="" stroke="#D9D9D9" stroke-width="3.4375" stroke-miterlimit="2" fill="none"/><path d="" stroke="#D9D9D9" stroke-width="3.4375" stroke-miterlimit="2" fill="none"/><path d="" stroke="#D9D9D9" stroke-width="3.4375" stroke-miterlimit="2" fill="none"/><path d="" stroke="#D9D9D9" stroke-width="3.4375" stroke-miterlimit="2" fill="none"/><path d="" stroke="#D9D9D9" stroke-width="3.4375" stroke-miterlimit="2" fill="none"/><path d="" stroke="#D9D9D9" stroke-width="3.4375" stroke-miterlimit="2" fill="none"/><path d="" stroke="#D9D9D9" stroke-width="3.4375" stroke-miterlimit="2" fill="none"/><path d="" stroke="#D9D9D9" stroke-width="3.4375" stroke-miterlimit="2" fill="none"/><path d="" stroke="#D9D9D9" stroke-width="3.4375" stroke-miterlimit="2" fill="none"/><path d="" stroke="#D9D9D9" stroke-width="3.4375" stroke-miterlimit="2" fill="none"/><path d="" stroke="#D9D9D9" stroke-width="3.4375" stroke-miterlimit="2" fill="none"/><path d="" stroke="#D9D9D9" stroke-width="3.4375" stroke-miterlimit="2" fill="none"/><path d="" stroke="#D9D9D9" stroke-width="3.4375" stroke-miterlimit="2" fill="none"/><path d="" stroke="#D9D9D9" stroke-width="3.4375" stroke-miterlimit="2" fill="none"/><path d="" stroke="#D9D9D9" stroke-width="3.4375" stroke-miterlimit="2" fill="none"/><path d="" stroke="#D9D9D9" stroke-width="3.4375" stroke-miterlimit="2" fill="none"/><path d="" stroke="#D9D9D9" stroke-width="3.4375" stroke-miterlimit="2" fill="none"/><path d="" stroke="#D9D9D9" stroke-width="3.4375" stroke-miterlimit="2" fill="none"/><path d="" stroke="#D9D9D9" stroke-width="3.4375" stroke-miterlimit="2" fill="none"/><path d="" stroke="#D9D9D9" stroke-width="3.4375" stroke-miterlimit="2" fill="none"/><path d="" stroke="#D9D9D9" stroke-width="3.4375" stroke-miterlimit="2" fill="none"/><path d="" stroke="#D9D9D9" stroke-width="3.4375" stroke-miterlimit="2" fill="none"/><path d="" stroke="#D9D9D9" stroke-width="3.4375" stroke-miterlimit="2" fill="none"/><path d="" stroke="#D9D9D9" stroke-width="3.4375" stroke-miterlimit="2" fill="none"/><path d="" stroke="#D9D9D9" stroke-width="3.4375" stroke-miterlimit="2" fill="none"/><path d="" stroke="#D9D9D9" stroke-width="3.4375" stroke-miterlimit="2" fill="none"/><path d="" stroke="#D9D9D9" stroke-width="3.4375" stroke-miterlimit="2" fill="none"/><path d="" stroke="#D9D9D9" stroke-width="3.4375" stroke-miterlimit="2" fill="none"/><path d="" stroke="#D9D9D9" stroke-width="3.4375" stroke-miterlimit="2" fill="none"/><path d="" stroke="#D9D9D9" stroke-width="3.4375" stroke-miterlimit="2" fill="none"/><path d="" stroke="#D9D9D9" stroke-width="3.4375" stroke-miterlimit="2" fill="none"/><path d="" stroke="#D9D9D9" stroke-width="3.4375" stroke-miterlimit="2" fill="none"/><path d="" stroke="#D9D9D9" stroke-width="3.4375" stroke-miterlimit="2" fill="none"/><path d="" stroke="#D9D9D9" stroke-width="3.4375" stroke-miterlimit="2" fill="none"/><path d="" stroke="#D9D9D9" stroke-width="3.4375" stroke-miterlimit="2" fill="none"/><path d="" stroke="#D9D9D9" stroke-width="3.4375" stroke-miterlimit="2" fill="none"/><path d="" stroke="#D9D9D9" stroke-width="3.4375" stroke-miterlimit="2" fill="none"/><path d="" stroke="#D9D9D9" stroke-width="3.4375" stroke-miterlimit="2" fill="none"/><path d="" stroke="#D9D9D9" stroke-width="3.4375" stroke-miterlimit="2" fill="none"/><path d="" stroke="#D9D9D9" stroke-width="3.4375" stroke-miterlimit="2" fill="none"/><path d="" stroke="#D9D9D9" stroke-width="3.4375" stroke-miterlimit="2" fill="none"/><path d="" stroke="#D9D9D9" stroke-width="3.4375" stroke-miterlimit="2" fill="none"/><path d="" stroke="#D9D9D9" stroke-width="3.4375" stroke-miterlimit="2" fill="none"/><path d="" stroke="#D9D9D9" stroke-width="3.4375" stroke-miterlimit="2" fill="none"/><path d="" stroke="#D9D9D9" stroke-width="3.4375" stroke-miterlimit="2" fill="none"/><path d="" stroke="#D9D9D9" stroke-width="3.4375" stroke-miterlimit="2" fill="none"/><path d="" stroke="#D9D9D9" stroke-width="3.4375" stroke-miterlimit="2" fill="none"/><path d="" stroke="#D9D9D9" stroke-width="3.4375" stroke-miterlimit="2" fill="none"/><path d="" stroke="#D9D9D9" stroke-width="3.4375" stroke-miterlimit="2" fill="none"/><path d="" stroke="#D9D9D9" stroke-width="3.4375" stroke-miterlimit="2" fill="none"/><text fill="#D8DEE9" font-family="Cascadia Code,Cascadia Code_MSFontService,sans-serif" font-weight="400" font-size="46" transform="matrix(-1.83697e-16 -1 1 -1.83697e-16 1381.74 923)">Total Fee (sats)</text><g><text fill="#D8DEE9" font-family="Cascadia Code,Cascadia Code_MSFontService,sans-serif" font-weight="700" font-size="64" transform="translate(1998.92 295)">Total Fees by Script Type</text></g><g><text fill="#D8DEE9" font-family="Cascadia Code,Cascadia Code_MSFontService,sans-serif" font-weight="400" font-size="46" transform="translate(2307.84 352)">Block 782400</text></g><path d="M1315 210 3625 210 3625 1200 1315 1200Z" fill="#000000" fill-rule="evenodd" fill-opacity="0"/></g></svg>